futhark-adapted.sfdir
StartChar: exclam
Encoding: 33 33 4
Width: 582
Flags: W
LayerCount: 2
Back
Fore
SplineSet
375 1434 m 1,0,-1
 356 404 l 1,1,-1
 221 404 l 1,2,-1
 203 1434 l 1,3,-1
 375 1434 l 1,0,-1
291 -18 m 0,4,5
 245 -18 245 -18 212.5 14 c 128,-1,6
 180 46 180 46 180 92 c 128,-1,7
 180 138 180 138 212.5 170.5 c 128,-1,8
 245 203 245 203 291 203 c 0,9,10
 336 203 336 203 369 170.5 c 128,-1,11
 402 138 402 138 402 92 c 128,-1,12
 402 46 402 46 369 14 c 128,-1,13
 336 -18 336 -18 291 -18 c 0,4,5
EndSplineSet
EndChar
StartChar: quotedbl
Encoding: 34 34 5
Width: 802
Flags: W
LayerCount: 2
Back
Fore
SplineSet
323 1434 m 1,0,-1
 293 987 l 1,1,-1
 178 987 l 1,2,-1
 148 1434 l 1,3,-1
 323 1434 l 1,0,-1
655 1434 m 1,4,-1
 625 987 l 1,5,-1
 510 987 l 1,6,-1
 480 1434 l 1,7,-1
 655 1434 l 1,4,-1
EndSplineSet
EndChar
StartChar: numbersign
Encoding: 35 35 6
Width: 1213
Flags: W
LayerCount: 2
Back
Fore
SplineSet
1166 1032 m 1,0,-1
 1143 926 l 1,1,-1
 882 926 l 1,2,-1
 819 626 l 1,3,-1
 1100 626 l 1,4,-1
 1073 520 l 1,5,-1
 798 520 l 1,6,-1
 710 123 l 1,7,-1
 584 123 l 1,8,-1
 670 520 l 1,9,-1
 420 520 l 1,10,-1
 336 123 l 1,11,-1
 211 123 l 1,12,-1
 295 520 l 1,13,-1
 33 520 l 1,14,-1
 53 626 l 1,15,-1
 318 626 l 1,16,-1
 379 926 l 1,17,-1
 102 926 l 1,18,-1
 123 1032 l 1,19,-1
 400 1032 l 1,20,-1
 484 1434 l 1,21,-1
 610 1434 l 1,22,-1
 526 1032 l 1,23,-1
 778 1032 l 1,24,-1
 864 1434 l 1,25,-1
 987 1434 l 1,26,-1
 903 1032 l 1,27,-1
 1166 1032 l 1,0,-1
758 926 m 1,28,-1
 506 926 l 1,29,-1
 440 626 l 1,30,-1
 694 626 l 1,31,-1
 758 926 l 1,28,-1
EndSplineSet
EndChar
StartChar: dollar
Encoding: 36 36 7
Width: 1106
Flags: W
LayerCount: 2
Back
Fore
SplineSet
616 8 m 1,0,-1
 616 -209 l 1,1,-1
 512 -209 l 1,2,-1
 512 0 l 1,3,4
 299 0 299 0 166 86 c 1,5,-1
 166 260 l 1,6,7
 224 209 224 209 324.5 174.5 c 128,-1,8
 425 140 425 140 512 140 c 1,9,-1
 512 652 l 1,10,11
 292 758 292 758 227 847.5 c 128,-1,12
 162 937 162 937 162 1059 c 0,13,14
 162 1204 162 1204 261 1309.5 c 128,-1,15
 360 1415 360 1415 512 1436 c 1,16,-1
 512 1616 l 1,17,-1
 616 1616 l 1,18,-1
 616 1440 l 1,19,20
 812 1434 812 1434 887 1384 c 1,21,-1
 887 1214 l 1,22,23
 785 1294 785 1294 616 1300 c 1,24,-1
 616 772 l 1,25,26
 824 673 824 673 900.5 580.5 c 128,-1,27
 977 488 977 488 977 370 c 0,28,29
 977 228 977 228 881.5 131.5 c 128,-1,30
 786 35 786 35 616 8 c 1,0,-1
512 828 m 1,31,-1
 512 1294 l 1,32,33
 428 1277 428 1277 379 1219.5 c 128,-1,34
 330 1162 330 1162 330 1080 c 0,35,36
 330 994 330 994 370 939 c 128,-1,37
 410 884 410 884 512 828 c 1,31,-1
616 600 m 1,38,-1
 616 148 l 1,39,40
 809 190 809 190 809 356 c 0,41,42
 809 494 809 494 616 600 c 1,38,-1
EndSplineSet
EndChar
StartChar: percent
Encoding: 37 37 8
Width: 1676
Flags: W
LayerCount: 2
Back
Fore
SplineSet
404 715 m 0,0,1
 256 715 256 715 168 812.5 c 128,-1,2
 80 910 80 910 80 1073 c 0,3,4
 80 1251 80 1251 173 1353.5 c 128,-1,5
 266 1456 266 1456 424 1456 c 0,6,7
 577 1456 577 1456 661.5 1361 c 128,-1,8
 746 1266 746 1266 746 1094 c 128,-1,9
 746 922 746 922 651.5 818.5 c 128,-1,10
 557 715 557 715 404 715 c 0,0,1
418 1346 m 0,11,12
 323 1346 323 1346 268 1275.5 c 128,-1,13
 213 1205 213 1205 213 1082 c 0,14,15
 213 961 213 961 267 893.5 c 128,-1,16
 321 826 321 826 414 826 c 0,17,18
 508 826 508 826 561 896 c 128,-1,19
 614 966 614 966 614 1090 c 0,20,21
 614 1211 614 1211 561.5 1278.5 c 128,-1,22
 509 1346 509 1346 418 1346 c 0,11,12
1364 1434 m 1,23,-1
 444 -10 l 1,24,-1
 301 -10 l 1,25,-1
 1220 1434 l 1,26,-1
 1364 1434 l 1,23,-1
1258 -22 m 0,27,28
 1110 -22 1110 -22 1022 76 c 128,-1,29
 934 174 934 174 934 336 c 0,30,31
 934 514 934 514 1028 617.5 c 128,-1,32
 1122 721 1122 721 1278 721 c 0,33,34
 1430 721 1430 721 1515 625 c 128,-1,35
 1600 529 1600 529 1600 356 c 0,36,37
 1600 185 1600 185 1505.5 81.5 c 128,-1,38
 1411 -22 1411 -22 1258 -22 c 0,27,28
1272 608 m 0,39,40
 1176 608 1176 608 1121.5 538 c 128,-1,41
 1067 468 1067 468 1067 344 c 0,42,43
 1067 225 1067 225 1121 157.5 c 128,-1,44
 1175 90 1175 90 1268 90 c 0,45,46
 1362 90 1362 90 1415 160.5 c 128,-1,47
 1468 231 1468 231 1468 354 c 0,48,49
 1468 476 1468 476 1415.5 542 c 128,-1,50
 1363 608 1363 608 1272 608 c 0,39,40
EndSplineSet
EndChar
StartChar: ampersand
Encoding: 38 38 9
Width: 2048
Flags: W
LayerCount: 2
Back
Fore
SplineSet
1445 -23 m 0,0,1
 1388 -23 1388 -23 1344.5 -7.5 c 128,-1,2
 1301 8 1301 8 1264 36.5 c 128,-1,3
 1227 65 1227 65 1192.5 106 c 128,-1,4
 1158 147 1158 147 1120 199 c 1,5,6
 1080 156 1080 156 1027.5 116 c 128,-1,7
 975 76 975 76 911 45 c 128,-1,8
 847 14 847 14 771 -4.5 c 128,-1,9
 695 -23 695 -23 606 -23 c 0,10,11
 498 -23 498 -23 408 4 c 128,-1,12
 318 31 318 31 254 83.5 c 128,-1,13
 190 136 190 136 154.5 213 c 128,-1,14
 119 290 119 290 119 390 c 0,15,16
 119 543 119 543 206 651.5 c 128,-1,17
 293 760 293 760 452 829 c 1,18,19
 422 851 422 851 392 880.5 c 128,-1,20
 362 910 362 910 338.5 947.5 c 128,-1,21
 315 985 315 985 300.5 1030.5 c 128,-1,22
 286 1076 286 1076 286 1130 c 0,23,24
 286 1209 286 1209 314.5 1270 c 128,-1,25
 343 1331 343 1331 393 1373 c 128,-1,26
 443 1415 443 1415 511 1436.5 c 128,-1,27
 579 1458 579 1458 658 1458 c 0,28,29
 736 1458 736 1458 800.5 1436.5 c 128,-1,30
 865 1415 865 1415 911.5 1375 c 128,-1,31
 958 1335 958 1335 984 1279 c 128,-1,32
 1010 1223 1010 1223 1010 1154 c 0,33,34
 1010 1034 1010 1034 941.5 954.5 c 128,-1,35
 873 875 873 875 736 819 c 1,36,37
 805 792 805 792 861 753 c 128,-1,38
 917 714 917 714 964.5 666 c 128,-1,39
 1012 618 1012 618 1053 563 c 2,40,-1
 1134 449 l 1,41,42
 1215 562 1215 562 1256 698 c 128,-1,43
 1297 834 1297 834 1297 983 c 0,44,45
 1297 1021 1297 1021 1292.5 1054.5 c 128,-1,46
 1288 1088 1288 1088 1280 1121 c 1,47,-1
 1439 1121 l 1,48,49
 1447 1088 1447 1088 1448 1058 c 2,50,-1
 1452 988 l 1,51,52
 1452 897 1452 897 1433 805 c 128,-1,53
 1414 713 1414 713 1382 626.5 c 128,-1,54
 1350 540 1350 540 1307.5 462 c 128,-1,55
 1265 384 1265 384 1218 319 c 1,56,57
 1253 271 1253 271 1282 235.5 c 128,-1,58
 1311 200 1311 200 1340.5 176 c 128,-1,59
 1370 152 1370 152 1401.5 140.5 c 128,-1,60
 1433 129 1433 129 1473 129 c 0,61,62
 1503 129 1503 129 1534 137 c 128,-1,63
 1565 145 1565 145 1598 157 c 1,64,-1
 1598 5 l 1,65,66
 1562 -9 1562 -9 1522.5 -16 c 128,-1,67
 1483 -23 1483 -23 1445 -23 c 0,0,1
606 119 m 0,68,69
 682 119 682 119 746 135.5 c 128,-1,70
 810 152 810 152 864 179.5 c 128,-1,71
 918 207 918 207 962 243.5 c 128,-1,72
 1006 280 1006 280 1042 320 c 1,73,74
 981 415 981 415 929.5 482.5 c 128,-1,75
 878 550 878 550 825.5 599 c 128,-1,76
 773 648 773 648 713.5 683 c 128,-1,77
 654 718 654 718 576 748 c 1,78,79
 513 723 513 723 460 692.5 c 128,-1,80
 407 662 407 662 368.5 620.5 c 128,-1,81
 330 579 330 579 308 524 c 128,-1,82
 286 469 286 469 286 395 c 0,83,84
 286 327 286 327 311 275 c 128,-1,85
 336 223 336 223 379.5 188.5 c 128,-1,86
 423 154 423 154 481 136.5 c 128,-1,87
 539 119 539 119 606 119 c 0,68,69
856 1140 m 0,88,89
 856 1190 856 1190 837.5 1225 c 128,-1,90
 819 1260 819 1260 790.5 1283 c 128,-1,91
 762 1306 762 1306 727 1316.5 c 128,-1,92
 692 1327 692 1327 658 1327 c 0,93,94
 560 1327 560 1327 501.5 1274 c 128,-1,95
 443 1221 443 1221 442 1130 c 0,96,97
 442 1089 442 1089 454.5 1053 c 128,-1,98
 467 1017 467 1017 489.5 986 c 128,-1,99
 512 955 512 955 542 931 c 128,-1,100
 572 907 572 907 606 890 c 1,101,102
 732 934 732 934 794 992.5 c 128,-1,103
 856 1051 856 1051 856 1140 c 0,88,89
EndSplineSet
EndChar
StartChar: quotesingle
Encoding: 39 39 10
Width: 473
Flags: W
LayerCount: 2
Back
Fore
SplineSet
323 1434 m 1,0,-1
 293 987 l 1,1,-1
 178 987 l 1,2,-1
 148 1434 l 1,3,-1
 323 1434 l 1,0,-1
EndSplineSet
EndChar
StartChar: asterisk
Encoding: 42 42 13
Width: 854
Flags: W
LayerCount: 2
Back
Fore
SplineSet
780 1104 m 1,0,-1
 506 1048 l 1,1,-1
 696 805 l 1,2,-1
 586 729 l 1,3,-1
 430 994 l 1,4,-1
 272 729 l 1,5,-1
 162 805 l 1,6,-1
 352 1048 l 1,7,-1
 76 1104 l 1,8,-1
 121 1229 l 1,9,-1
 383 1130 l 1,10,-1
 360 1434 l 1,11,-1
 498 1434 l 1,12,-1
 475 1130 l 1,13,-1
 738 1229 l 1,14,-1
 780 1104 l 1,0,-1
EndSplineSet
EndChar
StartChar: plus
Encoding: 43 43 14
Width: 1401
Flags: W
LayerCount: 2
Back
Fore
SplineSet
1172 530 m 1,0,-1
 768 530 l 1,1,-1
 768 127 l 1,2,-1
 635 127 l 1,3,-1
 635 530 l 1,4,-1
 232 530 l 1,5,-1
 232 664 l 1,6,-1
 635 664 l 1,7,-1
 635 1067 l 1,8,-1
 768 1067 l 1,9,-1
 768 664 l 1,10,-1
 1172 664 l 1,11,-1
 1172 530 l 1,0,-1
EndSplineSet
EndChar
StartChar: comma
Encoding: 44 44 15
Width: 444
Flags: W
LayerCount: 2
Back
Fore
SplineSet
316 228 m 1,0,-1
 156 -264 l 1,1,-1
 39 -264 l 1,2,-1
 156 228 l 1,3,-1
 316 228 l 1,0,-1
EndSplineSet
EndChar
StartChar: hyphen
Encoding: 45 45 16
Width: 819
Flags: W
LayerCount: 2
Back
Fore
SplineSet
690 506 m 1,0,-1
 144 506 l 1,1,-1
 144 635 l 1,2,-1
 690 635 l 1,3,-1
 690 506 l 1,0,-1
EndSplineSet
EndChar
StartChar: period
Encoding: 46 46 17
Width: 444
Flags: W
LayerCount: 2
Back
Fore
SplineSet
223 -22 m 0,0,1
 177 -22 177 -22 144.5 11 c 128,-1,2
 112 44 112 44 112 90 c 256,3,4
 112 136 112 136 144.5 169.5 c 128,-1,5
 177 203 177 203 223 203 c 0,6,7
 270 203 270 203 303 169.5 c 128,-1,8
 336 136 336 136 336 90 c 256,9,10
 336 44 336 44 303 11 c 128,-1,11
 270 -22 270 -22 223 -22 c 0,0,1
EndSplineSet
EndChar
StartChar: slash
Encoding: 47 47 18
Width: 798
Flags: W
LayerCount: 2
Back
Fore
SplineSet
813 1434 m 1,0,-1
 125 -238 l 1,1,-1
 -28 -238 l 1,2,-1
 658 1434 l 1,3,-1
 813 1434 l 1,0,-1
EndSplineSet
EndChar
StartChar: zero
Encoding: 48 48 19
Width: 1104
Flags: W
LayerCount: 2
Back
Fore
SplineSet
538 -24 m 0,0,1
 325 -24 325 -24 205.5 159 c 128,-1,2
 86 342 86 342 86 688 c 0,3,4
 86 1068 86 1068 210.5 1263 c 128,-1,5
 335 1458 335 1458 570 1458 c 0,6,7
 1020 1458 1020 1458 1020 723 c 0,8,9
 1020 359 1020 359 893 167.5 c 128,-1,10
 766 -24 766 -24 538 -24 c 0,0,1
561 1319 m 0,11,12
 254 1319 254 1319 254 696 c 0,13,14
 254 114 254 114 555 114 c 0,15,16
 852 114 852 114 852 706 c 0,17,18
 852 1319 852 1319 561 1319 c 0,11,12
EndSplineSet
EndChar
StartChar: one
Encoding: 49 49 20
Width: 1104
Flags: W
LayerCount: 2
Back
Fore
SplineSet
987 0 m 1,0,-1
 176 0 l 1,1,-1
 176 144 l 1,2,-1
 500 144 l 1,3,-1
 500 1258 l 1,4,-1
 168 1159 l 1,5,-1
 168 1315 l 1,6,-1
 664 1466 l 1,7,-1
 664 144 l 1,8,-1
 987 144 l 1,9,-1
 987 0 l 1,0,-1
EndSplineSet
EndChar
StartChar: two
Encoding: 50 50 21
Width: 1104
Flags: W
LayerCount: 2
Back
Fore
SplineSet
960 0 m 1,0,-1
 96 0 l 1,1,-1
 96 146 l 1,2,-1
 514 565 l 2,3,4
 674 725 674 725 742.5 831.5 c 128,-1,5
 811 938 811 938 811 1059 c 0,6,7
 811 1183 811 1183 740 1251 c 128,-1,8
 669 1319 669 1319 538 1319 c 0,9,10
 346 1319 346 1319 170 1155 c 1,11,-1
 170 1327 l 1,12,13
 338 1458 338 1458 561 1458 c 0,14,15
 753 1458 753 1458 863 1354 c 128,-1,16
 973 1250 973 1250 973 1075 c 0,17,18
 973 937 973 937 897 805.5 c 128,-1,19
 821 674 821 674 624 479 c 2,20,-1
 293 152 l 1,21,-1
 293 148 l 1,22,-1
 960 148 l 1,23,-1
 960 0 l 1,0,-1
EndSplineSet
EndChar
StartChar: three
Encoding: 51 51 22
Width: 1104
Flags: W
LayerCount: 2
Back
Fore
SplineSet
131 53 m 1,0,-1
 131 230 l 1,1,2
 278 114 278 114 463 114 c 0,3,4
 613 114 613 114 702.5 189 c 128,-1,5
 792 264 792 264 792 391 c 0,6,7
 792 672 792 672 393 672 c 2,8,-1
 274 672 l 1,9,-1
 274 811 l 1,10,-1
 387 811 l 2,11,12
 742 811 742 811 742 1075 c 0,13,14
 742 1319 742 1319 471 1319 c 0,15,16
 320 1319 320 1319 186 1216 c 1,17,-1
 186 1376 l 1,18,19
 324 1458 324 1458 512 1458 c 0,20,21
 693 1458 693 1458 801.5 1362 c 128,-1,22
 910 1266 910 1266 910 1116 c 0,23,24
 910 833 910 833 622 752 c 1,25,-1
 622 748 l 1,26,27
 777 733 777 733 868.5 639.5 c 128,-1,28
 960 546 960 546 960 406 c 0,29,30
 960 213 960 213 821.5 94.5 c 128,-1,31
 683 -24 683 -24 456 -24 c 0,32,33
 252 -24 252 -24 131 53 c 1,0,-1
EndSplineSet
EndChar
StartChar: four
Encoding: 52 52 23
Width: 1104
Flags: W
LayerCount: 2
Back
Fore
SplineSet
1034 381 m 1,0,-1
 850 381 l 1,1,-1
 850 0 l 1,2,-1
 688 0 l 1,3,-1
 688 381 l 1,4,-1
 14 381 l 1,5,-1
 14 488 l 1,6,-1
 652 1434 l 1,7,-1
 850 1434 l 1,8,-1
 850 514 l 1,9,-1
 1034 514 l 1,10,-1
 1034 381 l 1,0,-1
688 514 m 1,11,-1
 688 1134 l 2,12,13
 688 1200 688 1200 692 1282 c 1,14,-1
 688 1282 l 1,15,16
 674 1246 674 1246 633 1172 c 1,17,-1
 192 514 l 1,18,-1
 688 514 l 1,11,-1
EndSplineSet
EndChar
StartChar: five
Encoding: 53 53 24
Width: 1104
Flags: W
LayerCount: 2
Back
Fore
SplineSet
164 35 m 1,0,-1
 164 209 l 1,1,2
 311 114 311 114 463 114 c 256,3,4
 615 114 615 114 708 200 c 128,-1,5
 801 286 801 286 801 428 c 0,6,7
 801 569 801 569 706 648 c 128,-1,8
 611 727 611 727 434 727 c 0,9,10
 374 727 374 727 209 715 c 1,11,-1
 209 1434 l 1,12,-1
 903 1434 l 1,13,-1
 903 1286 l 1,14,-1
 364 1286 l 1,15,-1
 364 866 l 1,16,17
 430 870 430 870 486 870 c 0,18,19
 716 870 716 870 842 754.5 c 128,-1,20
 968 639 968 639 968 438 c 0,21,22
 968 230 968 230 832.5 103 c 128,-1,23
 697 -24 697 -24 461 -24 c 0,24,25
 262 -24 262 -24 164 35 c 1,0,-1
EndSplineSet
EndChar
StartChar: six
Encoding: 54 54 25
Width: 1104
Flags: W
LayerCount: 2
Back
Fore
SplineSet
934 1417 m 1,0,-1
 934 1262 l 1,1,2
 823 1319 823 1319 700 1319 c 0,3,4
 509 1319 509 1319 394.5 1149 c 128,-1,5
 280 979 280 979 280 694 c 1,6,-1
 284 694 l 1,7,8
 384 897 384 897 612 897 c 0,9,10
 800 897 800 897 911 776.5 c 128,-1,11
 1022 656 1022 656 1022 454 c 0,12,13
 1022 243 1022 243 895 109.5 c 128,-1,14
 768 -24 768 -24 572 -24 c 0,15,16
 356 -24 356 -24 233 148 c 128,-1,17
 110 320 110 320 110 631 c 0,18,19
 110 1008 110 1008 271 1233 c 128,-1,20
 432 1458 432 1458 696 1458 c 0,21,22
 846 1458 846 1458 934 1417 c 1,0,-1
576 758 m 0,23,24
 449 758 449 758 370 672 c 128,-1,25
 291 586 291 586 291 469 c 0,26,27
 291 322 291 322 369.5 218 c 128,-1,28
 448 114 448 114 578 114 c 0,29,30
 702 114 702 114 778 204.5 c 128,-1,31
 854 295 854 295 854 434 c 0,32,33
 854 586 854 586 781 672 c 128,-1,34
 708 758 708 758 576 758 c 0,23,24
EndSplineSet
EndChar
StartChar: seven
Encoding: 55 55 26
Width: 1104
Flags: W
LayerCount: 2
Back
Fore
SplineSet
1010 1382 m 1,0,-1
 442 0 l 1,1,-1
 272 0 l 1,2,-1
 809 1286 l 1,3,-1
 86 1286 l 1,4,-1
 86 1434 l 1,5,-1
 1010 1434 l 1,6,-1
 1010 1382 l 1,0,-1
EndSplineSet
EndChar
StartChar: eight
Encoding: 56 56 27
Width: 1104
Flags: W
LayerCount: 2
Back
Fore
SplineSet
410 752 m 1,0,-1
 410 756 l 1,1,2
 152 876 152 876 152 1104 c 0,3,4
 152 1259 152 1259 270 1358.5 c 128,-1,5
 388 1458 388 1458 574 1458 c 0,6,7
 742 1458 742 1458 850 1365 c 128,-1,8
 958 1272 958 1272 958 1126 c 0,9,10
 958 888 958 888 692 756 c 1,11,-1
 692 752 l 1,12,13
 1006 640 1006 640 1006 364 c 0,14,15
 1006 186 1006 186 878 81 c 128,-1,16
 750 -24 750 -24 522 -24 c 0,17,18
 338 -24 338 -24 219 80 c 128,-1,19
 100 184 100 184 100 350 c 0,20,21
 100 626 100 626 410 752 c 1,0,-1
790 1106 m 0,22,23
 790 1205 790 1205 728 1262 c 128,-1,24
 666 1319 666 1319 559 1319 c 0,25,26
 459 1319 459 1319 389.5 1259.5 c 128,-1,27
 320 1200 320 1200 320 1108 c 0,28,29
 320 921 320 921 553 826 c 1,30,31
 790 924 790 924 790 1106 c 0,22,23
542 674 m 1,32,33
 268 565 268 565 268 358 c 0,34,35
 268 251 268 251 347.5 182.5 c 128,-1,36
 427 114 427 114 557 114 c 0,37,38
 681 114 681 114 759.5 181.5 c 128,-1,39
 838 249 838 249 838 352 c 0,40,41
 838 568 838 568 542 674 c 1,32,33
EndSplineSet
EndChar
StartChar: nine
Encoding: 57 57 28
Width: 1104
Flags: W
LayerCount: 2
Back
Fore
SplineSet
172 24 m 1,0,-1
 172 182 l 1,1,2
 292 114 292 114 426 114 c 0,3,4
 621 114 621 114 729.5 271 c 128,-1,5
 838 428 838 428 838 717 c 1,6,7
 836 716 836 716 834 717 c 1,8,9
 742 532 742 532 514 532 c 0,10,11
 330 532 330 532 212 657 c 128,-1,12
 94 782 94 782 94 979 c 0,13,14
 94 1189 94 1189 223.5 1323.5 c 128,-1,15
 353 1458 353 1458 555 1458 c 0,16,17
 767 1458 767 1458 885.5 1290.5 c 128,-1,18
 1004 1123 1004 1123 1004 803 c 0,19,20
 1004 406 1004 406 850 191 c 128,-1,21
 696 -24 696 -24 422 -24 c 0,22,23
 278 -24 278 -24 172 24 c 1,0,-1
540 1319 m 0,24,25
 421 1319 421 1319 341.5 1229.5 c 128,-1,26
 262 1140 262 1140 262 1002 c 0,27,28
 262 851 262 851 340 764.5 c 128,-1,29
 418 678 418 678 551 678 c 0,30,31
 667 678 667 678 747.5 757 c 128,-1,32
 828 836 828 836 828 950 c 0,33,34
 828 1113 828 1113 748 1216 c 128,-1,35
 668 1319 668 1319 540 1319 c 0,24,25
EndSplineSet
EndChar
StartChar: colon
Encoding: 58 58 29
Width: 444
Flags: W
LayerCount: 2
Back
Fore
SplineSet
223 824 m 0,0,1
 177 824 177 824 144.5 857 c 128,-1,2
 112 890 112 890 112 936 c 256,3,4
 112 982 112 982 144.5 1014 c 128,-1,5
 177 1046 177 1046 223 1046 c 0,6,7
 270 1046 270 1046 303 1014 c 128,-1,8
 336 982 336 982 336 936 c 256,9,10
 336 890 336 890 303 857 c 128,-1,11
 270 824 270 824 223 824 c 0,0,1
223 -22 m 0,12,13
 177 -22 177 -22 144.5 11 c 128,-1,14
 112 44 112 44 112 90 c 256,15,16
 112 136 112 136 144.5 169.5 c 128,-1,17
 177 203 177 203 223 203 c 0,18,19
 270 203 270 203 303 169.5 c 128,-1,20
 336 136 336 136 336 90 c 256,21,22
 336 44 336 44 303 11 c 128,-1,23
 270 -22 270 -22 223 -22 c 0,12,13
EndSplineSet
EndChar
StartChar: semicolon
Encoding: 59 59 30
Width: 444
Flags: W
LayerCount: 2
Back
Fore
SplineSet
226 824 m 0,0,1
 179 824 179 824 146.5 857 c 128,-1,2
 114 890 114 890 114 936 c 256,3,4
 114 982 114 982 146.5 1014 c 128,-1,5
 179 1046 179 1046 226 1046 c 0,6,7
 272 1046 272 1046 305 1014 c 128,-1,8
 338 982 338 982 338 936 c 256,9,10
 338 890 338 890 305 857 c 128,-1,11
 272 824 272 824 226 824 c 0,0,1
316 228 m 1,12,-1
 156 -264 l 1,13,-1
 39 -264 l 1,14,-1
 156 228 l 1,15,-1
 316 228 l 1,12,-1
EndSplineSet
EndChar
StartChar: less
Encoding: 60 60 31
Width: 1401
Flags: W
LayerCount: 2
Back
Fore
SplineSet
1132 127 m 1,0,-1
 272 559 l 1,1,-1
 272 618 l 1,2,-1
 1132 1100 l 1,3,-1
 1132 950 l 1,4,-1
 490 594 l 1,5,-1
 490 590 l 1,6,-1
 1132 276 l 1,7,-1
 1132 127 l 1,0,-1
EndSplineSet
EndChar
StartChar: equal
Encoding: 61 61 32
Width: 1401
Flags: W
LayerCount: 2
Back
Fore
SplineSet
1172 744 m 1,0,-1
 232 744 l 1,1,-1
 232 876 l 1,2,-1
 1172 876 l 1,3,-1
 1172 744 l 1,0,-1
1172 318 m 1,4,-1
 232 318 l 1,5,-1
 232 450 l 1,6,-1
 1172 450 l 1,7,-1
 1172 318 l 1,4,-1
EndSplineSet
EndChar
StartChar: greater
Encoding: 62 62 33
Width: 1401
Flags: W
LayerCount: 2
Back
Fore
SplineSet
1132 559 m 1,0,-1
 272 127 l 1,1,-1
 272 276 l 1,2,-1
 916 588 l 1,3,-1
 916 594 l 1,4,-1
 272 950 l 1,5,-1
 272 1100 l 1,6,-1
 1132 618 l 1,7,-1
 1132 559 l 1,0,-1
EndSplineSet
EndChar
StartChar: question
Encoding: 63 63 34
Width: 918
Flags: W
LayerCount: 2
Back
Fore
SplineSet
335 398 m 1,0,1
 326 424 326 424 319 465.5 c 128,-1,2
 312 507 312 507 312 548 c 0,3,4
 312 612 312 612 337.5 663.5 c 128,-1,5
 363 715 363 715 401 760 c 128,-1,6
 439 805 439 805 484 846.5 c 128,-1,7
 529 888 529 888 567 930.5 c 128,-1,8
 605 973 605 973 630.5 1019.5 c 128,-1,9
 656 1066 656 1066 656 1122 c 0,10,11
 656 1170 656 1170 637.5 1207 c 128,-1,12
 619 1244 619 1244 587 1269 c 128,-1,13
 555 1294 555 1294 513 1306.5 c 128,-1,14
 471 1319 471 1319 424 1319 c 0,15,16
 255 1319 255 1319 131 1186 c 1,17,-1
 131 1362 l 1,18,19
 284 1458 284 1458 448 1458 c 0,20,21
 524 1458 524 1458 591 1438 c 128,-1,22
 658 1418 658 1418 708.5 1378.5 c 128,-1,23
 759 1339 759 1339 788 1280 c 128,-1,24
 817 1221 817 1221 817 1143 c 0,25,26
 817 1069 817 1069 791 1011 c 128,-1,27
 765 953 765 953 725.5 904.5 c 128,-1,28
 686 856 686 856 640 814 c 128,-1,29
 594 772 594 772 554.5 730.5 c 128,-1,30
 515 689 515 689 489 644 c 128,-1,31
 463 599 463 599 463 545 c 0,32,33
 463 499 463 499 474 461.5 c 128,-1,34
 485 424 485 424 496 398 c 1,35,-1
 335 398 l 1,0,1
425 -18 m 256,36,37
 381 -18 381 -18 347 14 c 0,38,39
 314 46 314 46 314 92 c 0,40,41
 314 139 314 139 347 170 c 0,42,43
 380 203 380 203 425 203 c 256,44,45
 470 203 470 203 503 170 c 0,46,47
 536 139 536 139 536 92 c 0,48,49
 536 46 536 46 503 14 c 0,50,51
 469 -18 469 -18 425 -18 c 256,36,37
EndSplineSet
EndChar
StartChar: at
Encoding: 64 64 35
Width: 1956
Flags: W
LayerCount: 2
Back
Fore
SplineSet
1164 420 m 1,0,-1
 1159 420 l 1,1,2
 1086 182 1086 182 872 182 c 0,3,4
 735 182 735 182 651.5 283 c 128,-1,5
 568 384 568 384 568 555 c 0,6,7
 568 781 568 781 683.5 930.5 c 128,-1,8
 799 1080 799 1080 987 1080 c 0,9,10
 1059 1080 1059 1080 1115.5 1043 c 128,-1,11
 1172 1006 1172 1006 1188 950 c 1,12,-1
 1192 950 l 1,13,14
 1194 978 1194 978 1202 1065 c 1,15,-1
 1327 1065 l 1,16,17
 1280 514 1280 514 1280 504 c 0,18,19
 1280 297 1280 297 1399 297 c 0,20,21
 1507 297 1507 297 1578.5 414 c 128,-1,22
 1650 531 1650 531 1650 717 c 0,23,24
 1650 992 1650 992 1476 1166 c 128,-1,25
 1302 1340 1302 1340 994 1340 c 0,26,27
 697 1340 697 1340 503 1132 c 128,-1,28
 309 924 309 924 309 612 c 0,29,30
 309 305 309 305 493.5 116.5 c 128,-1,31
 678 -72 678 -72 991 -72 c 0,32,33
 1238 -72 1238 -72 1413 10 c 1,34,-1
 1413 -114 l 1,35,36
 1240 -188 1240 -188 981 -188 c 0,37,38
 617 -188 617 -188 394.5 31.5 c 128,-1,39
 172 251 172 251 172 606 c 0,40,41
 172 972 172 972 405.5 1213 c 128,-1,42
 639 1454 639 1454 1002 1454 c 0,43,44
 1342 1454 1342 1454 1565 1252 c 128,-1,45
 1788 1050 1788 1050 1788 725 c 0,46,47
 1788 487 1788 487 1670.5 334.5 c 128,-1,48
 1553 182 1553 182 1384 182 c 0,49,50
 1165 182 1165 182 1164 420 c 1,0,-1
985 964 m 0,51,52
 861 964 861 964 784.5 846 c 128,-1,53
 708 728 708 728 708 553 c 0,54,55
 708 435 708 435 759.5 367 c 128,-1,56
 811 299 811 299 897 299 c 0,57,58
 1021 299 1021 299 1093.5 422.5 c 128,-1,59
 1166 546 1166 546 1166 750 c 0,60,61
 1166 964 1166 964 985 964 c 0,51,52
EndSplineSet
EndChar
StartChar: A
Encoding: 65 65 36
Width: 765
Flags: W
LayerCount: 2
Back
Fore
SplineSet
12 2408.5 m 128,-1,1
 12 2475 12 2475 62 2522.5 c 128,-1,2
 112 2570 112 2570 184 2570 c 128,-1,3
 256 2570 256 2570 306 2522.5 c 128,-1,4
 356 2475 356 2475 356 2408.5 c 128,-1,5
 356 2342 356 2342 306 2295 c 128,-1,6
 256 2248 256 2248 184 2248 c 128,-1,7
 112 2248 112 2248 62 2295 c 128,-1,0
 12 2342 12 2342 12 2408.5 c 128,-1,1
10 144 m 1,8,9
 10 749 10 749 10.5 1073 c 128,-1,10
 11 1397 11 1397 11 1570 c 2,11,-1
 11 1829 l 1,12,-1
 11 2043 l 1,13,-1
 615 1419 l 1,14,-1
 682 1274 l 1,15,-1
 548 1331 l 1,16,-1
 126 1779 l 1,17,-1
 126 1352 l 1,18,-1
 615 838 l 1,19,-1
 682 693 l 1,20,-1
 548 750 l 1,21,-1
 126 1197 l 1,22,-1
 126 144 l 1,23,-1
 68 0 l 1,24,-1
 10 144 l 1,8,9
EndSplineSet
EndChar
StartChar: B
Encoding: 66 66 37
Width: 676
Flags: W
LayerCount: 2
Back
Fore
SplineSet
28 2393 m 128,-1,1
 28 2460 28 2460 78.5 2507 c 128,-1,2
 129 2554 129 2554 200 2554 c 128,-1,3
 271 2554 271 2554 321.5 2507 c 128,-1,4
 372 2460 372 2460 372 2393 c 128,-1,5
 372 2326 372 2326 321.5 2279 c 128,-1,6
 271 2232 271 2232 200 2232 c 128,-1,7
 129 2232 129 2232 78.5 2279 c 128,-1,0
 28 2326 28 2326 28 2393 c 128,-1,1
49 2051 m 1,8,-1
 49 13 l 1,9,-1
 647 602 l 1,10,-1
 229 1031 l 1,11,-1
 647 1461 l 1,12,-1
 49 2051 l 1,8,-1
493 1461 m 1,13,-1
 165 1123 l 1,14,-1
 165 1799 l 1,15,-1
 493 1461 l 1,13,-1
492 603 m 1,16,-1
 165 265 l 1,17,-1
 165 940 l 1,18,-1
 492 603 l 1,16,-1
EndSplineSet
EndChar
StartChar: C
Encoding: 67 67 38
Width: 1103
Flags: W
LayerCount: 2
Back
Fore
SplineSet
413 2403 m 128,-1,1
 413 2470 413 2470 463.5 2517 c 128,-1,2
 514 2564 514 2564 585 2564 c 128,-1,3
 656 2564 656 2564 706.5 2517 c 128,-1,4
 757 2470 757 2470 757 2403 c 128,-1,5
 757 2336 757 2336 706.5 2289 c 128,-1,6
 656 2242 656 2242 585 2242 c 128,-1,7
 514 2242 514 2242 463.5 2289 c 128,-1,0
 413 2336 413 2336 413 2403 c 128,-1,1
109 1044 m 1,8,-1
 761 392 l 1,9,-1
 910 322 l 1,10,-1
 851 461 l 1,11,-1
 268 1044 l 1,12,-1
 851 1627 l 1,13,-1
 910 1765 l 1,14,-1
 761 1696 l 1,15,-1
 109 1044 l 1,8,-1
EndSplineSet
EndChar
StartChar: D
Encoding: 68 68 39
Width: 2175
Flags: W
LayerCount: 2
Back
Fore
SplineSet
874 2385 m 128,-1,1
 874 2452 874 2452 924.5 2499 c 128,-1,2
 975 2546 975 2546 1046 2546 c 128,-1,3
 1117 2546 1117 2546 1167.5 2499 c 128,-1,4
 1218 2452 1218 2452 1218 2385 c 128,-1,5
 1218 2318 1218 2318 1167.5 2271 c 128,-1,6
 1117 2224 1117 2224 1046 2224 c 128,-1,7
 975 2224 975 2224 924.5 2271 c 128,-1,0
 874 2318 874 2318 874 2385 c 128,-1,1
944 1018 m 1,8,-1
 189 1774 l 1,9,-1
 189 262 l 1,10,-1
 944 1018 l 1,8,-1
1981 0 m 1,11,-1
 1028 943 l 1,12,-1
 74 -2 l 1,13,-1
 74 2038 l 1,14,-1
 1028 1093 l 1,15,-1
 1981 2037 l 1,16,-1
 1981 0 l 1,11,-1
1113 1018 m 1,17,-1
 1869 262 l 1,18,-1
 1869 1774 l 1,19,-1
 1113 1018 l 1,17,-1
EndSplineSet
EndChar
StartChar: E
Encoding: 69 69 40
Width: 1359
Flags: W
LayerCount: 2
Back
Fore
SplineSet
472 2393.5 m 128,-1,1
 472 2460 472 2460 522 2507.5 c 128,-1,2
 572 2555 572 2555 644 2555 c 128,-1,3
 716 2555 716 2555 766 2507.5 c 128,-1,4
 816 2460 816 2460 816 2393.5 c 128,-1,5
 816 2327 816 2327 766 2280 c 128,-1,6
 716 2233 716 2233 644 2233 c 128,-1,7
 572 2233 572 2233 522 2280 c 128,-1,0
 472 2327 472 2327 472 2393.5 c 128,-1,1
638 1454 m 1,8,-1
 48 2044 l 1,9,-1
 49 142 l 1,10,-1
 106 0 l 1,11,-1
 164 142 l 1,12,-1
 164 1773 l 1,13,-1
 638 1289 l 1,14,-1
 1112 1774 l 1,15,-1
 1112 142 l 1,16,-1
 1169 0 l 1,17,-1
 1227 142 l 1,18,-1
 1228 2043 l 1,19,-1
 638 1454 l 1,8,-1
EndSplineSet
EndChar
StartChar: F
Encoding: 70 70 41
Width: 1434
Flags: W
LayerCount: 2
Back
Fore
SplineSet
188 2392.5 m 128,-1,1
 188 2459 188 2459 238 2506.5 c 128,-1,2
 288 2554 288 2554 360 2554 c 128,-1,3
 432 2554 432 2554 482 2506.5 c 128,-1,4
 532 2459 532 2459 532 2392.5 c 128,-1,5
 532 2326 532 2326 482 2279 c 128,-1,6
 432 2232 432 2232 360 2232 c 128,-1,7
 288 2232 288 2232 238 2279 c 128,-1,0
 188 2326 188 2326 188 2392.5 c 128,-1,1
87 159 m 1,8,9
 87 465 87 465 87.5 609.5 c 128,-1,10
 88 754 88 754 88 801.5 c 128,-1,11
 88 849 88 849 88 831 c 128,-1,12
 88 813 88 813 88 794 c 128,-1,13
 88 775 88 775 88 786 c 128,-1,14
 88 797 88 797 88 903 c 128,-1,15
 88 1009 88 1009 88 1241.5 c 128,-1,16
 88 1474 88 1474 88 1897 c 1,17,-1
 147 2042 l 1,18,-1
 206 1897 l 1,19,-1
 206 1564 l 1,20,-1
 585 1964 l 1,21,-1
 733 2033 l 1,22,-1
 653 1864 l 1,23,-1
 206 1396 l 1,24,-1
 206 1090 l 1,25,-1
 1059 1964 l 1,26,-1
 1207 2033 l 1,27,-1
 1128 1864 l 1,28,-1
 206 922 l 1,29,-1
 206 159 l 1,30,-1
 147 12 l 1,31,-1
 87 159 l 1,8,9
EndSplineSet
EndChar
StartChar: H
Encoding: 72 72 43
Width: 1276
Flags: W
LayerCount: 2
Back
Fore
SplineSet
420 2402.5 m 128,-1,1
 420 2469 420 2469 470.5 2516.5 c 128,-1,2
 521 2564 521 2564 592.5 2564 c 128,-1,3
 664 2564 664 2564 714 2516.5 c 128,-1,4
 764 2469 764 2469 764 2402.5 c 128,-1,5
 764 2336 764 2336 714 2289 c 128,-1,6
 664 2242 664 2242 592.5 2242 c 128,-1,7
 521 2242 521 2242 470.5 2289 c 128,-1,0
 420 2336 420 2336 420 2402.5 c 128,-1,1
53 157 m 1,8,-1
 53 1903 l 1,9,-1
 112 2051 l 1,10,-1
 172 1903 l 1,11,-1
 171 1521 l 1,12,-1
 946 705 l 1,13,-1
 946 1903 l 1,14,-1
 1005 2051 l 1,15,-1
 1065 1903 l 1,16,-1
 1064 157 l 1,17,-1
 1005 10 l 1,18,-1
 946 157 l 1,19,-1
 946 536 l 1,20,-1
 171 1352 l 1,21,-1
 171 157 l 1,22,-1
 112 10 l 1,23,-1
 53 157 l 1,8,-1
EndSplineSet
EndChar
StartChar: I
Encoding: 73 73 44
Width: 604
Flags: W
LayerCount: 2
Back
Fore
SplineSet
53 2402 m 128,-1,1
 53 2469 53 2469 103.5 2516 c 128,-1,2
 154 2563 154 2563 225 2563 c 128,-1,3
 296 2563 296 2563 346.5 2516 c 128,-1,4
 397 2469 397 2469 397 2402 c 128,-1,5
 397 2335 397 2335 346.5 2288 c 128,-1,6
 296 2241 296 2241 225 2241 c 128,-1,7
 154 2241 154 2241 103.5 2288 c 128,-1,0
 53 2335 53 2335 53 2402 c 128,-1,1
283 147 m 1,8,-1
 224 0 l 1,9,-1
 165 147 l 1,10,-1
 165 1893 l 1,11,-1
 224 2041 l 1,12,-1
 283 1893 l 1,13,-1
 283 147 l 1,8,-1
EndSplineSet
EndChar
StartChar: J
Encoding: 74 74 45
Width: 1554
Flags: W
LayerCount: 2
Back
Fore
SplineSet
576 2386.5 m 128,-1,1
 576 2453 576 2453 627 2500.5 c 128,-1,2
 678 2548 678 2548 749 2548 c 128,-1,3
 820 2548 820 2548 870 2500.5 c 128,-1,4
 920 2453 920 2453 920 2386.5 c 128,-1,5
 920 2320 920 2320 870 2273 c 128,-1,6
 820 2226 820 2226 749 2226 c 128,-1,7
 678 2226 678 2226 627 2273 c 128,-1,0
 576 2320 576 2320 576 2386.5 c 128,-1,1
1433 718 m 1,8,-1
 781 66 l 1,9,-1
 632 -3 l 1,10,-1
 691 135 l 1,11,-1
 1274 718 l 1,12,-1
 691 1300 l 1,13,-1
 631 1439 l 1,14,-1
 780 1370 l 1,15,-1
 1433 718 l 1,8,-1
-11 1318 m 1,16,-1
 640 1970 l 1,17,-1
 790 2039 l 1,18,-1
 730 1901 l 1,19,-1
 147 1318 l 1,20,-1
 730 735 l 1,21,-1
 789 596 l 1,22,-1
 640 666 l 1,23,-1
 -11 1318 l 1,16,-1
EndSplineSet
EndChar
StartChar: K
Encoding: 75 75 46
Width: 900
Flags: W
LayerCount: 2
Back
Fore
SplineSet
244 1032 m 1,0,-1
 719 729 l 1,1,-1
 827 697 l 1,2,-1
 785 761 l 1,3,-1
 360 1032 l 1,4,-1
 792 1336 l 1,5,-1
 835 1400 l 1,6,-1
 726 1368 l 1,7,-1
 244 1032 l 1,0,-1
262 2393.5 m 128,-1,9
 262 2460 262 2460 312 2507.5 c 128,-1,10
 362 2555 362 2555 434 2555 c 128,-1,11
 506 2555 506 2555 556 2507.5 c 128,-1,12
 606 2460 606 2460 606 2393.5 c 128,-1,13
 606 2327 606 2327 556 2280 c 128,-1,14
 506 2233 506 2233 434 2233 c 128,-1,15
 362 2233 362 2233 312 2280 c 128,-1,8
 262 2327 262 2327 262 2393.5 c 128,-1,9
3 1026 m 1,16,-1
 655 374 l 1,17,-1
 804 304 l 1,18,-1
 745 443 l 1,19,-1
 162 1026 l 1,20,-1
 745 1609 l 1,21,-1
 804 1747 l 1,22,-1
 655 1678 l 1,23,-1
 3 1026 l 1,16,-1
EndSplineSet
EndChar
StartChar: L
Encoding: 76 76 47
Width: 1016
Flags: W
LayerCount: 2
Back
Fore
SplineSet
100 2401 m 128,-1,1
 100 2468 100 2468 150.5 2515 c 128,-1,2
 201 2562 201 2562 272 2562 c 128,-1,3
 343 2562 343 2562 393.5 2515 c 128,-1,4
 444 2468 444 2468 444 2401 c 128,-1,5
 444 2334 444 2334 393.5 2287 c 128,-1,6
 343 2240 343 2240 272 2240 c 128,-1,7
 201 2240 201 2240 150.5 2287 c 128,-1,0
 100 2334 100 2334 100 2401 c 128,-1,1
787 1355 m 1,8,-1
 864 1211 l 1,9,-1
 714 1267 l 1,10,-1
 208 1778 l 1,11,-1
 208 149 l 1,12,-1
 151 6 l 1,13,-1
 93 149 l 1,14,-1
 93 2051 l 1,15,-1
 787 1355 l 1,8,-1
EndSplineSet
EndChar
StartChar: M
Encoding: 77 77 48
Width: 1290
Flags: W
LayerCount: 2
Back
Fore
SplineSet
413 2374.5 m 128,-1,1
 413 2441 413 2441 463.5 2488.5 c 128,-1,2
 514 2536 514 2536 585.5 2536 c 128,-1,3
 657 2536 657 2536 707 2488.5 c 128,-1,4
 757 2441 757 2441 757 2374.5 c 128,-1,5
 757 2308 757 2308 707 2261 c 128,-1,6
 657 2214 657 2214 585.5 2214 c 128,-1,7
 514 2214 514 2214 463.5 2261 c 128,-1,0
 413 2308 413 2308 413 2374.5 c 128,-1,1
1072 1004 m 1,8,-1
 683 1394 l 1,9,-1
 1072 1782 l 1,10,-1
 1072 1004 l 1,8,-1
1072 838 m 1,11,-1
 1072 172 l 1,12,-1
 1131 24 l 1,13,-1
 1190 172 l 1,14,15
 1190 642 1190 642 1189 1112 c 128,-1,16
 1188 1582 1188 1582 1190 2050 c 1,17,18
 1047 1904 1047 1904 896 1764 c 128,-1,19
 745 1624 745 1624 599 1476 c 1,20,-1
 21 2050 l 1,21,22
 21 1582 21 1582 21 1112 c 128,-1,23
 21 642 21 642 21 172 c 1,24,-1
 80 24 l 1,25,-1
 139 172 l 1,26,-1
 139 850 l 1,27,-1
 599 1310 l 1,28,-1
 1072 838 l 1,11,-1
515 1394 m 1,29,-1
 139 1016 l 1,30,-1
 139 1770 l 1,31,-1
 515 1394 l 1,29,-1
EndSplineSet
EndChar
StartChar: O
Encoding: 79 79 50
Width: 1580
Flags: W
LayerCount: 2
Back
Fore
SplineSet
580 2393 m 128,-1,1
 580 2460 580 2460 630.5 2507 c 128,-1,2
 681 2554 681 2554 752 2554 c 128,-1,3
 823 2554 823 2554 873.5 2507 c 128,-1,4
 924 2460 924 2460 924 2393 c 128,-1,5
 924 2326 924 2326 873.5 2279 c 128,-1,6
 823 2232 823 2232 752 2232 c 128,-1,7
 681 2232 681 2232 630.5 2279 c 128,-1,0
 580 2326 580 2326 580 2393 c 128,-1,1
826 741 m 1,8,-1
 1442 1358 l 1,9,-1
 826 1974 l 1,10,-1
 742 2058 l 1,11,-1
 42 1358 l 1,12,-1
 658 741 l 1,13,-1
 83 166 l 1,14,-1
 21 20 l 1,15,-1
 167 82 l 1,16,-1
 742 658 l 1,17,-1
 1318 82 l 1,18,-1
 1464 20 l 1,19,-1
 1402 166 l 1,20,-1
 826 741 l 1,8,-1
210 1357 m 1,21,-1
 743 1890 l 1,22,-1
 1275 1358 l 1,23,-1
 742 825 l 1,24,-1
 210 1357 l 1,21,-1
EndSplineSet
EndChar
StartChar: P
Encoding: 80 80 51
Width: 990
Flags: W
LayerCount: 2
Back
Fore
SplineSet
212 2393.5 m 128,-1,1
 212 2460 212 2460 262 2507 c 128,-1,2
 312 2554 312 2554 384 2554 c 128,-1,3
 456 2554 456 2554 506 2507 c 128,-1,4
 556 2460 556 2460 556 2393.5 c 128,-1,5
 556 2327 556 2327 506 2279.5 c 128,-1,6
 456 2232 456 2232 384 2232 c 128,-1,7
 312 2232 312 2232 262 2279.5 c 128,-1,0
 212 2327 212 2327 212 2393.5 c 128,-1,1
422 1631 m 1,8,-1
 14 2041 l 1,9,-1
 14 0 l 1,10,-1
 422 411 l 1,11,-1
 763 70 l 1,12,-1
 902 0 l 1,13,-1
 832 160 l 1,14,-1
 422 570 l 1,15,-1
 133 281 l 1,16,-1
 133 1750 l 1,17,-1
 422 1461 l 1,18,-1
 832 1882 l 1,19,-1
 902 2041 l 1,20,-1
 763 1972 l 1,21,-1
 422 1631 l 1,8,-1
EndSplineSet
EndChar
StartChar: Q
Encoding: 81 81 52
Width: 1574
Flags: W
LayerCount: 2
Back
Fore
SplineSet
550 2394.5 m 128,-1,1
 550 2461 550 2461 600 2508 c 128,-1,2
 650 2555 650 2555 721 2555 c 128,-1,3
 792 2555 792 2555 843 2508 c 128,-1,4
 894 2461 894 2461 894 2394.5 c 128,-1,5
 894 2328 894 2328 843 2280.5 c 128,-1,6
 792 2233 792 2233 721 2233 c 128,-1,7
 650 2233 650 2233 600 2280.5 c 128,-1,0
 550 2328 550 2328 550 2394.5 c 128,-1,1
1452 1019 m 1,8,-1
 730 296 l 1,9,-1
 8 1019 l 1,10,-1
 730 1741 l 1,11,-1
 1452 1019 l 1,8,-1
1296 1018 m 1,12,-1
 730 1585 l 1,13,-1
 164 1018 l 1,14,-1
 730 452 l 1,15,-1
 1296 1018 l 1,12,-1
EndSplineSet
EndChar
StartChar: R
Encoding: 82 82 53
Width: 857
Flags: W
LayerCount: 2
Back
Fore
SplineSet
157 2394 m 128,-1,1
 157 2461 157 2461 207.5 2508 c 128,-1,2
 258 2555 258 2555 329 2555 c 128,-1,3
 400 2555 400 2555 450.5 2508 c 128,-1,4
 501 2461 501 2461 501 2394 c 128,-1,5
 501 2327 501 2327 450.5 2280 c 128,-1,6
 400 2233 400 2233 329 2233 c 128,-1,7
 258 2233 258 2233 207.5 2280 c 128,-1,0
 157 2327 157 2327 157 2394 c 128,-1,1
145 878 m 1,8,-1
 145 168 l 1,9,-1
 88 26 l 1,10,-1
 30 168 l 1,11,-1
 30 2081 l 1,12,-1
 633 1485 l 1,13,-1
 164 1013 l 1,14,-1
 714 459 l 1,15,-1
 791 315 l 1,16,-1
 637 382 l 1,17,-1
 145 878 l 1,8,-1
479 1485 m 1,18,-1
 145 1822 l 1,19,-1
 145 1149 l 1,20,-1
 479 1485 l 1,18,-1
EndSplineSet
EndChar
StartChar: S
Encoding: 83 83 54
Width: 943
Flags: W
LayerCount: 2
Back
Fore
SplineSet
234 2386.5 m 128,-1,1
 234 2453 234 2453 284 2500.5 c 128,-1,2
 334 2548 334 2548 406 2548 c 128,-1,3
 478 2548 478 2548 528 2500.5 c 128,-1,4
 578 2453 578 2453 578 2386.5 c 128,-1,5
 578 2320 578 2320 528 2273 c 128,-1,6
 478 2226 478 2226 406 2226 c 128,-1,7
 334 2226 334 2226 284 2273 c 128,-1,0
 234 2320 234 2320 234 2386.5 c 128,-1,1
46 1322 m 1,8,-1
 705 1979 l 1,9,-1
 851 2041 l 1,10,-1
 789 1895 l 1,11,-1
 215 1321 l 1,12,-1
 814 722 l 1,13,-1
 155 62 l 1,14,-1
 9 0 l 1,15,-1
 71 146 l 1,16,-1
 646 721 l 1,17,-1
 46 1322 l 1,8,-1
EndSplineSet
EndChar
StartChar: T
Encoding: 84 84 55
Width: 1577
Flags: W
LayerCount: 2
Back
Fore
SplineSet
575 2393 m 128,-1,1
 575 2460 575 2460 625.5 2507 c 128,-1,2
 676 2554 676 2554 747 2554 c 128,-1,3
 818 2554 818 2554 868.5 2507 c 128,-1,4
 919 2460 919 2460 919 2393 c 128,-1,5
 919 2326 919 2326 868.5 2279 c 128,-1,6
 818 2232 818 2232 747 2232 c 128,-1,7
 676 2232 676 2232 625.5 2279 c 128,-1,0
 575 2326 575 2326 575 2393 c 128,-1,1
744 2072 m 1,8,-1
 92 1420 l 1,9,-1
 22 1281 l 1,10,-1
 171 1330 l 1,11,-1
 684 1854 l 1,12,-1
 684 179 l 1,13,-1
 744 31 l 1,14,-1
 803 179 l 1,15,-1
 803 1854 l 1,16,-1
 1316 1330 l 1,17,-1
 1465 1281 l 1,18,-1
 1396 1420 l 1,19,-1
 744 2072 l 1,20,-1
 744 2072 l 1,8,-1
EndSplineSet
EndChar
StartChar: U
Encoding: 85 85 56
Width: 1149
Flags: W
LayerCount: 2
Back
Fore
SplineSet
276 2393 m 128,-1,1
 276 2460 276 2460 326.5 2507 c 128,-1,2
 377 2554 377 2554 448 2554 c 128,-1,3
 519 2554 519 2554 569.5 2507 c 128,-1,4
 620 2460 620 2460 620 2393 c 128,-1,5
 620 2326 620 2326 569.5 2279 c 128,-1,6
 519 2232 519 2232 448 2232 c 128,-1,7
 377 2232 377 2232 326.5 2279 c 128,-1,0
 276 2326 276 2326 276 2393 c 128,-1,1
888 2041 m 1,8,-1
 72 1214 l 1,9,-1
 72 141 l 1,10,-1
 129 0 l 1,11,-1
 185 141 l 1,12,-1
 185 1165 l 1,13,-1
 777 1764 l 1,14,-1
 777 141 l 1,15,-1
 833 0 l 1,16,-1
 890 141 l 1,17,-1
 888 2041 l 1,8,-1
EndSplineSet
EndChar
StartChar: V
Encoding: 86 86 57
Width: 689
Flags: W
LayerCount: 2
Back
Fore
SplineSet
64 2400 m 128,-1,1
 64 2473 64 2473 115.5 2524.5 c 128,-1,2
 167 2576 167 2576 240 2576 c 128,-1,3
 313 2576 313 2576 364.5 2524.5 c 128,-1,4
 416 2473 416 2473 416 2400 c 128,-1,5
 416 2327 416 2327 364.5 2275.5 c 128,-1,6
 313 2224 313 2224 240 2224 c 128,-1,7
 167 2224 167 2224 115.5 2275.5 c 128,-1,0
 64 2327 64 2327 64 2400 c 128,-1,1
63 2072 m 1,8,-1
 663 1468 l 1,9,-1
 177 971 l 1,10,-1
 177 163 l 1,11,-1
 120 23 l 1,12,-1
 63 163 l 1,13,-1
 63 2072 l 1,8,-1
507 1468 m 1,14,-1
 177 1803 l 1,15,-1
 177 1133 l 1,16,-1
 507 1468 l 1,14,-1
EndSplineSet
EndChar
StartChar: W
Encoding: 87 87 58
Width: 953
Flags: W
LayerCount: 2
Back
Fore
SplineSet
423 1111 m 1,0,-1
 841 791 l 1,1,-1
 502 528 l 1,2,-1
 502 100 l 1,3,-1
 463 25 l 1,4,-1
 423 100 l 1,5,-1
 423 1111 l 1,0,-1
733 791 m 1,6,-1
 502 969 l 1,7,-1
 502 614 l 1,8,-1
 733 791 l 1,6,-1
244 2385.5 m 128,-1,10
 244 2452 244 2452 294 2499 c 128,-1,11
 344 2546 344 2546 416 2546 c 128,-1,12
 488 2546 488 2546 538 2499 c 128,-1,13
 588 2452 588 2452 588 2385.5 c 128,-1,14
 588 2319 588 2319 538 2271.5 c 128,-1,15
 488 2224 488 2224 416 2224 c 128,-1,16
 344 2224 344 2224 294 2271.5 c 128,-1,9
 244 2319 244 2319 244 2385.5 c 128,-1,10
101 2065 m 1,17,-1
 701 1461 l 1,18,-1
 215 964 l 1,19,-1
 215 156 l 1,20,-1
 158 16 l 1,21,-1
 101 156 l 1,22,-1
 101 2065 l 1,17,-1
545 1461 m 1,23,-1
 215 1796 l 1,24,-1
 215 1126 l 1,25,-1
 545 1461 l 1,23,-1
EndSplineSet
EndChar
StartChar: X
Encoding: 88 88 59
Width: 1308
Flags: W
LayerCount: 2
Back
Fore
SplineSet
567 1197 m 1,0,-1
 909 1540 l 1,1,-1
 992 1584 l 1,2,-1
 980 1491 l 1,3,-1
 714 1239 l 1,4,-1
 1106 1043 l 1,5,-1
 770 707 l 1,6,-1
 661 686 l 1,7,-1
 685 750 l 1,8,-1
 945 1036 l 1,9,-1
 567 1197 l 1,0,-1
358 2392 m 128,-1,11
 358 2459 358 2459 408.5 2506 c 128,-1,12
 459 2553 459 2553 530 2553 c 128,-1,13
 601 2553 601 2553 651.5 2506 c 128,-1,14
 702 2459 702 2459 702 2392 c 128,-1,15
 702 2325 702 2325 651.5 2278 c 128,-1,16
 601 2231 601 2231 530 2231 c 128,-1,17
 459 2231 459 2231 408.5 2278 c 128,-1,10
 358 2325 358 2325 358 2392 c 128,-1,11
137 1021 m 1,18,-1
 789 369 l 1,19,-1
 938 299 l 1,20,-1
 879 438 l 1,21,-1
 296 1021 l 1,22,-1
 879 1604 l 1,23,-1
 938 1742 l 1,24,-1
 789 1673 l 1,25,-1
 137 1021 l 1,18,-1
EndSplineSet
EndChar
StartChar: Y
Encoding: 89 89 60
Width: 1440
Flags: W
LayerCount: 2
Back
Fore
SplineSet
572 2384.5 m 128,-1,1
 572 2451 572 2451 622 2498.5 c 128,-1,2
 672 2546 672 2546 744 2546 c 128,-1,3
 816 2546 816 2546 866 2498.5 c 128,-1,4
 916 2451 916 2451 916 2384.5 c 128,-1,5
 916 2318 916 2318 866 2271 c 128,-1,6
 816 2224 816 2224 744 2224 c 128,-1,7
 672 2224 672 2224 622 2271 c 128,-1,0
 572 2318 572 2318 572 2384.5 c 128,-1,1
623 254 m 1,8,-1
 623 2041 l 1,9,-1
 1308 1367 l 1,10,-1
 1324 1258 l 1,11,-1
 1231 1290 l 1,12,-1
 731 1790 l 1,13,-1
 733 0 l 1,14,-1
 47 676 l 1,15,-1
 11 781 l 1,16,-1
 115 758 l 1,17,-1
 623 254 l 1,8,-1
EndSplineSet
EndChar
StartChar: Z
Encoding: 90 90 61
Width: 1575
Flags: W
LayerCount: 2
Back
Fore
SplineSet
572 2393 m 128,-1,1
 572 2460 572 2460 622.5 2507 c 128,-1,2
 673 2554 673 2554 744 2554 c 128,-1,3
 815 2554 815 2554 865.5 2507 c 128,-1,4
 916 2460 916 2460 916 2393 c 128,-1,5
 916 2326 916 2326 865.5 2279 c 128,-1,6
 815 2232 815 2232 744 2232 c 128,-1,7
 673 2232 673 2232 622.5 2279 c 128,-1,0
 572 2326 572 2326 572 2393 c 128,-1,1
791 1288 m 1,8,-1
 1394 1893 l 1,9,-1
 1463 2053 l 1,10,-1
 1325 1983 l 1,11,-1
 791 1450 l 1,12,-1
 791 1905 l 1,13,-1
 732 2053 l 1,14,-1
 673 1905 l 1,15,-1
 673 1450 l 1,16,-1
 160 1983 l 1,17,-1
 21 2053 l 1,18,-1
 90 1893 l 1,19,-1
 673 1287 l 1,20,-1
 673 159 l 1,21,-1
 732 12 l 1,22,-1
 791 159 l 1,23,-1
 791 1288 l 1,8,-1
EndSplineSet
EndChar
StartChar: bracketleft
Encoding: 91 91 62
Width: 618
Flags: W
LayerCount: 2
Back
Fore
SplineSet
568 -326 m 1,0,-1
 200 -326 l 1,1,-1
 200 1434 l 1,2,-1
 568 1434 l 1,3,-1
 568 1315 l 1,4,-1
 346 1315 l 1,5,-1
 346 -207 l 1,6,-1
 568 -207 l 1,7,-1
 568 -326 l 1,0,-1
EndSplineSet
EndChar
StartChar: backslash
Encoding: 92 92 63
Width: 776
Flags: W
LayerCount: 2
Back
Fore
SplineSet
798 -240 m 1,0,-1
 647 -240 l 1,1,-1
 -26 1434 l 1,2,-1
 129 1434 l 1,3,-1
 798 -240 l 1,0,-1
EndSplineSet
EndChar
StartChar: bracketright
Encoding: 93 93 64
Width: 618
Flags: W
LayerCount: 2
Back
Fore
SplineSet
420 -326 m 1,0,-1
 53 -326 l 1,1,-1
 53 -207 l 1,2,-1
 274 -207 l 1,3,-1
 274 1315 l 1,4,-1
 53 1315 l 1,5,-1
 53 1434 l 1,6,-1
 420 1434 l 1,7,-1
 420 -326 l 1,0,-1
EndSplineSet
EndChar
StartChar: asciicircum
Encoding: 94 94 65
Width: 1401
Flags: W
LayerCount: 2
Back
Fore
SplineSet
1174 624 m 1,0,-1
 1024 624 l 1,1,-1
 692 1243 l 1,2,-1
 686 1243 l 1,3,-1
 377 624 l 1,4,-1
 230 624 l 1,5,-1
 652 1458 l 1,6,-1
 717 1458 l 1,7,-1
 1174 624 l 1,0,-1
EndSplineSet
EndChar
StartChar: underscore
Encoding: 95 95 66
Width: 850
Flags: W
LayerCount: 2
Back
Fore
SplineSet
850 -297 m 1,0,-1
 0 -297 l 1,1,-1
 0 -178 l 1,2,-1
 850 -178 l 1,3,-1
 850 -297 l 1,0,-1
EndSplineSet
EndChar
StartChar: grave
Encoding: 96 96 67
Width: 549
Flags: W
LayerCount: 2
Back
Fore
SplineSet
471 1218 m 1,0,-1
 344 1218 l 1,1,-1
 82 1546 l 1,2,-1
 250 1546 l 1,3,-1
 471 1218 l 1,0,-1
EndSplineSet
EndChar
StartChar: a
Encoding: 97 97 68
Width: 765
Flags: W
LayerCount: 2
Back
Fore
SplineSet
9 143 m 1,0,1
 9 747 9 747 9 1071.5 c 128,-1,2
 9 1396 9 1396 9 1569 c 128,-1,3
 9 1742 9 1742 9 1828 c 128,-1,4
 9 1914 9 1914 9 2043 c 1,5,-1
 614 1419 l 1,6,-1
 681 1274 l 1,7,-1
 547 1331 l 1,8,-1
 124 1779 l 1,9,-1
 124 1352 l 1,10,-1
 614 837 l 1,11,-1
 681 692 l 1,12,-1
 547 750 l 1,13,-1
 124 1197 l 1,14,-1
 124 143 l 1,15,-1
 66 0 l 1,16,-1
 9 143 l 1,0,1
EndSplineSet
EndChar
StartChar: b
Encoding: 98 98 69
Width: 688
Flags: W
LayerCount: 2
Back
Fore
SplineSet
9 0 m 1,0,-1
 8 2038 l 1,1,-1
 608 1448 l 1,2,-1
 189 1019 l 1,3,-1
 608 590 l 1,4,-1
 9 0 l 1,0,-1
452 590 m 1,5,-1
 125 928 l 1,6,-1
 125 252 l 1,7,-1
 452 590 l 1,5,-1
452 1448 m 1,8,-1
 125 1786 l 1,9,-1
 125 1111 l 1,10,-1
 452 1448 l 1,8,-1
EndSplineSet
EndChar
StartChar: c
Encoding: 99 99 70
Width: 879
Flags: W
LayerCount: 2
Back
Fore
SplineSet
-11 1021 m 1,0,-1
 640 1673 l 1,1,-1
 789 1742 l 1,2,-1
 730 1603 l 1,3,-1
 147 1021 l 1,4,-1
 730 438 l 1,5,-1
 790 299 l 1,6,-1
 640 368 l 1,7,-1
 -11 1021 l 1,0,-1
EndSplineSet
EndChar
StartChar: d
Encoding: 100 100 71
Width: 2056
Flags: W
LayerCount: 2
Back
Fore
SplineSet
874 1020 m 1,0,-1
 119 1776 l 1,1,-1
 119 264 l 1,2,-1
 874 1020 l 1,0,-1
1911 2038 m 1,3,-1
 1911 1 l 1,4,-1
 958 945 l 1,5,-1
 4 0 l 1,6,-1
 4 2040 l 1,7,-1
 958 1095 l 1,8,-1
 1911 2038 l 1,3,-1
1043 1020 m 1,9,-1
 1799 264 l 1,10,-1
 1799 1776 l 1,11,-1
 1043 1020 l 1,9,-1
EndSplineSet
EndChar
StartChar: e
Encoding: 101 101 72
Width: 1297
Flags: W
LayerCount: 2
Back
Fore
SplineSet
598 1454 m 1,0,-1
 1188 2044 l 1,1,-1
 1187 143 l 1,2,-1
 1130 0 l 1,3,-1
 1072 143 l 1,4,-1
 1072 1774 l 1,5,-1
 598 1290 l 1,6,-1
 124 1774 l 1,7,-1
 124 143 l 1,8,-1
 67 0 l 1,9,-1
 9 143 l 1,10,-1
 8 2043 l 1,11,-1
 598 1454 l 1,0,-1
EndSplineSet
EndChar
StartChar: f
Encoding: 102 102 73
Width: 1229
Flags: W
LayerCount: 2
Back
Fore
SplineSet
3 162 m 1,0,1
 3 467 3 467 3 611.5 c 128,-1,2
 3 756 3 756 3 803.5 c 128,-1,3
 3 851 3 851 3 833 c 128,-1,4
 3 815 3 815 3 796 c 128,-1,5
 3 777 3 777 3 788.5 c 128,-1,6
 3 800 3 800 3 906 c 128,-1,7
 3 1012 3 1012 3 1244.5 c 128,-1,8
 3 1477 3 1477 4 1900 c 1,9,-1
 63 2046 l 1,10,-1
 122 1900 l 1,11,-1
 122 1567 l 1,12,-1
 501 1967 l 1,13,-1
 649 2036 l 1,14,-1
 570 1867 l 1,15,-1
 122 1399 l 1,16,-1
 122 1093 l 1,17,-1
 975 1967 l 1,18,-1
 1123 2036 l 1,19,-1
 1044 1867 l 1,20,-1
 122 925 l 1,21,-1
 122 162 l 1,22,-1
 63 15 l 1,23,-1
 3 162 l 1,0,1
EndSplineSet
EndChar
StartChar: g
Encoding: 103 103 74
Width: 1303
Flags: W
LayerCount: 2
Back
Fore
SplineSet
669 1022 m 1,0,-1
 1160 178 l 1,1,-1
 1194 0 l 1,2,-1
 1056 118 l 1,3,-1
 599 902 l 1,4,-1
 143 118 l 1,5,-1
 5 0 l 1,6,-1
 38 177 l 1,7,-1
 530 1022 l 1,8,-1
 39 1867 l 1,9,-1
 5 2045 l 1,10,-1
 143 1927 l 1,11,-1
 599 1142 l 1,12,-1
 1056 1927 l 1,13,-1
 1194 2045 l 1,14,-1
 1161 1867 l 1,15,-1
 669 1022 l 1,0,-1
EndSplineSet
EndChar
StartChar: h
Encoding: 104 104 75
Width: 1122
Flags: W
LayerCount: 2
Back
Fore
SplineSet
1021 1894 m 1,0,-1
 1021 147 l 1,1,-1
 961 0 l 1,2,-1
 902 147 l 1,3,-1
 902 530 l 1,4,-1
 127 1346 l 1,5,-1
 127 147 l 1,6,-1
 68 0 l 1,7,-1
 9 147 l 1,8,-1
 9 1893 l 1,9,-1
 68 2041 l 1,10,-1
 127 1893 l 1,11,-1
 127 1515 l 1,12,-1
 902 699 l 1,13,-1
 902 1894 l 1,14,-1
 961 2041 l 1,15,-1
 1021 1894 l 1,0,-1
EndSplineSet
EndChar
StartChar: i
Encoding: 105 105 76
Width: 464
Flags: W
LayerCount: 2
Back
Fore
SplineSet
262 1893 m 1,0,-1
 262 147 l 1,1,-1
 203 0 l 1,2,-1
 144 147 l 1,3,-1
 144 1893 l 1,4,-1
 203 2041 l 1,5,-1
 262 1893 l 1,0,-1
EndSplineSet
EndChar
StartChar: j
Encoding: 106 106 77
Width: 1554
Flags: W
LayerCount: 2
Back
Fore
SplineSet
-11 1317 m 1,0,-1
 640 1970 l 1,1,-1
 789 2039 l 1,2,-1
 730 1900 l 1,3,-1
 147 1317 l 1,4,-1
 730 735 l 1,5,-1
 790 596 l 1,6,-1
 640 665 l 1,7,-1
 -11 1317 l 1,0,-1
1433 717 m 1,8,-1
 780 65 l 1,9,-1
 631 -3 l 1,10,-1
 691 135 l 1,11,-1
 1274 717 l 1,12,-1
 691 1300 l 1,13,-1
 632 1439 l 1,14,-1
 781 1369 l 1,15,-1
 1433 717 l 1,8,-1
EndSplineSet
EndChar
StartChar: k
Encoding: 107 107 78
Width: 900
Flags: W
LayerCount: 2
Back
Fore
SplineSet
244 1032 m 1,0,-1
 719 729 l 1,1,-1
 827 697 l 1,2,-1
 785 761 l 1,3,-1
 360 1032 l 1,4,-1
 792 1336 l 1,5,-1
 835 1400 l 1,6,-1
 726 1368 l 1,7,-1
 244 1032 l 1,0,-1
3 1026 m 1,8,-1
 655 374 l 1,9,-1
 804 304 l 1,10,-1
 745 443 l 1,11,-1
 162 1026 l 1,12,-1
 745 1609 l 1,13,-1
 804 1747 l 1,14,-1
 655 1678 l 1,15,-1
 3 1026 l 1,8,-1
EndSplineSet
EndChar
StartChar: l
Encoding: 108 108 79
Width: 869
Flags: W
LayerCount: 2
Back
Fore
SplineSet
702 1349 m 1,0,-1
 780 1205 l 1,1,-1
 630 1261 l 1,2,-1
 124 1773 l 1,3,-1
 124 143 l 1,4,-1
 67 0 l 1,5,-1
 9 143 l 1,6,-1
 9 2045 l 1,7,-1
 702 1349 l 1,0,-1
EndSplineSet
EndChar
StartChar: m
Encoding: 109 109 80
Width: 1290
Flags: W
LayerCount: 2
Back
Fore
SplineSet
131 985 m 1,0,-1
 519 1373 l 1,1,-1
 131 1762 l 1,2,-1
 131 985 l 1,0,-1
131 818 m 1,3,-1
 131 152 l 1,4,-1
 71 5 l 1,5,-1
 12 152 l 1,6,7
 12 621 12 621 12.5 1091 c 128,-1,8
 13 1561 13 1561 12 2031 c 1,9,10
 154 1884 154 1884 305 1743.5 c 128,-1,11
 456 1603 456 1603 603 1457 c 1,12,-1
 1181 2031 l 1,13,14
 1181 1561 1181 1561 1181 1091 c 128,-1,15
 1181 621 1181 621 1181 152 c 1,16,-1
 1122 5 l 1,17,-1
 1063 152 l 1,18,-1
 1063 829 l 1,19,-1
 603 1290 l 1,20,-1
 131 818 l 1,3,-1
687 1373 m 1,21,-1
 1063 997 l 1,22,-1
 1063 1750 l 1,23,-1
 687 1373 l 1,21,-1
EndSplineSet
EndChar
StartChar: n
Encoding: 110 110 81
Width: 1059
Flags: W
LayerCount: 2
Back
Fore
SplineSet
427 1162 m 1,0,-1
 427 1892 l 1,1,-1
 486 2039 l 1,2,-1
 545 1892 l 1,3,-1
 545 1043 l 1,4,-1
 899 689 l 1,5,-1
 961 544 l 1,6,-1
 815 606 l 1,7,-1
 545 876 l 1,8,-1
 545 146 l 1,9,-1
 486 -1 l 1,10,-1
 427 146 l 1,11,-1
 427 995 l 1,12,-1
 73 1348 l 1,13,-1
 11 1494 l 1,14,-1
 157 1432 l 1,15,-1
 427 1162 l 1,0,-1
EndSplineSet
EndChar
StartChar: o
Encoding: 111 111 82
Width: 1580
Flags: W
LayerCount: 2
Back
Fore
SplineSet
653 722 m 1,0,-1
 37 1338 l 1,1,-1
 653 1954 l 1,2,-1
 736 2038 l 1,3,-1
 1436 1339 l 1,4,-1
 820 722 l 1,5,-1
 1396 146 l 1,6,-1
 1458 0 l 1,7,-1
 1312 62 l 1,8,-1
 737 638 l 1,9,-1
 161 62 l 1,10,-1
 15 0 l 1,11,-1
 77 146 l 1,12,-1
 653 722 l 1,0,-1
1269 1338 m 1,13,-1
 736 1870 l 1,14,-1
 204 1338 l 1,15,-1
 737 805 l 1,16,-1
 1269 1338 l 1,13,-1
EndSplineSet
EndChar
StartChar: p
Encoding: 112 112 83
Width: 990
Flags: W
LayerCount: 2
Back
Fore
SplineSet
416 411 m 1,0,-1
 8 0 l 1,1,-1
 8 2041 l 1,2,-1
 416 1631 l 1,3,-1
 757 1972 l 1,4,-1
 896 2041 l 1,5,-1
 826 1882 l 1,6,-1
 416 1471 l 1,7,-1
 127 1760 l 1,8,-1
 127 291 l 1,9,-1
 416 580 l 1,10,-1
 826 160 l 1,11,-1
 896 0 l 1,12,-1
 757 70 l 1,13,-1
 416 411 l 1,0,-1
EndSplineSet
EndChar
StartChar: q
Encoding: 113 113 84
Width: 1575
Flags: W
LayerCount: 2
Back
Fore
SplineSet
8 1019 m 1,0,-1
 730 1741 l 1,1,-1
 1453 1019 l 1,2,-1
 730 296 l 1,3,-1
 8 1019 l 1,0,-1
164 1019 m 1,4,-1
 730 453 l 1,5,-1
 1297 1019 l 1,6,-1
 730 1585 l 1,7,-1
 164 1019 l 1,4,-1
EndSplineSet
EndChar
StartChar: r
Encoding: 114 114 85
Width: 857
Flags: W
LayerCount: 2
Back
Fore
SplineSet
123 852 m 1,0,-1
 123 143 l 1,1,-1
 66 0 l 1,2,-1
 9 143 l 1,3,-1
 8 2055 l 1,4,-1
 612 1459 l 1,5,-1
 143 987 l 1,6,-1
 692 434 l 1,7,-1
 769 289 l 1,8,-1
 616 357 l 1,9,-1
 123 852 l 1,0,-1
458 1459 m 1,10,-1
 123 1796 l 1,11,-1
 123 1123 l 1,12,-1
 458 1459 l 1,10,-1
EndSplineSet
EndChar
StartChar: s
Encoding: 115 115 86
Width: 943
Flags: W
LayerCount: 2
Back
Fore
SplineSet
814 719 m 1,0,-1
 155 62 l 1,1,-1
 9 0 l 1,2,-1
 71 146 l 1,3,-1
 645 720 l 1,4,-1
 46 1320 l 1,5,-1
 705 1979 l 1,6,-1
 851 2041 l 1,7,-1
 789 1895 l 1,8,-1
 213 1320 l 1,9,-1
 814 719 l 1,0,-1
EndSplineSet
EndChar
StartChar: t
Encoding: 116 116 87
Width: 1577
Flags: W
LayerCount: 2
Back
Fore
SplineSet
734 2041 m 1,0,-1
 1386 1389 l 1,1,-1
 1455 1250 l 1,2,-1
 1306 1299 l 1,3,-1
 793 1823 l 1,4,-1
 793 147 l 1,5,-1
 734 0 l 1,6,-1
 674 147 l 1,7,-1
 674 1822 l 1,8,-1
 161 1299 l 1,9,-1
 12 1249 l 1,10,-1
 82 1389 l 1,11,-1
 734 2041 l 1,12,-1
 734 2041 l 1,0,-1
EndSplineSet
EndChar
StartChar: u
Encoding: 117 117 88
Width: 918
Flags: W
LayerCount: 2
Back
Fore
SplineSet
11 2041 m 1,0,-1
 827 1213 l 1,1,-1
 827 141 l 1,2,-1
 770 0 l 1,3,-1
 713 141 l 1,4,-1
 714 1164 l 1,5,-1
 122 1763 l 1,6,-1
 122 141 l 1,7,-1
 66 0 l 1,8,-1
 9 141 l 1,9,-1
 11 2041 l 1,0,-1
EndSplineSet
EndChar
StartChar: v
Encoding: 118 118 89
Width: 689
Flags: W
LayerCount: 2
Back
Fore
SplineSet
9 2049 m 1,0,-1
 609 1445 l 1,1,-1
 122 948 l 1,2,-1
 122 140 l 1,3,-1
 66 0 l 1,4,-1
 9 140 l 1,5,-1
 9 2049 l 1,0,-1
452 1445 m 1,6,-1
 122 1780 l 1,7,-1
 122 1110 l 1,8,-1
 452 1445 l 1,6,-1
EndSplineSet
EndChar
StartChar: w
Encoding: 119 119 90
Width: 953
Flags: W
LayerCount: 2
Back
Fore
SplineSet
423 1111 m 1,0,-1
 841 791 l 1,1,-1
 502 528 l 1,2,-1
 502 100 l 1,3,-1
 463 25 l 1,4,-1
 423 100 l 1,5,-1
 423 1111 l 1,0,-1
733 791 m 1,6,-1
 502 969 l 1,7,-1
 502 614 l 1,8,-1
 733 791 l 1,6,-1
101 2065 m 1,9,-1
 701 1461 l 1,10,-1
 215 964 l 1,11,-1
 215 156 l 1,12,-1
 158 16 l 1,13,-1
 101 156 l 1,14,-1
 101 2065 l 1,9,-1
545 1461 m 1,15,-1
 215 1796 l 1,16,-1
 215 1126 l 1,17,-1
 545 1461 l 1,15,-1
EndSplineSet
EndChar
StartChar: x
Encoding: 120 120 91
Width: 1266
Flags: W
LayerCount: 2
Back
Fore
SplineSet
567 1197 m 1,0,-1
 909 1540 l 1,1,-1
 992 1584 l 1,2,-1
 980 1491 l 1,3,-1
 714 1239 l 1,4,-1
 1106 1043 l 1,5,-1
 770 707 l 1,6,-1
 661 686 l 1,7,-1
 685 750 l 1,8,-1
 945 1036 l 1,9,-1
 567 1197 l 1,0,-1
137 1021 m 1,10,-1
 789 369 l 1,11,-1
 938 299 l 1,12,-1
 879 438 l 1,13,-1
 296 1021 l 1,14,-1
 879 1604 l 1,15,-1
 938 1742 l 1,16,-1
 789 1673 l 1,17,-1
 137 1021 l 1,10,-1
EndSplineSet
EndChar
StartChar: y
Encoding: 121 121 92
Width: 1440
Flags: W
LayerCount: 2
Back
Fore
SplineSet
711 1787 m 1,0,-1
 711 0 l 1,1,-1
 26 675 l 1,2,-1
 11 783 l 1,3,-1
 104 752 l 1,4,-1
 603 251 l 1,5,-1
 601 2041 l 1,6,-1
 1287 1365 l 1,7,-1
 1324 1261 l 1,8,-1
 1220 1283 l 1,9,-1
 711 1787 l 1,0,-1
EndSplineSet
EndChar
StartChar: z
Encoding: 122 122 93
Width: 1575
Flags: W
LayerCount: 2
Back
Fore
SplineSet
683 1276 m 1,0,-1
 80 1881 l 1,1,-1
 11 2041 l 1,2,-1
 150 1971 l 1,3,-1
 683 1438 l 1,4,-1
 683 1893 l 1,5,-1
 743 2041 l 1,6,-1
 802 1893 l 1,7,-1
 802 1438 l 1,8,-1
 1315 1971 l 1,9,-1
 1453 2041 l 1,10,-1
 1384 1881 l 1,11,-1
 802 1275 l 1,12,-1
 802 147 l 1,13,-1
 743 0 l 1,14,-1
 683 147 l 1,15,-1
 683 1276 l 1,0,-1
EndSplineSet
EndChar
StartChar: braceleft
Encoding: 123 123 94
Width: 618
Flags: W
LayerCount: 2
Back
Fore
SplineSet
555 -326 m 1,0,1
 248 -322 248 -322 248 -16 c 2,2,-1
 248 284 l 2,3,4
 248 486 248 486 92 496 c 1,5,-1
 92 612 l 1,6,7
 248 622 248 622 248 828 c 2,8,-1
 248 1120 l 2,9,10
 248 1430 248 1430 555 1434 c 1,11,-1
 555 1306 l 1,12,13
 396 1302 396 1302 396 1108 c 2,14,-1
 396 815 l 2,15,16
 396 605 396 605 246 557 c 1,17,-1
 246 553 l 1,18,19
 396 508 396 508 396 297 c 2,20,-1
 396 8 l 2,21,22
 396 -103 396 -103 431.5 -150.5 c 128,-1,23
 467 -198 467 -198 555 -200 c 1,24,-1
 555 -326 l 1,0,1
EndSplineSet
EndChar
StartChar: bar
Encoding: 124 124 95
Width: 490
Flags: W
LayerCount: 2
Back
Fore
SplineSet
320 -482 m 1,0,-1
 172 -482 l 1,1,-1
 172 1566 l 1,2,-1
 320 1566 l 1,3,-1
 320 -482 l 1,0,-1
EndSplineSet
EndChar
StartChar: braceright
Encoding: 125 125 96
Width: 618
Flags: W
LayerCount: 2
Back
Fore
SplineSet
528 496 m 1,0,1
 372 486 372 486 372 284 c 2,2,-1
 372 -16 l 2,3,4
 372 -322 372 -322 66 -326 c 1,5,-1
 66 -200 l 1,6,7
 153 -198 153 -198 189.5 -150 c 128,-1,8
 226 -102 226 -102 226 8 c 2,9,-1
 226 297 l 2,10,11
 226 508 226 508 375 553 c 1,12,-1
 375 557 l 1,13,14
 226 605 226 605 226 815 c 2,15,-1
 226 1108 l 2,16,17
 226 1302 226 1302 66 1306 c 1,18,-1
 66 1434 l 1,19,20
 372 1430 372 1430 372 1120 c 2,21,-1
 372 828 l 2,22,23
 372 622 372 622 528 612 c 1,24,-1
 528 496 l 1,0,1
EndSplineSet
EndChar
StartChar: asciitilde
Encoding: 126 126 97
Width: 1401
Flags: W
LayerCount: 2
Back
Fore
SplineSet
1194 750 m 1,0,1
 1187 602 1187 602 1113.5 521 c 128,-1,2
 1040 440 1040 440 914 440 c 0,3,4
 805 440 805 440 649 549 c 0,5,6
 552 616 552 616 490 616 c 0,7,8
 350 616 350 616 344 440 c 1,9,-1
 209 440 l 1,10,11
 214 583 214 583 288.5 666.5 c 128,-1,12
 363 750 363 750 490 750 c 0,13,14
 596 750 596 750 725 662 c 0,15,16
 857 572 857 572 922 572 c 0,17,18
 983 572 983 572 1020 621 c 128,-1,19
 1057 670 1057 670 1059 750 c 1,20,-1
 1194 750 l 1,0,1
EndSplineSet
EndChar
StartChar: exclamdown
Encoding: 161 161 98
Width: 582
Flags: W
LayerCount: 2
Back
Fore
SplineSet
291 826 m 0,0,1
 245 826 245 826 212.5 858 c 128,-1,2
 180 890 180 890 180 936 c 256,3,4
 180 982 180 982 212.5 1014 c 128,-1,5
 245 1046 245 1046 291 1046 c 0,6,7
 336 1046 336 1046 369 1014 c 128,-1,8
 402 982 402 982 402 936 c 256,9,10
 402 890 402 890 369 858 c 128,-1,11
 336 826 336 826 291 826 c 0,0,1
379 -406 m 1,12,-1
 207 -406 l 1,13,-1
 226 624 l 1,14,-1
 360 624 l 1,15,-1
 379 -406 l 1,12,-1
EndSplineSet
EndChar
StartChar: cent
Encoding: 162 162 99
Width: 1104
Flags: W
LayerCount: 2
Back
Fore
SplineSet
952 209 m 1,0,1
 856 150 856 150 731 140 c 1,2,-1
 731 -49 l 1,3,-1
 606 -49 l 1,4,-1
 606 142 l 1,5,6
 413 164 413 164 298.5 303 c 128,-1,7
 184 442 184 442 184 649 c 0,8,9
 184 868 184 868 298.5 1015.5 c 128,-1,10
 413 1163 413 1163 606 1200 c 1,11,-1
 606 1413 l 1,12,-1
 731 1413 l 1,13,-1
 731 1210 l 1,14,15
 854 1208 854 1208 952 1159 c 1,16,-1
 952 987 l 1,17,18
 851 1058 851 1058 731 1065 c 1,19,-1
 731 280 l 1,20,21
 853 292 853 292 952 366 c 1,22,-1
 952 209 l 1,0,1
606 291 m 1,23,-1
 606 1052 l 1,24,25
 487 1021 487 1021 419.5 918.5 c 128,-1,26
 352 816 352 816 352 666 c 256,27,28
 352 516 352 516 420 417 c 128,-1,29
 488 318 488 318 606 291 c 1,23,-1
EndSplineSet
EndChar
StartChar: sterling
Encoding: 163 163 100
Width: 1104
Flags: W
LayerCount: 2
Back
Fore
SplineSet
1006 0 m 1,0,-1
 106 0 l 1,1,-1
 106 135 l 1,2,3
 324 204 324 204 324 448 c 2,4,-1
 324 635 l 1,5,-1
 127 635 l 1,6,-1
 127 776 l 1,7,-1
 324 776 l 1,8,-1
 324 1030 l 2,9,10
 324 1218 324 1218 433 1338 c 128,-1,11
 542 1458 542 1458 715 1458 c 0,12,13
 832 1458 832 1458 928 1417 c 1,14,-1
 928 1262 l 1,15,16
 828 1319 828 1319 717 1319 c 0,17,18
 488 1319 488 1319 488 1012 c 2,19,-1
 488 776 l 1,20,-1
 784 776 l 1,21,-1
 784 635 l 1,22,-1
 488 635 l 1,23,-1
 488 479 l 2,24,25
 488 237 488 237 295 140 c 1,26,-1
 1006 140 l 1,27,-1
 1006 0 l 1,0,-1
EndSplineSet
EndChar
StartChar: currency
Encoding: 164 164 101
Width: 1138
Flags: W
LayerCount: 2
Back
Fore
SplineSet
1038 354 m 1,0,-1
 946 258 l 1,1,-1
 809 396 l 1,2,3
 704 320 704 320 570 320 c 0,4,5
 434 320 434 320 330 396 c 1,6,-1
 192 258 l 1,7,-1
 100 354 l 1,8,-1
 238 488 l 1,9,10
 162 601 162 601 162 725 c 0,11,12
 162 854 162 854 238 962 c 1,13,-1
 100 1098 l 1,14,-1
 192 1194 l 1,15,-1
 330 1057 l 1,16,17
 440 1134 440 1134 570 1134 c 0,18,19
 699 1134 699 1134 807 1057 c 1,20,-1
 946 1194 l 1,21,-1
 1038 1098 l 1,22,-1
 901 962 l 1,23,24
 979 850 979 850 979 725 c 0,25,26
 979 604 979 604 901 488 c 1,27,-1
 1038 354 l 1,0,-1
570 1002 m 0,28,29
 454 1002 454 1002 374.5 921 c 128,-1,30
 295 840 295 840 295 727 c 256,31,32
 295 614 295 614 375.5 533 c 128,-1,33
 456 452 456 452 570 452 c 0,34,35
 683 452 683 452 764.5 533 c 128,-1,36
 846 614 846 614 846 727 c 256,37,38
 846 840 846 840 763 921 c 128,-1,39
 680 1002 680 1002 570 1002 c 0,28,29
EndSplineSet
EndChar
StartChar: yen
Encoding: 165 165 102
Width: 1104
Flags: W
LayerCount: 2
Back
Fore
SplineSet
1042 1434 m 1,0,-1
 686 778 l 1,1,-1
 971 778 l 1,2,-1
 971 639 l 1,3,-1
 637 639 l 1,4,-1
 637 432 l 1,5,-1
 971 432 l 1,6,-1
 971 293 l 1,7,-1
 637 293 l 1,8,-1
 637 0 l 1,9,-1
 473 0 l 1,10,-1
 473 293 l 1,11,-1
 129 293 l 1,12,-1
 129 432 l 1,13,-1
 473 432 l 1,14,-1
 473 639 l 1,15,-1
 129 639 l 1,16,-1
 129 778 l 1,17,-1
 420 778 l 1,18,-1
 68 1434 l 1,19,-1
 260 1434 l 1,20,-1
 510 920 l 2,21,22
 538 862 538 862 557 809 c 1,23,-1
 561 809 l 1,24,25
 574 851 574 851 610 926 c 2,26,-1
 862 1434 l 1,27,-1
 1042 1434 l 1,0,-1
EndSplineSet
EndChar
StartChar: brokenbar
Encoding: 166 166 103
Width: 490
Flags: W
LayerCount: 2
Back
Fore
SplineSet
320 715 m 1,0,-1
 172 715 l 1,1,-1
 172 1566 l 1,2,-1
 320 1566 l 1,3,-1
 320 715 l 1,0,-1
320 -482 m 1,4,-1
 172 -482 l 1,5,-1
 172 370 l 1,6,-1
 320 370 l 1,7,-1
 320 -482 l 1,4,-1
EndSplineSet
EndChar
StartChar: section
Encoding: 167 167 104
Width: 918
Flags: W
LayerCount: 2
Back
Fore
SplineSet
658 416 m 1,0,1
 748 342 748 342 748 230 c 0,2,3
 748 98 748 98 648 16 c 128,-1,4
 548 -66 548 -66 393 -66 c 0,5,6
 262 -66 262 -66 154 -10 c 1,7,-1
 154 148 l 1,8,9
 284 74 284 74 404 74 c 0,10,11
 488 74 488 74 534 113.5 c 128,-1,12
 580 153 580 153 580 213 c 0,13,14
 580 266 580 266 544.5 302.5 c 128,-1,15
 509 339 509 339 364 416 c 0,16,17
 131 538 131 538 131 733 c 0,18,19
 131 896 131 896 278 977 c 1,20,21
 172 1060 172 1060 172 1200 c 0,22,23
 172 1327 172 1327 265.5 1409 c 128,-1,24
 359 1491 359 1491 512 1491 c 0,25,26
 642 1491 642 1491 731 1448 c 1,27,-1
 731 1290 l 1,28,29
 630 1352 630 1352 508 1352 c 0,30,31
 340 1352 340 1352 340 1208 c 0,32,33
 340 1153 340 1153 380.5 1108 c 128,-1,34
 421 1063 421 1063 584 985 c 0,35,36
 807 878 807 878 807 692 c 0,37,38
 807 522 807 522 658 416 c 1,0,1
398 905 m 1,39,40
 297 854 297 854 297 746 c 0,41,42
 297 674 297 674 353.5 619.5 c 128,-1,43
 410 565 410 565 551 502 c 1,44,45
 639 570 639 570 639 674 c 0,46,47
 639 746 639 746 586.5 796.5 c 128,-1,48
 534 847 534 847 398 905 c 1,39,40
EndSplineSet
EndChar
StartChar: dieresis
Encoding: 168 168 105
Width: 848
Flags: W
LayerCount: 2
Back
Fore
SplineSet
610 1218 m 0,0,1
 570 1218 570 1218 541 1246 c 128,-1,2
 512 1274 512 1274 512 1317 c 0,3,4
 512 1359 512 1359 540 1387 c 128,-1,5
 568 1415 568 1415 608 1415 c 0,6,7
 650 1415 650 1415 679 1386.5 c 128,-1,8
 708 1358 708 1358 708 1317 c 256,9,10
 708 1276 708 1276 680 1247 c 128,-1,11
 652 1218 652 1218 610 1218 c 0,0,1
226 1218 m 0,12,13
 184 1218 184 1218 154.5 1247.5 c 128,-1,14
 125 1277 125 1277 125 1317 c 0,15,16
 125 1359 125 1359 153.5 1387 c 128,-1,17
 182 1415 182 1415 223 1415 c 256,18,19
 264 1415 264 1415 294 1386.5 c 128,-1,20
 324 1358 324 1358 324 1317 c 256,21,22
 324 1276 324 1276 295 1247 c 128,-1,23
 266 1218 266 1218 226 1218 c 0,12,13
EndSplineSet
EndChar
StartChar: copyright
Encoding: 169 169 106
Width: 1823
Flags: W
LayerCount: 2
Back
Fore
SplineSet
912 -33 m 0,0,1
 601 -33 601 -33 381.5 186.5 c 128,-1,2
 162 406 162 406 162 717 c 256,3,4
 162 1028 162 1028 381.5 1247.5 c 128,-1,5
 601 1467 601 1467 912 1467 c 0,6,7
 1222 1467 1222 1467 1441.5 1247.5 c 128,-1,8
 1661 1028 1661 1028 1661 717 c 256,9,10
 1661 406 1661 406 1441.5 186.5 c 128,-1,11
 1222 -33 1222 -33 912 -33 c 0,0,1
912 1379 m 256,12,13
 638 1379 638 1379 444 1185 c 128,-1,14
 250 991 250 991 250 717 c 256,15,16
 250 443 250 443 444 249.5 c 128,-1,17
 638 56 638 56 912 56 c 256,18,19
 1186 56 1186 56 1379.5 249.5 c 128,-1,20
 1573 443 1573 443 1573 717 c 256,21,22
 1573 991 1573 991 1379.5 1185 c 128,-1,23
 1186 1379 1186 1379 912 1379 c 256,12,13
1213 266 m 1,24,25
 1099 197 1099 197 944 197 c 0,26,27
 735 197 735 197 594 338.5 c 128,-1,28
 453 480 453 480 453 692 c 0,29,30
 453 939 453 939 597.5 1086 c 128,-1,31
 742 1233 742 1233 973 1233 c 0,32,33
 1105 1233 1105 1233 1209 1180 c 1,34,-1
 1209 1030 l 1,35,36
 1114 1102 1114 1102 955 1102 c 0,37,38
 799 1102 799 1102 697.5 995.5 c 128,-1,39
 596 889 596 889 596 709 c 0,40,41
 596 535 596 535 699.5 429.5 c 128,-1,42
 803 324 803 324 963 324 c 0,43,44
 1109 324 1109 324 1213 402 c 1,45,-1
 1213 266 l 1,24,25
EndSplineSet
EndChar
StartChar: ordfeminine
Encoding: 170 170 107
Width: 803
Flags: W
LayerCount: 2
Back
Fore
SplineSet
688 717 m 1,0,-1
 559 717 l 1,1,-1
 559 817 l 1,2,-1
 555 817 l 1,3,4
 476 698 476 698 324 698 c 0,5,6
 215 698 215 698 148.5 757.5 c 128,-1,7
 82 817 82 817 82 910 c 0,8,9
 82 1112 82 1112 330 1145 c 2,10,-1
 559 1176 l 1,11,12
 559 1344 559 1344 408 1344 c 0,13,14
 272 1344 272 1344 154 1258 c 1,15,-1
 154 1386 l 1,16,17
 265 1456 265 1456 420 1456 c 0,18,19
 546 1456 546 1456 617 1384 c 128,-1,20
 688 1312 688 1312 688 1182 c 2,21,-1
 688 717 l 1,0,-1
559 1075 m 1,22,-1
 379 1050 l 2,23,24
 211 1027 211 1027 211 916 c 0,25,26
 211 865 211 865 249.5 833 c 128,-1,27
 288 801 288 801 352 801 c 0,28,29
 434 801 434 801 496.5 862 c 128,-1,30
 559 923 559 923 559 1008 c 2,31,-1
 559 1075 l 1,22,-1
EndSplineSet
EndChar
StartChar: guillemotleft
Encoding: 171 171 108
Width: 1036
Flags: W
LayerCount: 2
Back
Fore
SplineSet
946 200 m 1,0,-1
 778 200 l 1,1,-1
 479 536 l 1,2,-1
 778 880 l 1,3,-1
 948 880 l 1,4,-1
 641 536 l 1,5,-1
 946 200 l 1,0,-1
557 200 m 1,6,-1
 391 200 l 1,7,-1
 92 536 l 1,8,-1
 391 880 l 1,9,-1
 557 880 l 1,10,-1
 254 536 l 1,11,-1
 557 200 l 1,6,-1
EndSplineSet
EndChar
StartChar: logicalnot
Encoding: 172 172 109
Width: 1401
Flags: W
LayerCount: 2
Back
Fore
SplineSet
1172 254 m 1,0,-1
 1040 254 l 1,1,-1
 1040 684 l 1,2,-1
 232 684 l 1,3,-1
 232 817 l 1,4,-1
 1172 817 l 1,5,-1
 1172 254 l 1,0,-1
EndSplineSet
EndChar
StartChar: registered
Encoding: 174 174 111
Width: 1823
Flags: W
LayerCount: 2
Back
Fore
SplineSet
912 -33 m 0,0,1
 601 -33 601 -33 381.5 186.5 c 128,-1,2
 162 406 162 406 162 717 c 256,3,4
 162 1028 162 1028 381.5 1247.5 c 128,-1,5
 601 1467 601 1467 912 1467 c 0,6,7
 1222 1467 1222 1467 1441.5 1247.5 c 128,-1,8
 1661 1028 1661 1028 1661 717 c 256,9,10
 1661 406 1661 406 1441.5 186.5 c 128,-1,11
 1222 -33 1222 -33 912 -33 c 0,0,1
912 1379 m 256,12,13
 638 1379 638 1379 444 1185 c 128,-1,14
 250 991 250 991 250 717 c 256,15,16
 250 443 250 443 444 249.5 c 128,-1,17
 638 56 638 56 912 56 c 256,18,19
 1186 56 1186 56 1379.5 249.5 c 128,-1,20
 1573 443 1573 443 1573 717 c 256,21,22
 1573 991 1573 991 1379.5 1185 c 128,-1,23
 1186 1379 1186 1379 912 1379 c 256,12,13
1276 248 m 1,24,-1
 1114 248 l 1,25,-1
 1010 477 l 2,26,27
 931 649 931 649 840 649 c 2,28,-1
 752 649 l 1,29,-1
 752 248 l 1,30,-1
 619 248 l 1,31,-1
 619 1202 l 1,32,-1
 887 1202 l 2,33,34
 1054 1202 1054 1202 1144.5 1132 c 128,-1,35
 1235 1062 1235 1062 1235 942 c 0,36,37
 1235 844 1235 844 1171.5 775 c 128,-1,38
 1108 706 1108 706 994 682 c 1,39,-1
 994 678 l 1,40,41
 1073 661 1073 661 1151 502 c 2,42,-1
 1276 248 l 1,24,-1
752 1088 m 1,43,-1
 752 762 l 1,44,-1
 895 762 l 2,45,46
 1092 762 1092 762 1092 926 c 0,47,48
 1092 1014 1092 1014 1039 1051 c 128,-1,49
 986 1088 986 1088 871 1088 c 2,50,-1
 752 1088 l 1,43,-1
EndSplineSet
EndChar
StartChar: macron
Encoding: 175 175 112
Width: 850
Flags: W
LayerCount: 2
Back
Fore
SplineSet
850 1396 m 1,0,-1
 0 1396 l 1,1,-1
 0 1516 l 1,2,-1
 850 1516 l 1,3,-1
 850 1396 l 1,0,-1
EndSplineSet
EndChar
StartChar: degree
Encoding: 176 176 113
Width: 772
Flags: W
LayerCount: 2
Back
Fore
SplineSet
385 897 m 256,0,1
 270 897 270 897 189 978.5 c 128,-1,2
 108 1060 108 1060 108 1176 c 0,3,4
 108 1291 108 1291 188 1370.5 c 128,-1,5
 268 1450 268 1450 383 1450 c 0,6,7
 499 1450 499 1450 580.5 1370 c 128,-1,8
 662 1290 662 1290 662 1176 c 0,9,10
 662 1060 662 1060 581 978.5 c 128,-1,11
 500 897 500 897 385 897 c 256,0,1
385 1333 m 256,12,13
 320 1333 320 1333 274 1287 c 128,-1,14
 228 1241 228 1241 228 1176 c 0,15,16
 228 1109 228 1109 273 1061.5 c 128,-1,17
 318 1014 318 1014 383 1014 c 256,18,19
 448 1014 448 1014 495 1062 c 128,-1,20
 542 1110 542 1110 542 1176 c 256,21,22
 542 1242 542 1242 496 1287.5 c 128,-1,23
 450 1333 450 1333 385 1333 c 256,12,13
EndSplineSet
EndChar
StartChar: plusminus
Encoding: 177 177 114
Width: 1401
Flags: W
LayerCount: 2
Back
Fore
SplineSet
1172 652 m 1,0,-1
 768 652 l 1,1,-1
 768 248 l 1,2,-1
 637 248 l 1,3,-1
 637 652 l 1,4,-1
 232 652 l 1,5,-1
 232 784 l 1,6,-1
 637 784 l 1,7,-1
 637 1188 l 1,8,-1
 768 1188 l 1,9,-1
 768 784 l 1,10,-1
 1172 784 l 1,11,-1
 1172 652 l 1,0,-1
1172 0 m 1,12,-1
 232 0 l 1,13,-1
 232 133 l 1,14,-1
 1172 133 l 1,15,-1
 1172 0 l 1,12,-1
EndSplineSet
EndChar
StartChar: uni00B2
Encoding: 178 178 115
Width: 750
Flags: W
LayerCount: 2
Back
Fore
SplineSet
658 884 m 1,0,-1
 104 884 l 1,1,-1
 104 998 l 1,2,-1
 344 1234 l 2,3,4
 448 1336 448 1336 476 1390.5 c 128,-1,5
 504 1445 504 1445 504 1500 c 0,6,7
 504 1558 504 1558 466 1594.5 c 128,-1,8
 428 1631 428 1631 366 1631 c 0,9,10
 248 1631 248 1631 150 1529 c 1,11,-1
 150 1678 l 1,12,13
 234 1754 234 1754 385 1754 c 0,14,15
 503 1754 503 1754 572 1688 c 128,-1,16
 641 1622 641 1622 641 1514 c 0,17,18
 641 1361 641 1361 436 1166 c 2,19,-1
 272 1010 l 1,20,-1
 272 1006 l 1,21,-1
 658 1006 l 1,22,-1
 658 884 l 1,0,-1
EndSplineSet
EndChar
StartChar: uni00B3
Encoding: 179 179 116
Width: 750
Flags: W
LayerCount: 2
Back
Fore
SplineSet
129 916 m 1,0,-1
 129 1058 l 1,1,2
 232 982 232 982 346 982 c 0,3,4
 426 982 426 982 472 1019.5 c 128,-1,5
 518 1057 518 1057 518 1121 c 0,6,7
 518 1262 518 1262 299 1262 c 2,8,-1
 215 1262 l 1,9,-1
 215 1380 l 1,10,-1
 295 1380 l 2,11,12
 492 1380 492 1380 492 1514 c 0,13,14
 492 1633 492 1633 348 1633 c 0,15,16
 254 1633 254 1633 162 1564 c 1,17,-1
 162 1703 l 1,18,19
 249 1754 249 1754 375 1754 c 0,20,21
 488 1754 488 1754 555 1694.5 c 128,-1,22
 622 1635 622 1635 622 1539 c 0,23,24
 622 1388 622 1388 477 1334 c 1,25,-1
 477 1330 l 1,26,27
 654 1288 654 1288 654 1128 c 0,28,29
 654 1011 654 1011 569 937 c 128,-1,30
 484 863 484 863 342 863 c 0,31,32
 205 863 205 863 129 916 c 1,0,-1
EndSplineSet
EndChar
StartChar: acute
Encoding: 180 180 117
Width: 578
Flags: W
LayerCount: 2
Back
Fore
SplineSet
524 1546 m 1,0,-1
 262 1218 l 1,1,-1
 135 1218 l 1,2,-1
 358 1546 l 1,3,-1
 524 1546 l 1,0,-1
EndSplineSet
EndChar
StartChar: mu
Encoding: 181 181 118
Width: 1182
Flags: W
LayerCount: 2
Back
Fore
SplineSet
1048 0 m 1,0,-1
 878 0 l 1,1,2
 855 72 855 72 855 168 c 1,3,-1
 850 168 l 1,4,5
 766 -23 766 -23 571 -23 c 0,6,7
 404 -23 404 -23 333 100 c 1,8,-1
 329 100 l 1,9,-1
 329 -396 l 1,10,-1
 166 -396 l 1,11,-1
 166 1024 l 1,12,-1
 329 1024 l 1,13,-1
 329 398 l 2,14,15
 329 271 329 271 398 196 c 128,-1,16
 467 121 467 121 578 121 c 0,17,18
 699 121 699 121 774.5 207 c 128,-1,19
 850 293 850 293 850 438 c 2,20,-1
 850 1024 l 1,21,-1
 1016 1024 l 1,22,-1
 1016 265 l 2,23,24
 1016 77 1016 77 1048 0 c 1,0,-1
EndSplineSet
EndChar
StartChar: paragraph
Encoding: 182 182 119
Width: 938
Flags: W
LayerCount: 2
Back
Fore
SplineSet
834 1331 m 1,0,-1
 706 1331 l 1,1,-1
 706 0 l 1,2,-1
 600 0 l 1,3,-1
 600 1331 l 1,4,-1
 442 1331 l 1,5,-1
 442 0 l 1,6,-1
 334 0 l 1,7,-1
 334 903 l 1,8,9
 226 903 226 903 155 979 c 128,-1,10
 84 1055 84 1055 84 1170 c 0,11,12
 84 1287 84 1287 158.5 1360.5 c 128,-1,13
 233 1434 233 1434 340 1434 c 2,14,-1
 834 1434 l 1,15,-1
 834 1331 l 1,0,-1
EndSplineSet
EndChar
StartChar: periodcentered
Encoding: 183 183 120
Width: 444
Flags: W
LayerCount: 2
Back
Fore
SplineSet
223 510 m 0,0,1
 177 510 177 510 144.5 543 c 128,-1,2
 112 576 112 576 112 622 c 0,3,4
 112 669 112 669 144.5 702 c 128,-1,5
 177 735 177 735 223 735 c 0,6,7
 270 735 270 735 303 702 c 128,-1,8
 336 669 336 669 336 622 c 0,9,10
 336 576 336 576 303 543 c 128,-1,11
 270 510 270 510 223 510 c 0,0,1
EndSplineSet
EndChar
StartChar: cedilla
Encoding: 184 184 121
Width: 420
Flags: W
LayerCount: 2
Back
Fore
SplineSet
391 -256 m 0,0,1
 391 -432 391 -432 116 -432 c 0,2,3
 78 -432 78 -432 51 -430 c 1,4,-1
 51 -340 l 1,5,6
 94 -346 94 -346 121 -346 c 0,7,8
 262 -346 262 -346 262 -256 c 0,9,10
 262 -178 262 -178 133 -178 c 0,11,12
 123 -178 123 -178 92 -182 c 1,13,-1
 92 0 l 1,14,-1
 200 0 l 1,15,-1
 200 -104 l 1,16,17
 288 -104 288 -104 339.5 -144 c 128,-1,18
 391 -184 391 -184 391 -256 c 0,0,1
EndSplineSet
EndChar
StartChar: uni00B9
Encoding: 185 185 122
Width: 719
Flags: W
LayerCount: 2
Back
Fore
SplineSet
639 884 m 1,0,-1
 135 884 l 1,1,-1
 135 996 l 1,2,-1
 320 996 l 1,3,-1
 320 1590 l 1,4,-1
 127 1535 l 1,5,-1
 127 1660 l 1,6,-1
 450 1756 l 1,7,-1
 450 996 l 1,8,-1
 639 996 l 1,9,-1
 639 884 l 1,0,-1
EndSplineSet
EndChar
StartChar: ordmasculine
Encoding: 186 186 123
Width: 882
Flags: W
LayerCount: 2
Back
Fore
SplineSet
436 696 m 0,0,1
 269 696 269 696 173.5 796.5 c 128,-1,2
 78 897 78 897 78 1069 c 0,3,4
 78 1250 78 1250 180.5 1352 c 128,-1,5
 283 1454 283 1454 452 1454 c 0,6,7
 615 1454 615 1454 709 1354.5 c 128,-1,8
 803 1255 803 1255 803 1084 c 0,9,10
 803 906 803 906 703.5 801 c 128,-1,11
 604 696 604 696 436 696 c 0,0,1
444 1344 m 0,12,13
 338 1344 338 1344 275.5 1272 c 128,-1,14
 213 1200 213 1200 213 1073 c 0,15,16
 213 949 213 949 272.5 879 c 128,-1,17
 332 809 332 809 442 809 c 0,18,19
 547 809 547 809 608.5 880.5 c 128,-1,20
 670 952 670 952 670 1075 c 0,21,22
 670 1201 670 1201 609.5 1272.5 c 128,-1,23
 549 1344 549 1344 444 1344 c 0,12,13
EndSplineSet
EndChar
StartChar: guillemotright
Encoding: 187 187 124
Width: 1036
Flags: W
LayerCount: 2
Back
Fore
SplineSet
948 538 m 1,0,-1
 647 200 l 1,1,-1
 482 200 l 1,2,-1
 784 538 l 1,3,-1
 482 880 l 1,4,-1
 647 880 l 1,5,-1
 948 538 l 1,0,-1
559 538 m 1,6,-1
 260 200 l 1,7,-1
 90 200 l 1,8,-1
 398 538 l 1,9,-1
 90 880 l 1,10,-1
 260 880 l 1,11,-1
 559 538 l 1,6,-1
EndSplineSet
EndChar
StartChar: onequarter
Encoding: 188 188 125
Width: 1856
Flags: W
LayerCount: 2
Back
Fore
SplineSet
1706 204 m 1,0,-1
 1596 204 l 1,1,-1
 1596 0 l 1,2,-1
 1464 0 l 1,3,-1
 1464 204 l 1,4,-1
 1071 204 l 1,5,-1
 1071 296 l 1,6,-1
 1440 850 l 1,7,-1
 1596 850 l 1,8,-1
 1596 313 l 1,9,-1
 1706 313 l 1,10,-1
 1706 204 l 1,0,-1
1468 724 m 1,11,-1
 1464 724 l 1,12,13
 1452 693 1452 693 1426 651 c 2,14,-1
 1208 313 l 1,15,-1
 1464 313 l 1,16,-1
 1464 636 l 2,17,18
 1464 668 1464 668 1468 724 c 1,11,-1
1393 1434 m 1,19,-1
 535 0 l 1,20,-1
 391 0 l 1,21,-1
 1250 1434 l 1,22,-1
 1393 1434 l 1,19,-1
639 584 m 1,23,-1
 135 584 l 1,24,-1
 135 696 l 1,25,-1
 320 696 l 1,26,-1
 320 1290 l 1,27,-1
 127 1235 l 1,28,-1
 127 1360 l 1,29,-1
 450 1456 l 1,30,-1
 450 696 l 1,31,-1
 639 696 l 1,32,-1
 639 584 l 1,23,-1
EndSplineSet
EndChar
StartChar: onehalf
Encoding: 189 189 126
Width: 1906
Flags: W
LayerCount: 2
Back
Fore
SplineSet
1748 1 m 1,0,-1
 1194 1 l 1,1,-1
 1194 115 l 1,2,-1
 1434 351 l 2,3,4
 1538 453 1538 453 1566 507.5 c 128,-1,5
 1594 562 1594 562 1594 617 c 0,6,7
 1594 675 1594 675 1556 711.5 c 128,-1,8
 1518 748 1518 748 1456 748 c 0,9,10
 1338 748 1338 748 1240 646 c 1,11,-1
 1240 795 l 1,12,13
 1324 871 1324 871 1475 871 c 0,14,15
 1593 871 1593 871 1662 805 c 128,-1,16
 1731 739 1731 739 1731 631 c 0,17,18
 1731 478 1731 478 1526 283 c 2,19,-1
 1362 127 l 1,20,-1
 1362 123 l 1,21,-1
 1748 123 l 1,22,-1
 1748 1 l 1,0,-1
1393 1434 m 1,23,-1
 535 0 l 1,24,-1
 391 0 l 1,25,-1
 1250 1434 l 1,26,-1
 1393 1434 l 1,23,-1
639 584 m 1,27,-1
 135 584 l 1,28,-1
 135 696 l 1,29,-1
 320 696 l 1,30,-1
 320 1290 l 1,31,-1
 127 1235 l 1,32,-1
 127 1360 l 1,33,-1
 450 1456 l 1,34,-1
 450 696 l 1,35,-1
 639 696 l 1,36,-1
 639 584 l 1,27,-1
EndSplineSet
EndChar
StartChar: threequarters
Encoding: 190 190 127
Width: 1950
Flags: W
LayerCount: 2
Back
Fore
SplineSet
1771 204 m 1,0,-1
 1661 204 l 1,1,-1
 1661 0 l 1,2,-1
 1529 0 l 1,3,-1
 1529 204 l 1,4,-1
 1136 204 l 1,5,-1
 1136 296 l 1,6,-1
 1505 850 l 1,7,-1
 1661 850 l 1,8,-1
 1661 313 l 1,9,-1
 1771 313 l 1,10,-1
 1771 204 l 1,0,-1
1533 724 m 1,11,-1
 1529 724 l 1,12,13
 1517 693 1517 693 1491 651 c 2,14,-1
 1273 313 l 1,15,-1
 1529 313 l 1,16,-1
 1529 636 l 2,17,18
 1529 668 1529 668 1533 724 c 1,11,-1
1464 1434 m 1,19,-1
 606 0 l 1,20,-1
 462 0 l 1,21,-1
 1321 1434 l 1,22,-1
 1464 1434 l 1,19,-1
129 616 m 1,23,-1
 129 758 l 1,24,25
 232 682 232 682 346 682 c 0,26,27
 426 682 426 682 472 719.5 c 128,-1,28
 518 757 518 757 518 821 c 0,29,30
 518 962 518 962 299 962 c 2,31,-1
 215 962 l 1,32,-1
 215 1080 l 1,33,-1
 295 1080 l 2,34,35
 492 1080 492 1080 492 1214 c 0,36,37
 492 1333 492 1333 348 1333 c 0,38,39
 254 1333 254 1333 162 1264 c 1,40,-1
 162 1403 l 1,41,42
 249 1454 249 1454 375 1454 c 0,43,44
 488 1454 488 1454 555 1394.5 c 128,-1,45
 622 1335 622 1335 622 1239 c 0,46,47
 622 1088 622 1088 477 1034 c 1,48,-1
 477 1030 l 1,49,50
 654 988 654 988 654 828 c 0,51,52
 654 711 654 711 569 637 c 128,-1,53
 484 563 484 563 342 563 c 0,54,55
 205 563 205 563 129 616 c 1,23,-1
EndSplineSet
EndChar
StartChar: questiondown
Encoding: 191 191 128
Width: 918
Flags: W
LayerCount: 2
Back
Fore
SplineSet
625 630 m 1,0,1
 634 604 634 604 641 562.5 c 128,-1,2
 648 521 648 521 648 480 c 0,3,4
 648 416 648 416 622.5 364.5 c 128,-1,5
 597 313 597 313 559 268 c 128,-1,6
 521 223 521 223 476 181.5 c 128,-1,7
 431 140 431 140 393 97.5 c 128,-1,8
 355 55 355 55 329.5 8.5 c 128,-1,9
 304 -38 304 -38 304 -94 c 0,10,11
 304 -142 304 -142 322.5 -179 c 128,-1,12
 341 -216 341 -216 373 -241 c 128,-1,13
 405 -266 405 -266 447 -278.5 c 128,-1,14
 489 -291 489 -291 536 -291 c 0,15,16
 705 -291 705 -291 829 -158 c 1,17,-1
 829 -334 l 1,18,19
 676 -430 676 -430 512 -430 c 0,20,21
 436 -430 436 -430 369 -410 c 128,-1,22
 302 -390 302 -390 252 -350.5 c 128,-1,23
 202 -311 202 -311 172.5 -252 c 128,-1,24
 143 -193 143 -193 143 -115 c 0,25,26
 143 -41 143 -41 169 17 c 128,-1,27
 195 75 195 75 234.5 123.5 c 128,-1,28
 274 172 274 172 320 214 c 128,-1,29
 366 256 366 256 405.5 297.5 c 128,-1,30
 445 339 445 339 471 384 c 128,-1,31
 497 429 497 429 497 483 c 0,32,33
 497 529 497 529 486 566.5 c 128,-1,34
 475 604 475 604 464 630 c 1,35,-1
 625 630 l 1,0,1
535 1046 m 256,36,37
 579 1046 579 1046 613 1014 c 0,38,39
 646 983 646 983 646 936 c 0,40,41
 646 890 646 890 613 858 c 0,42,43
 580 825 580 825 535 825 c 256,44,45
 490 825 490 825 457 858 c 0,46,47
 424 890 424 890 424 936 c 0,48,49
 424 983 424 983 457 1014 c 0,50,51
 491 1046 491 1046 535 1046 c 256,36,37
EndSplineSet
EndChar
StartChar: Aring
Encoding: 197 197 134
Width: 1321
Flags: W
LayerCount: 2
Back
Fore
SplineSet
1298 0 m 1,0,-1
 1112 0 l 1,1,-1
 960 402 l 1,2,-1
 352 402 l 1,3,-1
 209 0 l 1,4,-1
 22 0 l 1,5,-1
 551 1378 l 1,6,7
 450 1430 450 1430 450 1542 c 0,8,9
 450 1631 450 1631 510 1686 c 128,-1,10
 570 1741 570 1741 662 1741 c 0,11,12
 750 1741 750 1741 806 1686.5 c 128,-1,13
 862 1632 862 1632 862 1548 c 0,14,15
 862 1436 862 1436 766 1382 c 1,16,-1
 1298 0 l 1,0,-1
656 1659 m 0,17,18
 606 1659 606 1659 574 1627.5 c 128,-1,19
 542 1596 542 1596 542 1548 c 0,20,21
 542 1434 542 1434 656 1434 c 0,22,23
 704 1434 704 1434 737 1467 c 128,-1,24
 770 1500 770 1500 770 1548 c 0,25,26
 770 1597 770 1597 737 1628 c 128,-1,27
 704 1659 704 1659 656 1659 c 0,17,18
905 553 m 1,28,-1
 680 1164 l 2,29,30
 669 1194 669 1194 658 1260 c 1,31,-1
 654 1260 l 1,32,33
 644 1199 644 1199 631 1164 c 2,34,-1
 408 553 l 1,35,-1
 905 553 l 1,28,-1
EndSplineSet
EndChar
StartChar: AE
Encoding: 198 198 135
Width: 1762
Flags: W
LayerCount: 2
Back
Fore
SplineSet
1667 0 m 1,0,-1
 908 0 l 1,1,-1
 908 402 l 1,2,-1
 398 402 l 1,3,-1
 205 0 l 1,4,-1
 10 0 l 1,5,-1
 710 1434 l 1,6,-1
 1634 1434 l 1,7,-1
 1634 1282 l 1,8,-1
 1075 1282 l 1,9,-1
 1075 805 l 1,10,-1
 1594 805 l 1,11,-1
 1594 654 l 1,12,-1
 1075 654 l 1,13,-1
 1075 152 l 1,14,-1
 1667 152 l 1,15,-1
 1667 0 l 1,0,-1
908 553 m 1,16,-1
 908 1282 l 1,17,-1
 813 1282 l 1,18,-1
 467 553 l 1,19,-1
 908 553 l 1,16,-1
EndSplineSet
EndChar
StartChar: Eth
Encoding: 208 208 145
Width: 1436
Flags: W
LayerCount: 2
Back
Fore
SplineSet
188 0 m 1,0,-1
 188 641 l 1,1,-1
 28 641 l 1,2,-1
 28 796 l 1,3,-1
 188 796 l 1,4,-1
 188 1434 l 1,5,-1
 584 1434 l 2,6,7
 1342 1434 1342 1434 1342 735 c 0,8,9
 1342 401 1342 401 1131.5 200.5 c 128,-1,10
 921 0 921 0 568 0 c 2,11,-1
 188 0 l 1,0,-1
356 1282 m 1,12,-1
 356 796 l 1,13,-1
 692 796 l 1,14,-1
 692 641 l 1,15,-1
 356 641 l 1,16,-1
 356 152 l 1,17,-1
 570 152 l 2,18,19
 852 152 852 152 1009 303 c 128,-1,20
 1166 454 1166 454 1166 731 c 0,21,22
 1166 1282 1166 1282 580 1282 c 2,23,-1
 356 1282 l 1,12,-1
EndSplineSet
EndChar
StartChar: multiply
Encoding: 215 215 152
Width: 1401
Flags: W
LayerCount: 2
Back
Fore
SplineSet
1134 258 m 1,0,-1
 1040 164 l 1,1,-1
 700 504 l 1,2,-1
 362 164 l 1,3,-1
 268 258 l 1,4,-1
 608 596 l 1,5,-1
 268 936 l 1,6,-1
 362 1030 l 1,7,-1
 700 690 l 1,8,-1
 1040 1030 l 1,9,-1
 1134 936 l 1,10,-1
 794 596 l 1,11,-1
 1134 258 l 1,0,-1
EndSplineSet
EndChar
StartChar: Oslash
Encoding: 216 216 153
Width: 1544
Flags: W
LayerCount: 2
Back
Fore
SplineSet
324 131 m 1,0,-1
 172 -51 l 1,1,-1
 94 14 l 1,2,-1
 252 205 l 1,3,4
 94 400 94 400 94 700 c 0,5,6
 94 1043 94 1043 280.5 1250.5 c 128,-1,7
 467 1458 467 1458 790 1458 c 0,8,9
 1024 1458 1024 1458 1192 1329 c 1,10,-1
 1327 1491 l 1,11,-1
 1405 1428 l 1,12,-1
 1266 1262 l 1,13,14
 1450 1062 1450 1062 1450 735 c 0,15,16
 1450 384 1450 384 1264 180 c 128,-1,17
 1078 -24 1078 -24 766 -24 c 0,18,19
 500 -24 500 -24 324 131 c 1,0,-1
1090 1204 m 1,20,21
 964 1306 964 1306 778 1306 c 0,22,23
 551 1306 551 1306 410.5 1142 c 128,-1,24
 270 978 270 978 270 715 c 0,25,26
 270 492 270 492 368 342 c 1,27,-1
 1090 1204 l 1,20,21
1157 1130 m 1,28,-1
 432 264 l 1,29,30
 563 127 563 127 766 127 c 0,31,32
 1002 127 1002 127 1138 281.5 c 128,-1,33
 1274 436 1274 436 1274 712 c 0,34,35
 1274 972 1274 972 1157 1130 c 1,28,-1
EndSplineSet
EndChar
StartChar: Thorn
Encoding: 222 222 159
Width: 664
Flags: W
LayerCount: 2
Back
Fore
SplineSet
9 147 m 1,0,1
 9 230 9 230 9 482 c 128,-1,2
 9 734 9 734 9 1019.5 c 128,-1,3
 9 1305 9 1305 9 1557 c 128,-1,4
 9 1809 9 1809 9 1893 c 1,5,-1
 58 2041 l 1,6,-1
 127 1893 l 1,7,-1
 127 1479 l 1,8,-1
 585 1021 l 1,9,-1
 127 563 l 1,10,-1
 127 147 l 1,11,-1
 58 0 l 1,12,-1
 9 147 l 1,0,1
426 1021 m 1,13,-1
 127 1320 l 1,14,-1
 127 722 l 1,15,-1
 426 1021 l 1,13,-1
EndSplineSet
EndChar
StartChar: germandbls
Encoding: 223 223 160
Width: 1114
Flags: W
LayerCount: 2
Back
Fore
SplineSet
461 2 m 1,0,-1
 461 162 l 1,1,2
 536 114 536 114 631 114 c 0,3,4
 740 114 740 114 808 187.5 c 128,-1,5
 876 261 876 261 876 385 c 0,6,7
 876 535 876 535 776 628.5 c 128,-1,8
 676 722 676 722 498 742 c 1,9,-1
 498 872 l 1,10,11
 616 892 616 892 692 975 c 128,-1,12
 768 1058 768 1058 768 1172 c 0,13,14
 768 1280 768 1280 713 1339.5 c 128,-1,15
 658 1399 658 1399 561 1399 c 0,16,17
 330 1399 330 1399 330 1090 c 2,18,-1
 330 0 l 1,19,-1
 166 0 l 1,20,-1
 166 1114 l 2,21,22
 166 1306 166 1306 276 1422 c 128,-1,23
 386 1538 386 1538 572 1538 c 0,24,25
 738 1538 738 1538 837 1443 c 128,-1,26
 936 1348 936 1348 936 1192 c 0,27,28
 936 1065 936 1065 861 964 c 128,-1,29
 786 863 786 863 666 824 c 1,30,-1
 666 819 l 1,31,32
 1044 744 1044 744 1044 393 c 0,33,34
 1044 216 1044 216 933 96 c 128,-1,35
 822 -24 822 -24 639 -24 c 0,36,37
 538 -24 538 -24 461 2 c 1,0,-1
EndSplineSet
EndChar
StartChar: ae
Encoding: 230 230 167
Width: 1704
Flags: W
LayerCount: 2
Back
Fore
SplineSet
1622 471 m 1,0,-1
 897 471 l 1,1,2
 900 300 900 300 988 207 c 128,-1,3
 1076 114 1076 114 1229 114 c 0,4,5
 1406 114 1406 114 1550 228 c 1,6,-1
 1550 74 l 1,7,8
 1418 -24 1418 -24 1192 -24 c 0,9,10
 922 -24 922 -24 809 205 c 1,11,-1
 805 205 l 1,12,13
 660 -24 660 -24 418 -24 c 0,14,15
 265 -24 265 -24 177.5 56.5 c 128,-1,16
 90 137 90 137 90 272 c 0,17,18
 90 572 90 572 473 596 c 2,19,-1
 735 612 l 1,20,21
 735 910 735 910 520 910 c 0,22,23
 345 910 345 910 190 788 c 1,24,-1
 190 952 l 1,25,26
 338 1048 338 1048 538 1048 c 0,27,28
 770 1048 770 1048 838 848 c 1,29,-1
 842 848 l 1,30,31
 958 1048 958 1048 1198 1048 c 0,32,33
 1400 1048 1400 1048 1511 917.5 c 128,-1,34
 1622 787 1622 787 1622 555 c 2,35,-1
 1622 471 l 1,0,-1
1454 610 m 1,36,37
 1452 754 1452 754 1385.5 832 c 128,-1,38
 1319 910 1319 910 1200 910 c 0,39,40
 1084 910 1084 910 1001 828 c 128,-1,41
 918 746 918 746 899 610 c 1,42,-1
 1454 610 l 1,36,37
735 410 m 2,43,-1
 735 473 l 1,44,-1
 532 461 l 2,45,46
 393 453 393 453 324.5 412 c 128,-1,47
 256 371 256 371 256 276 c 0,48,49
 256 203 256 203 309 158.5 c 128,-1,50
 362 114 362 114 452 114 c 0,51,52
 571 114 571 114 653 198.5 c 128,-1,53
 735 283 735 283 735 410 c 2,43,-1
EndSplineSet
EndChar
StartChar: eth
Encoding: 240 240 177
Width: 1145
Flags: W
LayerCount: 2
Back
Fore
SplineSet
786 968 m 1,0,-1
 790 971 l 1,1,2
 700 1133 700 1133 592 1237 c 1,3,-1
 293 1086 l 1,4,-1
 242 1184 l 1,5,-1
 512 1315 l 1,6,7
 394 1420 394 1420 248 1516 c 1,8,-1
 469 1516 l 1,9,10
 544 1464 544 1464 641 1380 c 1,11,-1
 930 1524 l 1,12,-1
 985 1430 l 1,13,-1
 721 1300 l 1,14,15
 1048 993 1048 993 1048 526 c 0,16,17
 1048 286 1048 286 919 132 c 128,-1,18
 790 -22 790 -22 568 -22 c 256,19,20
 346 -22 346 -22 221 118 c 128,-1,21
 96 258 96 258 96 500 c 0,22,23
 96 743 96 743 226 894.5 c 128,-1,24
 356 1046 356 1046 576 1046 c 0,25,26
 699 1046 699 1046 786 968 c 1,0,-1
582 910 m 0,27,28
 434 910 434 910 349 801.5 c 128,-1,29
 264 693 264 693 264 506 c 0,30,31
 264 325 264 325 347 219.5 c 128,-1,32
 430 114 430 114 578 114 c 0,33,34
 717 114 717 114 798.5 222 c 128,-1,35
 880 330 880 330 880 510 c 0,36,37
 880 910 880 910 582 910 c 0,27,28
EndSplineSet
EndChar
StartChar: divide
Encoding: 247 247 184
Width: 1401
Flags: W
LayerCount: 2
Back
Fore
SplineSet
708 868 m 0,0,1
 664 868 664 868 634 898.5 c 128,-1,2
 604 929 604 929 604 973 c 0,3,4
 604 1018 604 1018 633 1050 c 128,-1,5
 662 1082 662 1082 708 1082 c 0,6,7
 811 1082 811 1082 811 975 c 0,8,9
 811 928 811 928 780.5 898 c 128,-1,10
 750 868 750 868 708 868 c 0,0,1
1172 530 m 1,11,-1
 232 530 l 1,12,-1
 232 664 l 1,13,-1
 1172 664 l 1,14,-1
 1172 530 l 1,11,-1
704 112 m 0,15,16
 660 112 660 112 629 142 c 128,-1,17
 598 172 598 172 598 215 c 0,18,19
 598 260 598 260 628 293 c 128,-1,20
 658 326 658 326 704 326 c 0,21,22
 805 326 805 326 805 217 c 0,23,24
 805 172 805 172 776 142 c 128,-1,25
 747 112 747 112 704 112 c 0,15,16
EndSplineSet
EndChar
StartChar: oslash
Encoding: 248 248 185
Width: 1200
Flags: W
LayerCount: 2
Back
Fore
SplineSet
1174 1048 m 1,0,-1
 1006 868 l 1,1,2
 1104 730 1104 730 1104 522 c 0,3,4
 1104 270 1104 270 965 123 c 128,-1,5
 826 -24 826 -24 594 -24 c 0,6,7
 402 -24 402 -24 276 78 c 1,8,-1
 131 -82 l 1,9,-1
 49 -4 l 1,10,-1
 198 160 l 1,11,12
 96 297 96 297 96 500 c 0,13,14
 96 758 96 758 238 903 c 128,-1,15
 380 1048 380 1048 620 1048 c 0,16,17
 804 1048 804 1048 928 950 c 1,18,-1
 1090 1126 l 1,19,-1
 1174 1048 l 1,0,-1
821 836 m 1,20,21
 742 910 742 910 606 910 c 0,22,23
 447 910 447 910 355.5 802.5 c 128,-1,24
 264 695 264 695 264 506 c 0,25,26
 264 374 264 374 314 282 c 1,27,-1
 821 836 l 1,20,21
891 742 m 1,28,-1
 383 190 l 1,29,30
 470 114 470 114 604 114 c 0,31,32
 767 114 767 114 852.5 218 c 128,-1,33
 938 322 938 322 938 512 c 0,34,35
 938 646 938 646 891 742 c 1,28,-1
EndSplineSet
EndChar
StartChar: dcaron
Encoding: 271 271 208
Width: 1381
Flags: W
LayerCount: 2
Back
Fore
SplineSet
1459 1516 m 1,0,-1
 1293 1256 l 1,1,-1
 1170 1256 l 1,2,-1
 1287 1516 l 1,3,-1
 1459 1516 l 1,0,-1
874 1020 m 1,4,-1
 119 1776 l 1,5,-1
 119 264 l 1,6,-1
 874 1020 l 1,4,-1
1911 2038 m 1,7,-1
 1911 1 l 1,8,-1
 958 945 l 1,9,-1
 4 0 l 1,10,-1
 4 2040 l 1,11,-1
 958 1095 l 1,12,-1
 1911 2038 l 1,7,-1
1043 1020 m 1,13,-1
 1799 264 l 1,14,-1
 1799 1776 l 1,15,-1
 1043 1020 l 1,13,-1
EndSplineSet
EndChar
StartChar: dcroat
Encoding: 273 273 210
Width: 1206
Flags: W
LayerCount: 2
Back
Fore
SplineSet
1040 0 m 1,0,-1
 876 0 l 1,1,-1
 876 174 l 1,2,-1
 872 174 l 1,3,4
 758 -24 758 -24 520 -24 c 0,5,6
 327 -24 327 -24 211.5 113.5 c 128,-1,7
 96 251 96 251 96 488 c 0,8,9
 96 742 96 742 224 895 c 128,-1,10
 352 1048 352 1048 565 1048 c 0,11,12
 773 1048 773 1048 872 882 c 1,13,-1
 876 882 l 1,14,-1
 876 1202 l 1,15,-1
 545 1202 l 1,16,-1
 545 1336 l 1,17,-1
 876 1336 l 1,18,-1
 876 1516 l 1,19,-1
 1040 1516 l 1,20,-1
 1040 1336 l 1,21,-1
 1176 1336 l 1,22,-1
 1176 1202 l 1,23,-1
 1040 1202 l 1,24,-1
 1040 0 l 1,0,-1
876 463 m 2,25,-1
 876 614 l 2,26,27
 876 738 876 738 794 824 c 128,-1,28
 712 910 712 910 586 910 c 0,29,30
 436 910 436 910 350 800 c 128,-1,31
 264 690 264 690 264 496 c 0,32,33
 264 319 264 319 346.5 216.5 c 128,-1,34
 429 114 429 114 568 114 c 0,35,36
 704 114 704 114 790 213 c 128,-1,37
 876 312 876 312 876 463 c 2,25,-1
EndSplineSet
EndChar
StartChar: uni0122
Encoding: 290 290 227
Width: 1303
Flags: W
LayerCount: 2
Back
Fore
SplineSet
885 -119 m 1,0,-1
 719 -379 l 1,1,-1
 596 -379 l 1,2,-1
 713 -119 l 1,3,-1
 885 -119 l 1,0,-1
434 2381.5 m 128,-1,5
 434 2448 434 2448 484.5 2495.5 c 128,-1,6
 535 2543 535 2543 606.5 2543 c 128,-1,7
 678 2543 678 2543 728 2495.5 c 128,-1,8
 778 2448 778 2448 778 2381.5 c 128,-1,9
 778 2315 778 2315 728 2268 c 128,-1,10
 678 2221 678 2221 606.5 2221 c 128,-1,11
 535 2221 535 2221 484.5 2268 c 128,-1,4
 434 2315 434 2315 434 2381.5 c 128,-1,5
669 1022 m 1,12,-1
 1161 177 l 1,13,-1
 1194 0 l 1,14,-1
 1056 118 l 1,15,-1
 599 903 l 1,16,-1
 143 118 l 1,17,-1
 5 0 l 1,18,-1
 39 177 l 1,19,-1
 530 1022 l 1,20,-1
 38 1867 l 1,21,-1
 5 2045 l 1,22,-1
 143 1927 l 1,23,-1
 599 1142 l 1,24,-1
 1056 1927 l 1,25,-1
 1194 2045 l 1,26,-1
 1160 1867 l 1,27,-1
 669 1022 l 1,12,-1
EndSplineSet
EndChar
StartChar: uni0123
Encoding: 291 291 228
Width: 1206
Flags: W
LayerCount: 2
Back
Fore
SplineSet
1040 82 m 2,0,1
 1040 -482 1040 -482 500 -482 c 0,2,3
 307 -482 307 -482 168 -410 c 1,4,-1
 168 -246 l 1,5,6
 342 -342 342 -342 498 -342 c 0,7,8
 876 -342 876 -342 876 60 c 2,9,-1
 876 172 l 1,10,-1
 872 172 l 1,11,12
 756 -24 756 -24 520 -24 c 0,13,14
 330 -24 330 -24 213 113.5 c 128,-1,15
 96 251 96 251 96 479 c 0,16,17
 96 740 96 740 221.5 894 c 128,-1,18
 347 1048 347 1048 565 1048 c 0,19,20
 774 1048 774 1048 872 882 c 1,21,-1
 876 882 l 1,22,-1
 876 1024 l 1,23,-1
 1040 1024 l 1,24,-1
 1040 82 l 2,0,1
876 463 m 2,25,-1
 876 614 l 2,26,27
 876 735 876 735 794 822.5 c 128,-1,28
 712 910 712 910 588 910 c 0,29,30
 434 910 434 910 349 799 c 128,-1,31
 264 688 264 688 264 490 c 0,32,33
 264 320 264 320 347 217 c 128,-1,34
 430 114 430 114 565 114 c 0,35,36
 704 114 704 114 790 211.5 c 128,-1,37
 876 309 876 309 876 463 c 2,25,-1
471 1218 m 1,38,-1
 637 1478 l 1,39,-1
 760 1478 l 1,40,-1
 643 1218 l 1,41,-1
 471 1218 l 1,38,-1
EndSplineSet
EndChar
StartChar: Hbar
Encoding: 294 294 231
Width: 1454
Flags: W
LayerCount: 2
Back
Fore
SplineSet
1266 0 m 1,0,-1
 1098 0 l 1,1,-1
 1098 654 l 1,2,-1
 356 654 l 1,3,-1
 356 0 l 1,4,-1
 188 0 l 1,5,-1
 188 1028 l 1,6,-1
 28 1028 l 1,7,-1
 28 1180 l 1,8,-1
 188 1180 l 1,9,-1
 188 1434 l 1,10,-1
 356 1434 l 1,11,-1
 356 1180 l 1,12,-1
 1098 1180 l 1,13,-1
 1098 1434 l 1,14,-1
 1266 1434 l 1,15,-1
 1266 1180 l 1,16,-1
 1426 1180 l 1,17,-1
 1426 1028 l 1,18,-1
 1266 1028 l 1,19,-1
 1266 0 l 1,0,-1
356 1028 m 1,20,-1
 356 805 l 1,21,-1
 1098 805 l 1,22,-1
 1098 1028 l 1,23,-1
 356 1028 l 1,20,-1
EndSplineSet
EndChar
StartChar: hbar
Encoding: 295 295 232
Width: 1159
Flags: W
LayerCount: 2
Back
Fore
SplineSet
1016 0 m 1,0,-1
 852 0 l 1,1,-1
 852 590 l 2,2,3
 852 910 852 910 614 910 c 0,4,5
 494 910 494 910 412 817.5 c 128,-1,6
 330 725 330 725 330 580 c 2,7,-1
 330 0 l 1,8,-1
 166 0 l 1,9,-1
 166 1202 l 1,10,-1
 30 1202 l 1,11,-1
 30 1336 l 1,12,-1
 166 1336 l 1,13,-1
 166 1516 l 1,14,-1
 330 1516 l 1,15,-1
 330 1336 l 1,16,-1
 662 1336 l 1,17,-1
 662 1202 l 1,18,-1
 330 1202 l 1,19,-1
 330 854 l 1,20,-1
 334 854 l 1,21,22
 454 1048 454 1048 670 1048 c 0,23,24
 838 1048 838 1048 927 941 c 128,-1,25
 1016 834 1016 834 1016 631 c 2,26,-1
 1016 0 l 1,0,-1
EndSplineSet
EndChar
StartChar: dotlessi
Encoding: 305 305 242
Width: 496
Flags: W
LayerCount: 2
Back
Fore
SplineSet
330 0 m 1,0,-1
 166 0 l 1,1,-1
 166 1024 l 1,2,-1
 330 1024 l 1,3,-1
 330 0 l 1,0,-1
EndSplineSet
EndChar
StartChar: uni0136
Encoding: 310 310 247
Width: 900
Flags: W
LayerCount: 2
Back
Fore
SplineSet
742 -119 m 1,0,-1
 576 -379 l 1,1,-1
 453 -379 l 1,2,-1
 570 -119 l 1,3,-1
 742 -119 l 1,0,-1
244 1032 m 1,4,-1
 719 729 l 1,5,-1
 827 697 l 1,6,-1
 785 761 l 1,7,-1
 360 1032 l 1,8,-1
 792 1336 l 1,9,-1
 835 1400 l 1,10,-1
 726 1368 l 1,11,-1
 244 1032 l 1,4,-1
262 2393.5 m 128,-1,13
 262 2460 262 2460 312 2507.5 c 128,-1,14
 362 2555 362 2555 434 2555 c 128,-1,15
 506 2555 506 2555 556 2507.5 c 128,-1,16
 606 2460 606 2460 606 2393.5 c 128,-1,17
 606 2327 606 2327 556 2280 c 128,-1,18
 506 2233 506 2233 434 2233 c 128,-1,19
 362 2233 362 2233 312 2280 c 128,-1,12
 262 2327 262 2327 262 2393.5 c 128,-1,13
3 1026 m 1,20,-1
 655 374 l 1,21,-1
 804 304 l 1,22,-1
 745 443 l 1,23,-1
 162 1026 l 1,24,-1
 745 1609 l 1,25,-1
 804 1747 l 1,26,-1
 655 1678 l 1,27,-1
 3 1026 l 1,20,-1
EndSplineSet
EndChar
StartChar: uni0137
Encoding: 311 311 248
Width: 900
Flags: W
LayerCount: 2
Back
Fore
SplineSet
643 -119 m 1,0,-1
 477 -379 l 1,1,-1
 354 -379 l 1,2,-1
 471 -119 l 1,3,-1
 643 -119 l 1,0,-1
244 1032 m 1,4,-1
 719 729 l 1,5,-1
 827 697 l 1,6,-1
 785 761 l 1,7,-1
 360 1032 l 1,8,-1
 792 1336 l 1,9,-1
 835 1400 l 1,10,-1
 726 1368 l 1,11,-1
 244 1032 l 1,4,-1
3 1026 m 1,12,-1
 655 374 l 1,13,-1
 804 304 l 1,14,-1
 745 443 l 1,15,-1
 162 1026 l 1,16,-1
 745 1609 l 1,17,-1
 804 1747 l 1,18,-1
 655 1678 l 1,19,-1
 3 1026 l 1,12,-1
EndSplineSet
EndChar
StartChar: kgreenlandic
Encoding: 312 312 249
Width: 1018
Flags: W
LayerCount: 2
Back
Fore
SplineSet
1016 0 m 1,0,-1
 786 0 l 1,1,-1
 334 492 l 1,2,-1
 330 492 l 1,3,-1
 330 0 l 1,4,-1
 166 0 l 1,5,-1
 166 1024 l 1,6,-1
 330 1024 l 1,7,-1
 330 555 l 1,8,-1
 334 555 l 1,9,-1
 764 1024 l 1,10,-1
 979 1024 l 1,11,-1
 504 530 l 1,12,-1
 1016 0 l 1,0,-1
EndSplineSet
EndChar
StartChar: Lcaron
Encoding: 317 317 254
Width: 1016
Flags: W
LayerCount: 2
Back
Fore
SplineSet
905 1434 m 1,0,-1
 739 1174 l 1,1,-1
 616 1174 l 1,2,-1
 733 1434 l 1,3,-1
 905 1434 l 1,0,-1
100 2401 m 128,-1,5
 100 2468 100 2468 150.5 2515 c 128,-1,6
 201 2562 201 2562 272 2562 c 128,-1,7
 343 2562 343 2562 393.5 2515 c 128,-1,8
 444 2468 444 2468 444 2401 c 128,-1,9
 444 2334 444 2334 393.5 2287 c 128,-1,10
 343 2240 343 2240 272 2240 c 128,-1,11
 201 2240 201 2240 150.5 2287 c 128,-1,4
 100 2334 100 2334 100 2401 c 128,-1,5
787 1355 m 1,12,-1
 864 1211 l 1,13,-1
 714 1267 l 1,14,-1
 208 1778 l 1,15,-1
 208 149 l 1,16,-1
 151 6 l 1,17,-1
 93 149 l 1,18,-1
 93 2051 l 1,19,-1
 787 1355 l 1,12,-1
EndSplineSet
EndChar
StartChar: lcaron
Encoding: 318 318 255
Width: 629
Flags: W
LayerCount: 2
Back
Fore
SplineSet
707 1510 m 1,0,-1
 541 1250 l 1,1,-1
 418 1250 l 1,2,-1
 535 1510 l 1,3,-1
 707 1510 l 1,0,-1
702 1349 m 1,4,-1
 780 1205 l 1,5,-1
 630 1261 l 1,6,-1
 124 1773 l 1,7,-1
 124 143 l 1,8,-1
 67 0 l 1,9,-1
 9 143 l 1,10,-1
 9 2045 l 1,11,-1
 702 1349 l 1,4,-1
EndSplineSet
EndChar
StartChar: Lslash
Encoding: 321 321 258
Width: 964
Flags: W
LayerCount: 2
Back
Fore
SplineSet
932 0 m 1,0,-1
 188 0 l 1,1,-1
 188 547 l 1,2,-1
 33 450 l 1,3,-1
 33 602 l 1,4,-1
 188 698 l 1,5,-1
 188 1434 l 1,6,-1
 356 1434 l 1,7,-1
 356 803 l 1,8,-1
 684 1006 l 1,9,-1
 684 852 l 1,10,-1
 356 652 l 1,11,-1
 356 152 l 1,12,-1
 932 152 l 1,13,-1
 932 0 l 1,0,-1
EndSplineSet
EndChar
StartChar: lslash
Encoding: 322 322 259
Width: 561
Flags: W
LayerCount: 2
Back
Fore
SplineSet
530 811 m 1,0,-1
 356 688 l 1,1,-1
 356 0 l 1,2,-1
 192 0 l 1,3,-1
 192 578 l 1,4,-1
 22 459 l 1,5,-1
 22 616 l 1,6,-1
 192 735 l 1,7,-1
 192 1516 l 1,8,-1
 356 1516 l 1,9,-1
 356 846 l 1,10,-1
 530 968 l 1,11,-1
 530 811 l 1,0,-1
EndSplineSet
EndChar
StartChar: uni0145
Encoding: 325 325 262
Width: 1129
Flags: W
LayerCount: 2
Back
Fore
SplineSet
870 -119 m 1,0,-1
 704 -379 l 1,1,-1
 581 -379 l 1,2,-1
 698 -119 l 1,3,-1
 870 -119 l 1,0,-1
364 2385 m 128,-1,5
 364 2452 364 2452 414.5 2499 c 128,-1,6
 465 2546 465 2546 536 2546 c 128,-1,7
 607 2546 607 2546 657.5 2499 c 128,-1,8
 708 2452 708 2452 708 2385 c 128,-1,9
 708 2318 708 2318 657.5 2271 c 128,-1,10
 607 2224 607 2224 536 2224 c 128,-1,11
 465 2224 465 2224 414.5 2271 c 128,-1,4
 364 2318 364 2318 364 2385 c 128,-1,5
588 881 m 1,12,-1
 587 151 l 1,13,-1
 528 4 l 1,14,-1
 469 151 l 1,15,-1
 469 999 l 1,16,-1
 115 1353 l 1,17,-1
 53 1499 l 1,18,-1
 199 1437 l 1,19,-1
 469 1166 l 1,20,-1
 469 1897 l 1,21,-1
 528 2044 l 1,22,-1
 588 1897 l 1,23,-1
 588 1048 l 1,24,-1
 941 694 l 1,25,-1
 1003 549 l 1,26,-1
 858 611 l 1,27,-1
 588 881 l 1,12,-1
EndSplineSet
EndChar
StartChar: uni0146
Encoding: 326 326 263
Width: 1059
Flags: W
LayerCount: 2
Back
Fore
SplineSet
693 -119 m 1,0,-1
 527 -379 l 1,1,-1
 404 -379 l 1,2,-1
 521 -119 l 1,3,-1
 693 -119 l 1,0,-1
427 1162 m 1,4,-1
 427 1892 l 1,5,-1
 486 2039 l 1,6,-1
 545 1892 l 1,7,-1
 545 1043 l 1,8,-1
 899 689 l 1,9,-1
 961 544 l 1,10,-1
 815 606 l 1,11,-1
 545 876 l 1,12,-1
 545 146 l 1,13,-1
 486 -1 l 1,14,-1
 427 146 l 1,15,-1
 427 995 l 1,16,-1
 73 1348 l 1,17,-1
 11 1494 l 1,18,-1
 157 1432 l 1,19,-1
 427 1162 l 1,4,-1
EndSplineSet
EndChar
StartChar: napostrophe
Encoding: 329 329 266
Width: 1241
Flags: W
LayerCount: 2
Back
Fore
SplineSet
217 1458 m 1,0,-1
 77 1012 l 1,1,-1
 -41 1012 l 1,2,-1
 70 1458 l 1,3,-1
 217 1458 l 1,0,-1
509 1162 m 1,4,-1
 509 1892 l 1,5,-1
 568 2039 l 1,6,-1
 627 1892 l 1,7,-1
 627 1043 l 1,8,-1
 981 689 l 1,9,-1
 1043 544 l 1,10,-1
 897 606 l 1,11,-1
 627 876 l 1,12,-1
 627 146 l 1,13,-1
 568 -1 l 1,14,-1
 509 146 l 1,15,-1
 509 995 l 1,16,-1
 155 1348 l 1,17,-1
 93 1494 l 1,18,-1
 239 1432 l 1,19,-1
 509 1162 l 1,4,-1
EndSplineSet
EndChar
StartChar: Eng
Encoding: 330 330 267
Width: 1532
Flags: W
LayerCount: 2
Back
Fore
SplineSet
400 1143 m 2,0,1
 378 1175 378 1175 354 1233 c 1,2,-1
 348 1233 l 1,3,4
 356 1180 356 1180 356 1036 c 2,5,-1
 356 0 l 1,6,-1
 188 0 l 1,7,-1
 188 1434 l 1,8,-1
 406 1434 l 1,9,-1
 1124 368 l 2,10,11
 1126 366 1126 366 1182 264 c 1,12,-1
 1186 264 l 1,13,14
 1176 336 1176 336 1176 484 c 2,15,-1
 1176 1434 l 1,16,-1
 1344 1434 l 1,17,-1
 1344 64 l 2,18,19
 1344 -422 1344 -422 979 -422 c 0,20,21
 903 -422 903 -422 842 -391 c 1,22,-1
 842 -226 l 1,23,24
 920 -270 920 -270 983 -270 c 0,25,26
 1172 -270 1172 -270 1172 0 c 1,27,-1
 400 1143 l 2,0,1
EndSplineSet
EndChar
StartChar: eng
Encoding: 331 331 268
Width: 1159
Flags: W
LayerCount: 2
Back
Fore
SplineSet
1016 26 m 2,0,1
 1016 -422 1016 -422 658 -422 c 0,2,3
 582 -422 582 -422 520 -391 c 1,4,-1
 520 -226 l 1,5,6
 598 -270 598 -270 662 -270 c 0,7,8
 852 -270 852 -270 852 0 c 2,9,-1
 852 584 l 2,10,11
 852 910 852 910 614 910 c 0,12,13
 492 910 492 910 411 817.5 c 128,-1,14
 330 725 330 725 330 584 c 2,15,-1
 330 0 l 1,16,-1
 166 0 l 1,17,-1
 166 1024 l 1,18,-1
 330 1024 l 1,19,-1
 330 854 l 1,20,-1
 334 854 l 1,21,22
 451 1048 451 1048 670 1048 c 0,23,24
 1016 1048 1016 1048 1016 626 c 2,25,-1
 1016 26 l 2,0,1
EndSplineSet
EndChar
StartChar: OE
Encoding: 338 338 275
Width: 1906
Flags: W
LayerCount: 2
Back
Fore
SplineSet
1810 0 m 1,0,-1
 1090 0 l 2,1,2
 1074 0 1074 0 952 -14 c 0,3,4
 854 -24 854 -24 770 -24 c 0,5,6
 458 -24 458 -24 276 177 c 128,-1,7
 94 378 94 378 94 700 c 0,8,9
 94 1046 94 1046 283.5 1252 c 128,-1,10
 473 1458 473 1458 798 1458 c 0,11,12
 888 1458 888 1458 976 1448 c 0,13,14
 1088 1434 1088 1434 1090 1434 c 2,15,-1
 1778 1434 l 1,16,-1
 1778 1282 l 1,17,-1
 1218 1282 l 1,18,-1
 1218 805 l 1,19,-1
 1736 805 l 1,20,-1
 1736 654 l 1,21,-1
 1218 654 l 1,22,-1
 1218 152 l 1,23,-1
 1810 152 l 1,24,-1
 1810 0 l 1,0,-1
1050 160 m 1,25,-1
 1050 1278 l 1,26,27
 890 1306 890 1306 782 1306 c 0,28,29
 553 1306 553 1306 411.5 1140 c 128,-1,30
 270 974 270 974 270 715 c 0,31,32
 270 457 270 457 409.5 292 c 128,-1,33
 549 127 549 127 776 127 c 0,34,35
 892 127 892 127 1050 160 c 1,25,-1
EndSplineSet
EndChar
StartChar: oe
Encoding: 339 339 276
Width: 1900
Flags: W
LayerCount: 2
Back
Fore
SplineSet
1825 471 m 1,0,-1
 1100 471 l 1,1,2
 1103 300 1103 300 1191.5 207 c 128,-1,3
 1280 114 1280 114 1434 114 c 0,4,5
 1609 114 1609 114 1753 228 c 1,6,-1
 1753 74 l 1,7,8
 1617 -24 1617 -24 1396 -24 c 0,9,10
 1126 -24 1126 -24 1014 213 c 1,11,-1
 1010 213 l 1,12,13
 879 -24 879 -24 594 -24 c 0,14,15
 365 -24 365 -24 230.5 119 c 128,-1,16
 96 262 96 262 96 498 c 0,17,18
 96 756 96 756 238 902 c 128,-1,19
 380 1048 380 1048 620 1048 c 0,20,21
 914 1048 914 1048 1022 813 c 1,22,-1
 1026 813 l 1,23,24
 1145 1048 1145 1048 1411 1048 c 0,25,26
 1607 1048 1607 1048 1716 916.5 c 128,-1,27
 1825 785 1825 785 1825 559 c 2,28,-1
 1825 471 l 1,0,-1
1657 610 m 1,29,30
 1655 752 1655 752 1588 831 c 128,-1,31
 1521 910 1521 910 1405 910 c 0,32,33
 1285 910 1285 910 1201.5 824.5 c 128,-1,34
 1118 739 1118 739 1102 610 c 1,35,-1
 1657 610 l 1,29,30
606 910 m 0,36,37
 448 910 448 910 356 801.5 c 128,-1,38
 264 693 264 693 264 502 c 0,39,40
 264 322 264 322 356 218 c 128,-1,41
 448 114 448 114 604 114 c 0,42,43
 763 114 763 114 849.5 216.5 c 128,-1,44
 936 319 936 319 936 508 c 0,45,46
 936 702 936 702 849.5 806 c 128,-1,47
 763 910 763 910 606 910 c 0,36,37
EndSplineSet
EndChar
StartChar: uni0156
Encoding: 342 342 279
Width: 857
Flags: W
LayerCount: 2
Back
Fore
SplineSet
736 -119 m 1,0,-1
 570 -379 l 1,1,-1
 447 -379 l 1,2,-1
 564 -119 l 1,3,-1
 736 -119 l 1,0,-1
157 2394 m 128,-1,5
 157 2461 157 2461 207.5 2508 c 128,-1,6
 258 2555 258 2555 329 2555 c 128,-1,7
 400 2555 400 2555 450.5 2508 c 128,-1,8
 501 2461 501 2461 501 2394 c 128,-1,9
 501 2327 501 2327 450.5 2280 c 128,-1,10
 400 2233 400 2233 329 2233 c 128,-1,11
 258 2233 258 2233 207.5 2280 c 128,-1,4
 157 2327 157 2327 157 2394 c 128,-1,5
145 878 m 1,12,-1
 145 168 l 1,13,-1
 88 26 l 1,14,-1
 30 168 l 1,15,-1
 30 2081 l 1,16,-1
 633 1485 l 1,17,-1
 164 1013 l 1,18,-1
 714 459 l 1,19,-1
 791 315 l 1,20,-1
 637 382 l 1,21,-1
 145 878 l 1,12,-1
479 1485 m 1,22,-1
 145 1822 l 1,23,-1
 145 1149 l 1,24,-1
 479 1485 l 1,22,-1
EndSplineSet
EndChar
StartChar: uni0157
Encoding: 343 343 280
Width: 857
Flags: W
LayerCount: 2
Back
Fore
SplineSet
533 -119 m 1,0,-1
 367 -379 l 1,1,-1
 244 -379 l 1,2,-1
 361 -119 l 1,3,-1
 533 -119 l 1,0,-1
123 852 m 1,4,-1
 123 143 l 1,5,-1
 66 0 l 1,6,-1
 9 143 l 1,7,-1
 8 2055 l 1,8,-1
 612 1459 l 1,9,-1
 143 987 l 1,10,-1
 692 434 l 1,11,-1
 769 289 l 1,12,-1
 616 357 l 1,13,-1
 123 852 l 1,4,-1
458 1459 m 1,14,-1
 123 1796 l 1,15,-1
 123 1123 l 1,16,-1
 458 1459 l 1,14,-1
EndSplineSet
EndChar
StartChar: tcaron
Encoding: 357 357 294
Width: 901
Flags: W
LayerCount: 2
Back
Fore
SplineSet
641 10 m 1,0,1
 583 -22 583 -22 488 -22 c 0,2,3
 219 -22 219 -22 219 278 c 2,4,-1
 219 884 l 1,5,-1
 43 884 l 1,6,-1
 43 1024 l 1,7,-1
 219 1024 l 1,8,-1
 219 1274 l 1,9,-1
 383 1327 l 1,10,-1
 383 1024 l 1,11,-1
 641 1024 l 1,12,-1
 641 884 l 1,13,-1
 383 884 l 1,14,-1
 383 307 l 2,15,16
 383 204 383 204 418 160 c 128,-1,17
 453 116 453 116 534 116 c 0,18,19
 596 116 596 116 641 150 c 1,20,-1
 641 10 l 1,0,1
979 1394 m 1,21,-1
 813 1134 l 1,22,-1
 690 1134 l 1,23,-1
 807 1394 l 1,24,-1
 979 1394 l 1,21,-1
EndSplineSet
EndChar
StartChar: Tbar
Encoding: 358 358 295
Width: 1073
Flags: W
LayerCount: 2
Back
Fore
SplineSet
1036 1282 m 1,0,-1
 622 1282 l 1,1,-1
 622 796 l 1,2,-1
 868 796 l 1,3,-1
 868 641 l 1,4,-1
 622 641 l 1,5,-1
 622 0 l 1,6,-1
 454 0 l 1,7,-1
 454 641 l 1,8,-1
 205 641 l 1,9,-1
 205 796 l 1,10,-1
 454 796 l 1,11,-1
 454 1282 l 1,12,-1
 41 1282 l 1,13,-1
 41 1434 l 1,14,-1
 1036 1434 l 1,15,-1
 1036 1282 l 1,0,-1
EndSplineSet
EndChar
StartChar: tbar
Encoding: 359 359 296
Width: 694
Flags: W
LayerCount: 2
Back
Fore
SplineSet
631 547 m 1,0,-1
 383 547 l 1,1,-1
 383 307 l 2,2,3
 383 204 383 204 417.5 160 c 128,-1,4
 452 116 452 116 534 116 c 0,5,6
 594 116 594 116 641 150 c 1,7,-1
 641 10 l 1,8,9
 583 -22 583 -22 488 -22 c 0,10,11
 219 -22 219 -22 219 278 c 2,12,-1
 219 547 l 1,13,-1
 56 547 l 1,14,-1
 56 680 l 1,15,-1
 219 680 l 1,16,-1
 219 884 l 1,17,-1
 43 884 l 1,18,-1
 43 1024 l 1,19,-1
 219 1024 l 1,20,-1
 219 1274 l 1,21,22
 223 1276 223 1276 301 1301 c 2,23,-1
 383 1327 l 1,24,-1
 383 1024 l 1,25,-1
 641 1024 l 1,26,-1
 641 884 l 1,27,-1
 383 884 l 1,28,-1
 383 680 l 1,29,-1
 631 680 l 1,30,-1
 631 547 l 1,0,-1
EndSplineSet
EndChar
StartChar: longs
Encoding: 383 383 320
Width: 494
Flags: W
LayerCount: 2
Back
Fore
SplineSet
610 1372 m 1,0,1
 564 1399 564 1399 502 1399 c 0,2,3
 330 1399 330 1399 330 1182 c 2,4,-1
 330 0 l 1,5,-1
 166 0 l 1,6,-1
 166 1190 l 2,7,8
 166 1351 166 1351 260.5 1444.5 c 128,-1,9
 355 1538 355 1538 492 1538 c 0,10,11
 566 1538 566 1538 610 1520 c 1,12,-1
 610 1372 l 1,0,1
EndSplineSet
EndChar
StartChar: uni0181
Encoding: 385 385 322
Width: 1256
Flags: W
LayerCount: 2
Back
Fore
SplineSet
270 0 m 1,0,-1
 270 1282 l 1,1,-1
 246 1282 l 2,2,3
 165 1282 165 1282 120.5 1235.5 c 128,-1,4
 76 1189 76 1189 76 1112 c 0,5,6
 76 1057 76 1057 96 1006 c 1,7,-1
 -62 1006 l 1,8,9
 -84 1062 -84 1062 -84 1128 c 0,10,11
 -84 1260 -84 1260 13.5 1347 c 128,-1,12
 111 1434 111 1434 272 1434 c 2,13,-1
 678 1434 l 2,14,15
 864 1434 864 1434 973 1343 c 128,-1,16
 1082 1252 1082 1252 1082 1106 c 0,17,18
 1082 984 1082 984 1016 894 c 128,-1,19
 950 804 950 804 834 766 c 1,20,-1
 834 762 l 1,21,22
 979 745 979 745 1066 652.5 c 128,-1,23
 1153 560 1153 560 1153 412 c 0,24,25
 1153 228 1153 228 1021 114 c 128,-1,26
 889 0 889 0 688 0 c 2,27,-1
 270 0 l 1,0,-1
438 1282 m 1,28,-1
 438 819 l 1,29,-1
 610 819 l 2,30,31
 748 819 748 819 826.5 885.5 c 128,-1,32
 905 952 905 952 905 1073 c 0,33,34
 905 1282 905 1282 631 1282 c 2,35,-1
 438 1282 l 1,28,-1
438 668 m 1,36,-1
 438 152 l 1,37,-1
 666 152 l 2,38,39
 814 152 814 152 895.5 222 c 128,-1,40
 977 292 977 292 977 414 c 0,41,42
 977 668 977 668 631 668 c 2,43,-1
 438 668 l 1,36,-1
EndSplineSet
EndChar
StartChar: uni0182
Encoding: 386 386 323
Width: 1171
Flags: W
LayerCount: 2
Back
Fore
SplineSet
188 0 m 1,0,-1
 188 1434 l 1,1,-1
 954 1434 l 1,2,-1
 954 1282 l 1,3,-1
 356 1282 l 1,4,-1
 356 826 l 1,5,-1
 628 826 l 2,6,7
 842 826 842 826 961 722.5 c 128,-1,8
 1080 619 1080 619 1080 428 c 0,9,10
 1080 230 1080 230 955 115 c 128,-1,11
 830 0 830 0 614 0 c 2,12,-1
 188 0 l 1,0,-1
356 674 m 1,13,-1
 356 152 l 1,14,-1
 592 152 l 2,15,16
 741 152 741 152 822 222 c 128,-1,17
 903 292 903 292 903 418 c 0,18,19
 903 674 903 674 592 674 c 2,20,-1
 356 674 l 1,13,-1
EndSplineSet
EndChar
StartChar: uni0183
Encoding: 387 387 324
Width: 1204
Flags: W
LayerCount: 2
Back
Fore
SplineSet
332 148 m 1,0,-1
 328 148 l 1,1,-1
 328 0 l 1,2,-1
 166 0 l 1,3,-1
 166 1516 l 1,4,-1
 971 1516 l 1,5,-1
 971 1376 l 1,6,-1
 328 1376 l 1,7,-1
 328 844 l 1,8,-1
 332 844 l 1,9,10
 453 1048 453 1048 686 1048 c 0,11,12
 883 1048 883 1048 995.5 911.5 c 128,-1,13
 1108 775 1108 775 1108 542 c 0,14,15
 1108 286 1108 286 982.5 131 c 128,-1,16
 857 -24 857 -24 639 -24 c 0,17,18
 440 -24 440 -24 332 148 c 1,0,-1
328 561 m 2,19,-1
 328 418 l 2,20,21
 328 291 328 291 410 202.5 c 128,-1,22
 492 114 492 114 620 114 c 0,23,24
 768 114 768 114 854 226.5 c 128,-1,25
 940 339 940 339 940 536 c 0,26,27
 940 711 940 711 861 810.5 c 128,-1,28
 782 910 782 910 645 910 c 0,29,30
 502 910 502 910 415 810.5 c 128,-1,31
 328 711 328 711 328 561 c 2,19,-1
EndSplineSet
EndChar
StartChar: uni0184
Encoding: 388 388 325
Width: 1182
Flags: W
LayerCount: 2
Back
Fore
SplineSet
188 0 m 1,0,-1
 188 1153 l 1,1,-1
 51 1272 l 1,2,-1
 51 1294 l 1,3,-1
 334 1458 l 1,4,-1
 356 1458 l 1,5,-1
 356 824 l 1,6,-1
 628 824 l 2,7,8
 842 824 842 824 961 721.5 c 128,-1,9
 1080 619 1080 619 1080 428 c 0,10,11
 1080 230 1080 230 955 115 c 128,-1,12
 830 0 830 0 614 0 c 2,13,-1
 188 0 l 1,0,-1
356 676 m 1,14,-1
 356 150 l 1,15,-1
 592 150 l 2,16,17
 741 150 741 150 821 221 c 128,-1,18
 901 292 901 292 901 418 c 0,19,20
 901 676 901 676 592 676 c 2,21,-1
 356 676 l 1,14,-1
EndSplineSet
EndChar
StartChar: uni0185
Encoding: 389 389 326
Width: 1204
Flags: W
LayerCount: 2
Back
Fore
SplineSet
332 148 m 1,0,-1
 328 148 l 1,1,-1
 328 0 l 1,2,-1
 166 0 l 1,3,-1
 166 1218 l 1,4,-1
 33 1333 l 1,5,-1
 33 1356 l 1,6,-1
 305 1516 l 1,7,-1
 328 1516 l 1,8,-1
 328 844 l 1,9,-1
 332 844 l 1,10,11
 453 1048 453 1048 686 1048 c 0,12,13
 883 1048 883 1048 995.5 911.5 c 128,-1,14
 1108 775 1108 775 1108 542 c 0,15,16
 1108 286 1108 286 982.5 131 c 128,-1,17
 857 -24 857 -24 639 -24 c 0,18,19
 440 -24 440 -24 332 148 c 1,0,-1
328 561 m 2,20,-1
 328 418 l 2,21,22
 328 291 328 291 410 202.5 c 128,-1,23
 492 114 492 114 620 114 c 0,24,25
 768 114 768 114 854 226.5 c 128,-1,26
 940 339 940 339 940 536 c 0,27,28
 940 711 940 711 861 810.5 c 128,-1,29
 782 910 782 910 645 910 c 0,30,31
 502 910 502 910 415 810.5 c 128,-1,32
 328 711 328 711 328 561 c 2,20,-1
EndSplineSet
EndChar
StartChar: uni0186
Encoding: 390 390 327
Width: 1270
Flags: W
LayerCount: 2
Back
Fore
SplineSet
106 35 m 1,0,-1
 106 213 l 1,1,2
 260 127 260 127 446 127 c 0,3,4
 692 127 692 127 846 292.5 c 128,-1,5
 1000 458 1000 458 1000 733 c 0,6,7
 1000 996 1000 996 856.5 1151 c 128,-1,8
 713 1306 713 1306 479 1306 c 0,9,10
 263 1306 263 1306 106 1210 c 1,11,-1
 106 1374 l 1,12,13
 265 1458 265 1458 502 1458 c 0,14,15
 807 1458 807 1458 991.5 1261 c 128,-1,16
 1176 1064 1176 1064 1176 744 c 0,17,18
 1176 400 1176 400 970 188 c 128,-1,19
 764 -24 764 -24 444 -24 c 0,20,21
 240 -24 240 -24 106 35 c 1,0,-1
EndSplineSet
EndChar
StartChar: uni0187
Encoding: 391 391 328
Width: 1270
Flags: W
LayerCount: 2
Back
Fore
SplineSet
1346 1508 m 1,0,1
 1304 1528 1304 1528 1268 1528 c 0,2,3
 1155 1528 1155 1528 1155 1370 c 0,4,5
 1155 1310 1155 1310 1170 1222 c 1,6,-1
 1161 1216 l 1,7,8
 996 1306 996 1306 813 1306 c 0,9,10
 572 1306 572 1306 421 1140.5 c 128,-1,11
 270 975 270 975 270 700 c 0,12,13
 270 438 270 438 413.5 282.5 c 128,-1,14
 557 127 557 127 790 127 c 0,15,16
 1006 127 1006 127 1164 223 c 1,17,-1
 1164 60 l 1,18,19
 1005 -24 1005 -24 768 -24 c 0,20,21
 462 -24 462 -24 278 173 c 128,-1,22
 94 370 94 370 94 690 c 0,23,24
 94 1033 94 1033 300 1245.5 c 128,-1,25
 506 1458 506 1458 824 1458 c 0,26,27
 916 1458 916 1458 1010 1434 c 1,28,29
 1013 1529 1013 1529 1079.5 1598 c 128,-1,30
 1146 1667 1146 1667 1250 1667 c 0,31,32
 1298 1667 1298 1667 1346 1648 c 1,33,-1
 1346 1508 l 1,0,1
EndSplineSet
EndChar
StartChar: uni0188
Encoding: 392 392 329
Width: 954
Flags: W
LayerCount: 2
Back
Fore
SplineSet
1038 1090 m 1,0,1
 1003 1108 1003 1108 971 1108 c 0,2,3
 870 1108 870 1108 870 966 c 0,4,5
 870 882 870 882 878 836 c 1,6,-1
 872 832 l 1,7,8
 725 910 725 910 600 910 c 0,9,10
 451 910 451 910 357.5 798.5 c 128,-1,11
 264 687 264 687 264 502 c 0,12,13
 264 322 264 322 358.5 218 c 128,-1,14
 453 114 453 114 612 114 c 0,15,16
 746 114 746 114 864 203 c 1,17,-1
 864 47 l 1,18,19
 746 -24 746 -24 584 -24 c 0,20,21
 363 -24 363 -24 229.5 119.5 c 128,-1,22
 96 263 96 263 96 492 c 0,23,24
 96 731 96 731 237 889.5 c 128,-1,25
 378 1048 378 1048 602 1048 c 0,26,27
 677 1048 677 1048 742 1028 c 1,28,29
 744 1115 744 1115 803.5 1176 c 128,-1,30
 863 1237 863 1237 952 1237 c 0,31,32
 992 1237 992 1237 1038 1218 c 1,33,-1
 1038 1090 l 1,0,1
EndSplineSet
EndChar
StartChar: uni018A
Encoding: 394 394 331
Width: 1518
Flags: W
LayerCount: 2
Back
Fore
SplineSet
270 0 m 1,0,-1
 270 1282 l 1,1,-1
 246 1282 l 2,2,3
 165 1282 165 1282 120.5 1235.5 c 128,-1,4
 76 1189 76 1189 76 1112 c 0,5,6
 76 1057 76 1057 96 1006 c 1,7,-1
 -62 1006 l 1,8,9
 -84 1062 -84 1062 -84 1128 c 0,10,11
 -84 1260 -84 1260 13.5 1347 c 128,-1,12
 111 1434 111 1434 272 1434 c 2,13,-1
 666 1434 l 2,14,15
 1424 1434 1424 1434 1424 735 c 0,16,17
 1424 403 1424 403 1213.5 201.5 c 128,-1,18
 1003 0 1003 0 649 0 c 2,19,-1
 270 0 l 1,0,-1
438 1282 m 1,20,-1
 438 152 l 1,21,-1
 652 152 l 2,22,23
 934 152 934 152 1090.5 303 c 128,-1,24
 1247 454 1247 454 1247 731 c 0,25,26
 1247 1282 1247 1282 662 1282 c 2,27,-1
 438 1282 l 1,20,-1
EndSplineSet
EndChar
StartChar: uni018B
Encoding: 395 395 332
Width: 1172
Flags: W
LayerCount: 2
Back
Fore
SplineSet
983 0 m 1,0,-1
 563 0 l 2,1,2
 334 0 334 0 213 103 c 128,-1,3
 92 206 92 206 92 400 c 256,4,5
 92 594 92 594 225 709 c 128,-1,6
 358 824 358 824 582 824 c 2,7,-1
 815 824 l 1,8,-1
 815 1280 l 1,9,-1
 217 1280 l 1,10,-1
 217 1434 l 1,11,-1
 983 1434 l 1,12,-1
 983 0 l 1,0,-1
815 148 m 1,13,-1
 815 674 l 1,14,-1
 584 674 l 2,15,16
 270 674 270 674 270 406 c 0,17,18
 270 148 270 148 580 148 c 2,19,-1
 815 148 l 1,13,-1
EndSplineSet
EndChar
StartChar: uni018C
Encoding: 396 396 333
Width: 1204
Flags: W
LayerCount: 2
Back
Fore
SplineSet
1038 0 m 1,0,-1
 876 0 l 1,1,-1
 876 174 l 1,2,-1
 872 174 l 1,3,4
 758 -24 758 -24 520 -24 c 0,5,6
 327 -24 327 -24 211.5 113.5 c 128,-1,7
 96 251 96 251 96 488 c 0,8,9
 96 742 96 742 224 895 c 128,-1,10
 352 1048 352 1048 565 1048 c 0,11,12
 776 1048 776 1048 872 882 c 1,13,-1
 876 882 l 1,14,-1
 876 1376 l 1,15,-1
 234 1376 l 1,16,-1
 234 1516 l 1,17,-1
 1038 1516 l 1,18,-1
 1038 0 l 1,0,-1
876 463 m 2,19,-1
 876 614 l 2,20,21
 876 738 876 738 794 824 c 128,-1,22
 712 910 712 910 586 910 c 0,23,24
 436 910 436 910 350 800 c 128,-1,25
 264 690 264 690 264 496 c 0,26,27
 264 319 264 319 346.5 216.5 c 128,-1,28
 429 114 429 114 568 114 c 0,29,30
 705 114 705 114 790.5 213 c 128,-1,31
 876 312 876 312 876 463 c 2,19,-1
EndSplineSet
EndChar
StartChar: uni018D
Encoding: 397 397 334
Width: 1212
Flags: W
LayerCount: 2
Back
Fore
SplineSet
733 72 m 1,0,1
 856 -11 856 -11 899 -74 c 128,-1,2
 942 -137 942 -137 942 -217 c 0,3,4
 942 -330 942 -330 833.5 -406 c 128,-1,5
 725 -482 725 -482 553 -482 c 0,6,7
 380 -482 380 -482 236 -406 c 1,8,-1
 236 -234 l 1,9,10
 386 -342 386 -342 557 -342 c 0,11,12
 774 -342 774 -342 774 -215 c 0,13,14
 774 -163 774 -163 730 -116.5 c 128,-1,15
 686 -70 686 -70 486 49 c 0,16,17
 275 175 275 175 185.5 298.5 c 128,-1,18
 96 422 96 422 96 568 c 0,19,20
 96 775 96 775 241 911.5 c 128,-1,21
 386 1048 386 1048 614 1048 c 0,22,23
 837 1048 837 1048 976.5 918 c 128,-1,24
 1116 788 1116 788 1116 592 c 0,25,26
 1116 297 1116 297 733 72 c 1,0,1
604 154 m 1,27,28
 802 265 802 265 875 366 c 128,-1,29
 948 467 948 467 948 582 c 0,30,31
 948 732 948 732 855 821 c 128,-1,32
 762 910 762 910 606 910 c 0,33,34
 452 910 452 910 358 820.5 c 128,-1,35
 264 731 264 731 264 582 c 0,36,37
 264 472 264 472 328.5 377 c 128,-1,38
 393 282 393 282 604 154 c 1,27,28
EndSplineSet
EndChar
StartChar: uni018E
Encoding: 398 398 335
Width: 1038
Flags: W
LayerCount: 2
Back
Fore
SplineSet
850 0 m 1,0,-1
 90 0 l 1,1,-1
 90 152 l 1,2,-1
 682 152 l 1,3,-1
 682 641 l 1,4,-1
 164 641 l 1,5,-1
 164 792 l 1,6,-1
 682 792 l 1,7,-1
 682 1282 l 1,8,-1
 123 1282 l 1,9,-1
 123 1434 l 1,10,-1
 850 1434 l 1,11,-1
 850 0 l 1,0,-1
EndSplineSet
EndChar
StartChar: uni018F
Encoding: 399 399 336
Width: 1476
Flags: W
LayerCount: 2
Back
Fore
SplineSet
86 794 m 1,0,-1
 1204 794 l 1,1,2
 1187 1031 1187 1031 1045.5 1168.5 c 128,-1,3
 904 1306 904 1306 686 1306 c 0,4,5
 470 1306 470 1306 314 1210 c 1,6,-1
 314 1374 l 1,7,8
 472 1458 472 1458 698 1458 c 0,9,10
 1017 1458 1017 1458 1199.5 1261 c 128,-1,11
 1382 1064 1382 1064 1382 717 c 0,12,13
 1382 395 1382 395 1200 185.5 c 128,-1,14
 1018 -24 1018 -24 717 -24 c 0,15,16
 414 -24 414 -24 250 183.5 c 128,-1,17
 86 391 86 391 86 794 c 1,0,-1
1204 643 m 1,18,-1
 266 643 l 1,19,20
 270 408 270 408 391 267.5 c 128,-1,21
 512 127 512 127 719 127 c 256,22,23
 926 127 926 127 1055 267 c 128,-1,24
 1184 407 1184 407 1204 643 c 1,18,-1
EndSplineSet
EndChar
StartChar: uni0190
Encoding: 400 400 337
Width: 1108
Flags: W
LayerCount: 2
Back
Fore
SplineSet
1012 53 m 1,0,1
 846 -24 846 -24 639 -24 c 0,2,3
 394 -24 394 -24 253 86.5 c 128,-1,4
 112 197 112 197 112 381 c 0,5,6
 112 514 112 514 193 612 c 128,-1,7
 274 710 274 710 418 748 c 1,8,-1
 418 754 l 1,9,10
 162 834 162 834 162 1071 c 0,11,12
 162 1238 162 1238 298.5 1348 c 128,-1,13
 435 1458 435 1458 652 1458 c 0,14,15
 830 1458 830 1458 975 1388 c 1,16,-1
 975 1218 l 1,17,18
 822 1306 822 1306 647 1306 c 0,19,20
 506 1306 506 1306 421 1243 c 128,-1,21
 336 1180 336 1180 336 1073 c 0,22,23
 336 961 336 961 437.5 888 c 128,-1,24
 539 815 539 815 710 815 c 2,25,-1
 815 815 l 1,26,-1
 815 664 l 1,27,-1
 708 664 l 2,28,29
 289 664 289 664 289 393 c 0,30,31
 289 268 289 268 384.5 197.5 c 128,-1,32
 480 127 480 127 645 127 c 0,33,34
 845 127 845 127 1012 219 c 1,35,-1
 1012 53 l 1,0,1
EndSplineSet
EndChar
StartChar: uni0191
Encoding: 401 401 338
Width: 1000
Flags: W
LayerCount: 2
Back
Fore
SplineSet
916 1282 m 1,0,-1
 356 1282 l 1,1,-1
 356 786 l 1,2,-1
 874 786 l 1,3,-1
 874 635 l 1,4,-1
 356 635 l 1,5,-1
 356 53 l 2,6,7
 356 -362 356 -362 18 -362 c 0,8,9
 -47 -362 -47 -362 -102 -342 c 1,10,-1
 -102 -182 l 1,11,12
 -52 -211 -52 -211 10 -211 c 0,13,14
 188 -211 188 -211 188 53 c 2,15,-1
 188 1434 l 1,16,-1
 916 1434 l 1,17,-1
 916 1282 l 1,0,-1
EndSplineSet
EndChar
StartChar: florin
Encoding: 402 402 339
Width: 1104
Flags: W
LayerCount: 2
Back
Fore
SplineSet
952 1266 m 1,0,1
 904 1294 904 1294 844 1294 c 0,2,3
 698 1294 698 1294 674 1134 c 2,4,-1
 643 926 l 1,5,-1
 809 926 l 1,6,-1
 809 788 l 1,7,-1
 622 788 l 1,8,-1
 532 140 l 2,9,10
 474 -278 474 -278 184 -278 c 0,11,12
 153 -278 153 -278 94 -262 c 1,13,-1
 94 -119 l 1,14,15
 130 -140 130 -140 180 -140 c 0,16,17
 330 -140 330 -140 370 152 c 2,18,-1
 461 788 l 1,19,-1
 358 788 l 1,20,-1
 358 926 l 1,21,-1
 482 926 l 1,22,-1
 510 1145 l 2,23,24
 527 1276 527 1276 614.5 1355 c 128,-1,25
 702 1434 702 1434 836 1434 c 0,26,27
 900 1434 900 1434 952 1415 c 1,28,-1
 952 1266 l 1,0,1
EndSplineSet
EndChar
StartChar: uni0193
Encoding: 403 403 340
Width: 1417
Flags: W
LayerCount: 2
Back
Fore
SplineSet
1413 1508 m 1,0,1
 1372 1528 1372 1528 1336 1528 c 0,2,3
 1222 1528 1222 1528 1222 1360 c 0,4,5
 1222 1288 1222 1288 1237 1204 c 1,6,-1
 1229 1198 l 1,7,8
 1038 1306 1038 1306 828 1306 c 0,9,10
 582 1306 582 1306 426 1141 c 128,-1,11
 270 976 270 976 270 710 c 0,12,13
 270 438 270 438 413 282.5 c 128,-1,14
 556 127 556 127 801 127 c 0,15,16
 969 127 969 127 1092 194 c 1,17,-1
 1092 596 l 1,18,-1
 778 596 l 1,19,-1
 778 748 l 1,20,-1
 1262 748 l 1,21,-1
 1262 98 l 1,22,23
 1046 -24 1046 -24 780 -24 c 0,24,25
 473 -24 473 -24 283.5 174 c 128,-1,26
 94 372 94 372 94 698 c 0,27,28
 94 1031 94 1031 304.5 1244.5 c 128,-1,29
 515 1458 515 1458 838 1458 c 0,30,31
 959 1458 959 1458 1077 1424 c 1,32,33
 1080 1524 1080 1524 1147 1595.5 c 128,-1,34
 1214 1667 1214 1667 1317 1667 c 0,35,36
 1365 1667 1365 1667 1413 1648 c 1,37,-1
 1413 1508 l 1,0,1
EndSplineSet
EndChar
StartChar: uni0194
Encoding: 404 404 341
Width: 1272
Flags: W
LayerCount: 2
Back
Fore
SplineSet
1254 1434 m 1,0,-1
 740 98 l 1,1,-1
 746 86 l 2,2,3
 860 -142 860 -142 860 -252 c 0,4,5
 860 -349 860 -349 791.5 -415.5 c 128,-1,6
 723 -482 723 -482 624 -482 c 0,7,8
 528 -482 528 -482 463 -417 c 128,-1,9
 398 -352 398 -352 398 -252 c 0,10,11
 398 -191 398 -191 418.5 -132.5 c 128,-1,12
 439 -74 439 -74 516 80 c 2,13,-1
 524 96 l 1,14,-1
 18 1434 l 1,15,-1
 205 1434 l 1,16,-1
 602 342 l 2,17,18
 623 284 623 284 631 230 c 1,19,-1
 635 230 l 1,20,21
 648 287 648 287 668 342 c 2,22,-1
 1073 1434 l 1,23,-1
 1254 1434 l 1,0,-1
628 -39 m 1,24,25
 561 -180 561 -180 561 -248 c 0,26,27
 561 -336 561 -336 628 -336 c 0,28,29
 696 -336 696 -336 696 -248 c 0,30,31
 696 -180 696 -180 628 -39 c 1,24,25
EndSplineSet
EndChar
StartChar: uni0195
Encoding: 405 405 342
Width: 1790
Flags: W
LayerCount: 2
Back
Fore
SplineSet
330 0 m 1,0,-1
 166 0 l 1,1,-1
 166 1516 l 1,2,-1
 330 1516 l 1,3,-1
 330 862 l 1,4,-1
 334 862 l 1,5,6
 432 1048 432 1048 635 1048 c 0,7,8
 971 1048 971 1048 971 631 c 2,9,-1
 971 461 l 2,10,11
 971 119 971 119 1218 119 c 0,12,13
 1350 119 1350 119 1429 216 c 128,-1,14
 1508 313 1508 313 1508 477 c 0,15,16
 1508 758 1508 758 1364 1024 c 1,17,-1
 1542 1024 l 1,18,19
 1671 758 1671 758 1671 484 c 0,20,21
 1671 255 1671 255 1544 115.5 c 128,-1,22
 1417 -24 1417 -24 1214 -24 c 0,23,24
 807 -24 807 -24 807 450 c 2,25,-1
 807 588 l 2,26,27
 807 758 807 758 754.5 834 c 128,-1,28
 702 910 702 910 578 910 c 0,29,30
 470 910 470 910 400 819.5 c 128,-1,31
 330 729 330 729 330 584 c 2,32,-1
 330 0 l 1,0,-1
EndSplineSet
EndChar
StartChar: uni0196
Encoding: 406 406 343
Width: 590
Flags: W
LayerCount: 2
Back
Fore
SplineSet
549 4 m 1,0,1
 489 -18 489 -18 430 -18 c 0,2,3
 184 -18 184 -18 184 272 c 2,4,-1
 184 1434 l 1,5,-1
 352 1434 l 1,6,-1
 352 276 l 2,7,8
 352 133 352 133 456 133 c 0,9,10
 504 133 504 133 549 154 c 1,11,-1
 549 4 l 1,0,1
EndSplineSet
EndChar
StartChar: uni0197
Encoding: 407 407 344
Width: 570
Flags: W
LayerCount: 2
Back
Fore
SplineSet
528 654 m 1,0,-1
 368 654 l 1,1,-1
 368 0 l 1,2,-1
 200 0 l 1,3,-1
 200 654 l 1,4,-1
 41 654 l 1,5,-1
 41 805 l 1,6,-1
 200 805 l 1,7,-1
 200 1434 l 1,8,-1
 368 1434 l 1,9,-1
 368 805 l 1,10,-1
 528 805 l 1,11,-1
 528 654 l 1,0,-1
EndSplineSet
EndChar
StartChar: uni0198
Encoding: 408 408 345
Width: 1188
Flags: W
LayerCount: 2
Back
Fore
SplineSet
1186 0 m 1,0,-1
 952 0 l 1,1,-1
 398 656 l 2,2,3
 367 693 367 693 360 706 c 1,4,-1
 356 706 l 1,5,-1
 356 0 l 1,6,-1
 188 0 l 1,7,-1
 188 1434 l 1,8,-1
 356 1434 l 1,9,-1
 356 760 l 1,10,-1
 360 760 l 1,11,-1
 676 1180 l 2,12,13
 817 1368 817 1368 891 1413 c 128,-1,14
 965 1458 965 1458 1057 1458 c 0,15,16
 1113 1458 1113 1458 1168 1432 c 1,17,-1
 1168 1276 l 1,18,19
 1112 1306 1112 1306 1050 1306 c 0,20,21
 970 1306 970 1306 852 1153 c 2,22,-1
 536 742 l 1,23,-1
 1186 0 l 1,0,-1
EndSplineSet
EndChar
StartChar: uni0199
Encoding: 409 409 346
Width: 1020
Flags: W
LayerCount: 2
Back
Fore
SplineSet
1016 0 m 1,0,-1
 786 0 l 1,1,-1
 334 492 l 1,2,-1
 330 492 l 1,3,-1
 330 0 l 1,4,-1
 166 0 l 1,5,-1
 166 1202 l 2,6,7
 166 1355 166 1355 255.5 1446.5 c 128,-1,8
 345 1538 345 1538 484 1538 c 0,9,10
 555 1538 555 1538 602 1520 c 1,11,-1
 602 1372 l 1,12,13
 547 1399 547 1399 494 1399 c 0,14,15
 330 1399 330 1399 330 1192 c 2,16,-1
 330 555 l 1,17,-1
 334 555 l 1,18,-1
 764 1024 l 1,19,-1
 979 1024 l 1,20,-1
 504 530 l 1,21,-1
 1016 0 l 1,0,-1
EndSplineSet
EndChar
StartChar: uni019A
Encoding: 410 410 347
Width: 496
Flags: W
LayerCount: 2
Back
Fore
SplineSet
475 708 m 1,0,-1
 330 708 l 1,1,-1
 330 0 l 1,2,-1
 166 0 l 1,3,-1
 166 708 l 1,4,-1
 20 708 l 1,5,-1
 20 848 l 1,6,-1
 166 848 l 1,7,-1
 166 1516 l 1,8,-1
 330 1516 l 1,9,-1
 330 848 l 1,10,-1
 475 848 l 1,11,-1
 475 708 l 1,0,-1
EndSplineSet
EndChar
StartChar: uni019B
Encoding: 411 411 348
Width: 1020
Flags: W
LayerCount: 2
Back
Fore
SplineSet
991 0 m 1,0,-1
 815 0 l 1,1,-1
 534 828 l 1,2,-1
 178 0 l 1,3,-1
 -2 0 l 1,4,-1
 461 1016 l 1,5,-1
 434 1092 l 1,6,-1
 164 960 l 1,7,-1
 106 1073 l 1,8,-1
 393 1212 l 1,9,10
 340 1368 340 1368 238 1368 c 0,11,12
 176 1368 176 1368 116 1350 c 1,13,-1
 116 1503 l 1,14,15
 176 1518 176 1518 246 1518 c 0,16,17
 350 1518 350 1518 414 1465.5 c 128,-1,18
 478 1413 478 1413 532 1280 c 1,19,-1
 776 1399 l 1,20,-1
 834 1286 l 1,21,-1
 578 1161 l 1,22,-1
 991 0 l 1,0,-1
EndSplineSet
EndChar
StartChar: uni019C
Encoding: 412 412 349
Width: 1827
Flags: W
LayerCount: 2
Back
Fore
SplineSet
1638 0 m 1,0,-1
 1474 0 l 1,1,-1
 1474 162 l 1,2,-1
 1470 162 l 1,3,4
 1362 -24 1362 -24 1153 -24 c 0,5,6
 938 -24 938 -24 866 188 c 1,7,8
 752 -24 752 -24 524 -24 c 0,9,10
 184 -24 184 -24 184 428 c 2,11,-1
 184 1434 l 1,12,-1
 352 1434 l 1,13,-1
 352 448 l 2,14,15
 352 283 352 283 403.5 205 c 128,-1,16
 455 127 455 127 580 127 c 0,17,18
 683 127 683 127 755.5 222.5 c 128,-1,19
 828 318 828 318 828 452 c 2,20,-1
 828 1434 l 1,21,-1
 996 1434 l 1,22,-1
 996 428 l 2,23,24
 996 127 996 127 1222 127 c 0,25,26
 1330 127 1330 127 1400 217.5 c 128,-1,27
 1470 308 1470 308 1470 452 c 2,28,-1
 1470 1434 l 1,29,-1
 1638 1434 l 1,30,-1
 1638 0 l 1,0,-1
EndSplineSet
EndChar
StartChar: uni019D
Encoding: 413 413 350
Width: 1532
Flags: W
LayerCount: 2
Back
Fore
SplineSet
1346 0 m 1,0,-1
 1138 0 l 1,1,-1
 400 1143 l 2,2,3
 372 1186 372 1186 354 1233 c 1,4,-1
 348 1233 l 1,5,6
 356 1187 356 1187 356 1036 c 2,7,-1
 356 53 l 2,8,9
 356 -362 356 -362 18 -362 c 0,10,11
 -47 -362 -47 -362 -102 -342 c 1,12,-1
 -102 -182 l 1,13,14
 -52 -211 -52 -211 10 -211 c 0,15,16
 188 -211 188 -211 188 53 c 2,17,-1
 188 1434 l 1,18,-1
 406 1434 l 1,19,-1
 1124 309 l 2,20,21
 1169 239 1169 239 1182 213 c 1,22,-1
 1186 213 l 1,23,24
 1176 275 1176 275 1176 424 c 2,25,-1
 1176 1434 l 1,26,-1
 1346 1434 l 1,27,-1
 1346 0 l 1,0,-1
EndSplineSet
EndChar
StartChar: uni019E
Encoding: 414 414 351
Width: 1178
Flags: W
LayerCount: 2
Back
Fore
SplineSet
1016 -404 m 1,0,-1
 850 -404 l 1,1,-1
 850 572 l 2,2,3
 850 899 850 899 614 899 c 0,4,5
 489 899 489 899 409.5 810.5 c 128,-1,6
 330 722 330 722 330 588 c 2,7,-1
 330 0 l 1,8,-1
 166 0 l 1,9,-1
 166 694 l 2,10,11
 166 933 166 933 131 1024 c 1,12,-1
 299 1024 l 1,13,14
 326 953 326 953 326 850 c 1,15,-1
 330 850 l 1,16,17
 442 1048 442 1048 670 1048 c 0,18,19
 837 1048 837 1048 926.5 941 c 128,-1,20
 1016 834 1016 834 1016 631 c 2,21,-1
 1016 -404 l 1,0,-1
EndSplineSet
EndChar
StartChar: Ohorn
Encoding: 416 416 353
Width: 1562
Flags: W
LayerCount: 2
Back
Fore
SplineSet
1167 1347 m 1,0,1
 1215 1338 1215 1338 1247 1338 c 0,2,3
 1461 1338 1461 1338 1461 1468 c 0,4,5
 1461 1540 1461 1540 1440 1598 c 1,6,-1
 1576 1598 l 1,7,8
 1594 1544 1594 1544 1594 1464 c 0,9,10
 1594 1356 1594 1356 1524 1289 c 128,-1,11
 1454 1222 1454 1222 1332 1222 c 2,12,-1
 1298 1222 l 1,13,14
 1450 1028 1450 1028 1450 735 c 0,15,16
 1450 384 1450 384 1264 180 c 128,-1,17
 1078 -24 1078 -24 766 -24 c 0,18,19
 461 -24 461 -24 277.5 177 c 128,-1,20
 94 378 94 378 94 700 c 0,21,22
 94 1046 94 1046 281 1252 c 128,-1,23
 468 1458 468 1458 790 1458 c 0,24,25
 1006 1458 1006 1458 1167 1347 c 1,0,1
778 1306 m 0,26,27
 552 1306 552 1306 411 1143 c 128,-1,28
 270 980 270 980 270 715 c 256,29,30
 270 450 270 450 407.5 288.5 c 128,-1,31
 545 127 545 127 766 127 c 0,32,33
 1002 127 1002 127 1138 281 c 128,-1,34
 1274 435 1274 435 1274 712 c 0,35,36
 1274 996 1274 996 1142 1151 c 128,-1,37
 1010 1306 1010 1306 778 1306 c 0,26,27
EndSplineSet
EndChar
StartChar: ohorn
Encoding: 417 417 354
Width: 1223
Flags: W
LayerCount: 2
Back
Fore
SplineSet
1040 1276 m 1,0,-1
 1174 1276 l 1,1,2
 1193 1220 1193 1220 1193 1140 c 0,3,4
 1193 948 1193 948 974 908 c 1,5,6
 1104 767 1104 767 1104 516 c 0,7,8
 1104 271 1104 271 965.5 123.5 c 128,-1,9
 827 -24 827 -24 594 -24 c 0,10,11
 367 -24 367 -24 231.5 119.5 c 128,-1,12
 96 263 96 263 96 500 c 0,13,14
 96 758 96 758 237 903 c 128,-1,15
 378 1048 378 1048 618 1048 c 0,16,17
 666 1048 666 1048 752 1034 c 0,18,19
 813 1024 813 1024 922 1024 c 0,20,21
 981 1024 981 1024 1020.5 1059.5 c 128,-1,22
 1060 1095 1060 1095 1060 1145 c 0,23,24
 1060 1218 1060 1218 1040 1276 c 1,0,-1
606 910 m 0,25,26
 448 910 448 910 356 802.5 c 128,-1,27
 264 695 264 695 264 506 c 0,28,29
 264 324 264 324 357 219 c 128,-1,30
 450 114 450 114 606 114 c 0,31,32
 765 114 765 114 850.5 217 c 128,-1,33
 936 320 936 320 936 510 c 0,34,35
 936 702 936 702 850.5 806 c 128,-1,36
 765 910 765 910 606 910 c 0,25,26
EndSplineSet
EndChar
StartChar: uni01A2
Encoding: 418 418 355
Width: 1984
Flags: W
LayerCount: 2
Back
Fore
SplineSet
1796 0 m 1,0,-1
 1628 0 l 1,1,-1
 1628 1268 l 1,2,3
 1510 1243 1510 1243 1380 1243 c 0,4,5
 1326 1243 1326 1243 1247 1252 c 1,6,-1
 1247 98 l 1,7,8
 998 -24 998 -24 766 -24 c 0,9,10
 460 -24 460 -24 277 176 c 128,-1,11
 94 376 94 376 94 700 c 0,12,13
 94 1032 94 1032 287.5 1245 c 128,-1,14
 481 1458 481 1458 792 1458 c 0,15,16
 904 1458 904 1458 1094 1424 c 256,17,18
 1284 1390 1284 1390 1392 1390 c 0,19,20
 1608 1390 1608 1390 1796 1458 c 1,21,-1
 1796 0 l 1,0,-1
1080 188 m 1,22,-1
 1080 1274 l 1,23,24
 878 1306 878 1306 784 1306 c 0,25,26
 556 1306 556 1306 413 1143 c 128,-1,27
 270 980 270 980 270 715 c 0,28,29
 270 449 270 449 409.5 288 c 128,-1,30
 549 127 549 127 778 127 c 0,31,32
 938 127 938 127 1080 188 c 1,22,-1
EndSplineSet
EndChar
StartChar: uni01A3
Encoding: 419 419 356
Width: 1618
Flags: W
LayerCount: 2
Back
Fore
SplineSet
1452 0 m 1,0,-1
 1288 0 l 1,1,-1
 1288 866 l 1,2,3
 1188 842 1188 842 1096 842 c 0,4,5
 1034 842 1034 842 973 850 c 1,6,-1
 973 62 l 1,7,8
 798 -24 798 -24 614 -24 c 0,9,10
 378 -24 378 -24 237 117.5 c 128,-1,11
 96 259 96 259 96 502 c 0,12,13
 96 752 96 752 244 900 c 128,-1,14
 392 1048 392 1048 628 1048 c 0,15,16
 712 1048 712 1048 864 1015 c 0,17,18
 1016 981 1016 981 1100 981 c 0,19,20
 1278 981 1278 981 1452 1048 c 1,21,-1
 1452 0 l 1,0,-1
813 152 m 1,22,-1
 813 880 l 1,23,24
 686 910 686 910 616 910 c 0,25,26
 458 910 458 910 361 802.5 c 128,-1,27
 264 695 264 695 264 506 c 0,28,29
 264 322 264 322 362.5 218 c 128,-1,30
 461 114 461 114 628 114 c 0,31,32
 738 114 738 114 813 152 c 1,22,-1
EndSplineSet
EndChar
StartChar: uni01A4
Encoding: 420 420 357
Width: 1231
Flags: W
LayerCount: 2
Back
Fore
SplineSet
438 542 m 1,0,-1
 438 0 l 1,1,-1
 270 0 l 1,2,-1
 270 1282 l 1,3,-1
 246 1282 l 2,4,5
 165 1282 165 1282 120.5 1235.5 c 128,-1,6
 76 1189 76 1189 76 1112 c 0,7,8
 76 1057 76 1057 96 1006 c 1,9,-1
 -62 1006 l 1,10,11
 -84 1062 -84 1062 -84 1128 c 0,12,13
 -84 1260 -84 1260 13.5 1347 c 128,-1,14
 111 1434 111 1434 272 1434 c 2,15,-1
 664 1434 l 2,16,17
 894 1434 894 1434 1020.5 1321.5 c 128,-1,18
 1147 1209 1147 1209 1147 1006 c 256,19,20
 1147 803 1147 803 1006 672.5 c 128,-1,21
 865 542 865 542 626 542 c 2,22,-1
 438 542 l 1,0,-1
438 1282 m 1,23,-1
 438 694 l 1,24,-1
 614 694 l 2,25,26
 971 694 971 694 971 998 c 0,27,28
 971 1282 971 1282 635 1282 c 2,29,-1
 438 1282 l 1,23,-1
EndSplineSet
EndChar
StartChar: uni01A5
Encoding: 421 421 358
Width: 1204
Flags: W
LayerCount: 2
Back
Fore
SplineSet
334 148 m 1,0,-1
 330 148 l 1,1,-1
 330 -471 l 1,2,-1
 166 -471 l 1,3,-1
 166 1202 l 2,4,5
 166 1354 166 1354 255 1446 c 128,-1,6
 344 1538 344 1538 484 1538 c 0,7,8
 555 1538 555 1538 602 1520 c 1,9,-1
 602 1372 l 1,10,11
 547 1399 547 1399 494 1399 c 0,12,13
 330 1399 330 1399 330 1192 c 2,14,-1
 330 844 l 1,15,-1
 334 844 l 1,16,17
 452 1048 452 1048 688 1048 c 0,18,19
 885 1048 885 1048 996.5 911.5 c 128,-1,20
 1108 775 1108 775 1108 542 c 0,21,22
 1108 285 1108 285 983 130.5 c 128,-1,23
 858 -24 858 -24 641 -24 c 0,24,25
 440 -24 440 -24 334 148 c 1,0,-1
330 561 m 2,26,-1
 330 418 l 2,27,28
 330 292 330 292 412.5 203 c 128,-1,29
 495 114 495 114 622 114 c 0,30,31
 771 114 771 114 855.5 227.5 c 128,-1,32
 940 341 940 341 940 545 c 0,33,34
 940 716 940 716 861 813 c 128,-1,35
 782 910 782 910 647 910 c 0,36,37
 504 910 504 910 417 811 c 128,-1,38
 330 712 330 712 330 561 c 2,26,-1
EndSplineSet
EndChar
StartChar: uni01A6
Encoding: 422 422 359
Width: 1180
Flags: W
LayerCount: 2
Back
Fore
SplineSet
1122 -152 m 1,0,-1
 922 -152 l 1,1,-1
 725 286 l 2,2,3
 632 492 632 492 471 492 c 2,4,-1
 356 492 l 1,5,-1
 356 0 l 1,6,-1
 188 0 l 1,7,-1
 188 1434 l 1,8,-1
 356 1434 l 1,9,-1
 356 1282 l 1,10,-1
 616 1282 l 2,11,12
 821 1282 821 1282 936.5 1179.5 c 128,-1,13
 1052 1077 1052 1077 1052 901 c 0,14,15
 1052 613 1052 613 733 536 c 1,16,-1
 733 532 l 1,17,18
 820 478 820 478 891 332 c 2,19,-1
 1122 -152 l 1,0,-1
356 1130 m 1,20,-1
 356 643 l 1,21,-1
 578 643 l 2,22,23
 715 643 715 643 795.5 707 c 128,-1,24
 876 771 876 771 876 887 c 0,25,26
 876 1130 876 1130 586 1130 c 2,27,-1
 356 1130 l 1,20,-1
EndSplineSet
EndChar
StartChar: uni01A7
Encoding: 423 423 360
Width: 1088
Flags: W
LayerCount: 2
Back
Fore
SplineSet
967 58 m 1,0,1
 939 39 939 39 892.5 23.5 c 128,-1,2
 846 8 846 8 794 -2.5 c 128,-1,3
 742 -13 742 -13 692.5 -18.5 c 128,-1,4
 643 -24 643 -24 608 -24 c 0,5,6
 506 -24 506 -24 414 -3.5 c 128,-1,7
 322 17 322 17 251.5 63 c 128,-1,8
 181 109 181 109 139.5 182.5 c 128,-1,9
 98 256 98 256 98 362 c 0,10,11
 98 442 98 442 128.5 504 c 128,-1,12
 159 566 159 566 211 617 c 128,-1,13
 263 668 263 668 332 710 c 128,-1,14
 401 752 401 752 478 790 c 0,15,16
 553 827 553 827 610.5 858 c 128,-1,17
 668 889 668 889 708 922 c 128,-1,18
 748 955 748 955 768.5 995 c 128,-1,19
 789 1035 789 1035 789 1090 c 0,20,21
 789 1149 789 1149 762 1190 c 128,-1,22
 735 1231 735 1231 692 1257 c 128,-1,23
 649 1283 649 1283 594.5 1294.5 c 128,-1,24
 540 1306 540 1306 484 1306 c 0,25,26
 285 1306 285 1306 158 1218 c 1,27,-1
 158 1407 l 1,28,29
 256 1458 256 1458 467 1458 c 0,30,31
 560 1458 560 1458 649.5 1435 c 128,-1,32
 739 1412 739 1412 809 1365 c 128,-1,33
 879 1318 879 1318 922 1245.5 c 128,-1,34
 965 1173 965 1173 965 1075 c 0,35,36
 965 995 965 995 937.5 935.5 c 128,-1,37
 910 876 910 876 862 829 c 128,-1,38
 814 782 814 782 749 743 c 128,-1,39
 684 704 684 704 609 666 c 0,40,41
 538 630 538 630 476.5 597.5 c 128,-1,42
 415 565 415 565 370 529.5 c 128,-1,43
 325 494 325 494 299.5 451 c 128,-1,44
 274 408 274 408 274 350 c 0,45,46
 274 242 274 242 350.5 184.5 c 128,-1,47
 427 127 427 127 582 127 c 0,48,49
 627 127 627 127 680 136 c 128,-1,50
 733 145 733 145 785.5 161.5 c 128,-1,51
 838 178 838 178 885.5 202 c 128,-1,52
 933 226 933 226 967 256 c 1,53,-1
 967 58 l 1,0,1
EndSplineSet
EndChar
StartChar: uni01A8
Encoding: 424 424 361
Width: 869
Flags: W
LayerCount: 2
Back
Fore
SplineSet
765 37 m 1,0,1
 649 -24 649 -24 491 -24 c 0,2,3
 412 -24 412 -24 338.5 -6 c 128,-1,4
 265 12 265 12 209 49 c 128,-1,5
 153 86 153 86 119.5 142 c 128,-1,6
 86 198 86 198 86 274 c 0,7,8
 86 336 86 336 106.5 381 c 128,-1,9
 127 426 127 426 165 460.5 c 128,-1,10
 203 495 203 495 257.5 522.5 c 128,-1,11
 312 550 312 550 379 576 c 0,12,13
 430 596 430 596 470 613 c 128,-1,14
 510 630 510 630 538 651 c 128,-1,15
 566 672 566 672 580.5 699 c 128,-1,16
 595 726 595 726 595 766 c 0,17,18
 595 798 595 798 580.5 824.5 c 128,-1,19
 566 851 566 851 539.5 870 c 128,-1,20
 513 889 513 889 476 899.5 c 128,-1,21
 439 910 439 910 393 910 c 0,22,23
 246 910 246 910 133 836 c 1,24,-1
 133 1002 l 1,25,26
 238 1048 238 1048 371 1048 c 0,27,28
 446 1048 446 1048 516.5 1029 c 128,-1,29
 587 1010 587 1010 642 972.5 c 128,-1,30
 697 935 697 935 730 879.5 c 128,-1,31
 763 824 763 824 763 752 c 0,32,33
 763 693 763 693 745.5 649 c 128,-1,34
 728 605 728 605 693.5 570.5 c 128,-1,35
 659 536 659 536 607.5 508.5 c 128,-1,36
 556 481 556 481 488 454 c 0,37,38
 439 435 439 435 396.5 417.5 c 128,-1,39
 354 400 354 400 322.5 378 c 128,-1,40
 291 356 291 356 272.5 327.5 c 128,-1,41
 254 299 254 299 254 258 c 0,42,43
 254 114 254 114 470 114 c 0,44,45
 632 114 632 114 765 213 c 1,46,-1
 765 37 l 1,0,1
EndSplineSet
EndChar
StartChar: uni01A9
Encoding: 425 425 362
Width: 1057
Flags: W
LayerCount: 2
Back
Fore
SplineSet
1008 0 m 1,0,-1
 45 0 l 1,1,-1
 45 78 l 1,2,-1
 512 740 l 1,3,-1
 88 1344 l 1,4,-1
 88 1434 l 1,5,-1
 946 1434 l 1,6,-1
 946 1280 l 1,7,-1
 334 1280 l 1,8,-1
 710 744 l 1,9,-1
 293 148 l 1,10,-1
 1008 148 l 1,11,-1
 1008 0 l 1,0,-1
EndSplineSet
EndChar
StartChar: uni01AA
Encoding: 426 426 363
Width: 606
Flags: W
LayerCount: 2
Back
Fore
SplineSet
647 -450 m 1,0,1
 590 -482 590 -482 498 -482 c 0,2,3
 238 -482 238 -482 238 -174 c 2,4,-1
 238 1080 l 1,5,6
 181 1052 181 1052 114 1052 c 0,7,8
 13 1052 13 1052 -56 1119.5 c 128,-1,9
 -125 1187 -125 1187 -125 1290 c 0,10,11
 -125 1394 -125 1394 -53 1466 c 128,-1,12
 19 1538 19 1538 127 1538 c 0,13,14
 255 1538 255 1538 327.5 1452.5 c 128,-1,15
 400 1367 400 1367 400 1218 c 2,16,-1
 400 -146 l 2,17,18
 400 -342 400 -342 545 -342 c 0,19,20
 601 -342 601 -342 647 -309 c 1,21,-1
 647 -450 l 1,0,1
238 1218 m 1,22,-1
 238 1231 l 2,23,24
 238 1399 238 1399 125 1399 c 0,25,26
 83 1399 83 1399 54.5 1369 c 128,-1,27
 26 1339 26 1339 26 1296 c 0,28,29
 26 1252 26 1252 57 1222 c 128,-1,30
 88 1192 88 1192 137 1192 c 0,31,32
 190 1192 190 1192 238 1218 c 1,22,-1
EndSplineSet
EndChar
StartChar: uni01AB
Encoding: 427 427 364
Width: 696
Flags: W
LayerCount: 2
Back
Fore
SplineSet
641 -68 m 2,0,1
 641 -203 641 -203 564.5 -282.5 c 128,-1,2
 488 -362 488 -362 362 -362 c 0,3,4
 302 -362 302 -362 250 -338 c 1,5,-1
 250 -192 l 1,6,7
 302 -223 302 -223 362 -223 c 0,8,9
 488 -223 488 -223 488 -64 c 2,10,-1
 488 -24 l 1,11,12
 219 -24 219 -24 219 276 c 2,13,-1
 219 884 l 1,14,-1
 43 884 l 1,15,-1
 43 1024 l 1,16,-1
 219 1024 l 1,17,-1
 219 1274 l 1,18,19
 296 1298 296 1298 383 1327 c 1,20,-1
 383 1024 l 1,21,-1
 641 1024 l 1,22,-1
 641 884 l 1,23,-1
 383 884 l 1,24,-1
 383 305 l 2,25,26
 383 202 383 202 417.5 158 c 128,-1,27
 452 114 452 114 534 114 c 0,28,29
 594 114 594 114 641 148 c 1,30,-1
 641 -68 l 2,0,1
EndSplineSet
EndChar
StartChar: uni01AC
Encoding: 428 428 365
Width: 1075
Flags: W
LayerCount: 2
Back
Fore
SplineSet
1036 1282 m 1,0,-1
 622 1282 l 1,1,-1
 622 0 l 1,2,-1
 454 0 l 1,3,-1
 454 1282 l 1,4,-1
 299 1282 l 2,5,6
 209 1282 209 1282 158.5 1236 c 128,-1,7
 108 1190 108 1190 108 1112 c 0,8,9
 108 1057 108 1057 129 1006 c 1,10,-1
 -28 1006 l 1,11,12
 -51 1062 -51 1062 -51 1128 c 0,13,14
 -51 1261 -51 1261 46 1347.5 c 128,-1,15
 143 1434 143 1434 305 1434 c 2,16,-1
 1036 1434 l 1,17,-1
 1036 1282 l 1,0,-1
EndSplineSet
EndChar
StartChar: uni01AD
Encoding: 429 429 366
Width: 696
Flags: W
LayerCount: 2
Back
Fore
SplineSet
641 10 m 1,0,1
 583 -22 583 -22 488 -22 c 0,2,3
 219 -22 219 -22 219 278 c 2,4,-1
 219 884 l 1,5,-1
 43 884 l 1,6,-1
 43 1024 l 1,7,-1
 219 1024 l 1,8,-1
 219 1216 l 2,9,10
 219 1363 219 1363 295 1450.5 c 128,-1,11
 371 1538 371 1538 502 1538 c 0,12,13
 576 1538 576 1538 641 1510 c 1,14,-1
 641 1364 l 1,15,16
 580 1399 580 1399 516 1399 c 0,17,18
 383 1399 383 1399 383 1208 c 2,19,-1
 383 1024 l 1,20,-1
 641 1024 l 1,21,-1
 641 884 l 1,22,-1
 383 884 l 1,23,-1
 383 307 l 2,24,25
 383 204 383 204 417.5 160 c 128,-1,26
 452 116 452 116 534 116 c 0,27,28
 594 116 594 116 641 150 c 1,29,-1
 641 10 l 1,0,1
EndSplineSet
EndChar
StartChar: uni01AE
Encoding: 430 430 367
Width: 1075
Flags: W
LayerCount: 2
Back
Fore
SplineSet
1036 1282 m 1,0,-1
 622 1282 l 1,1,-1
 622 53 l 2,2,3
 622 -211 622 -211 792 -211 c 0,4,5
 862 -211 862 -211 914 -188 c 1,6,-1
 914 -336 l 1,7,8
 856 -362 856 -362 778 -362 c 0,9,10
 454 -362 454 -362 454 43 c 2,11,-1
 454 1282 l 1,12,-1
 39 1282 l 1,13,-1
 39 1434 l 1,14,-1
 1036 1434 l 1,15,-1
 1036 1282 l 1,0,-1
EndSplineSet
EndChar
StartChar: Uhorn
Encoding: 431 431 368
Width: 1450
Flags: W
LayerCount: 2
Back
Fore
SplineSet
1237 580 m 2,0,1
 1237 -24 1237 -24 692 -24 c 0,2,3
 170 -24 170 -24 170 557 c 2,4,-1
 170 1434 l 1,5,-1
 338 1434 l 1,6,-1
 338 568 l 2,7,8
 338 127 338 127 710 127 c 0,9,10
 1069 127 1069 127 1069 553 c 2,11,-1
 1069 1434 l 1,12,-1
 1216 1434 l 2,13,14
 1276 1434 1276 1434 1315.5 1469.5 c 128,-1,15
 1355 1505 1355 1505 1355 1554 c 0,16,17
 1355 1628 1355 1628 1334 1686 c 1,18,-1
 1470 1686 l 1,19,20
 1488 1630 1488 1630 1488 1550 c 0,21,22
 1488 1340 1488 1340 1237 1309 c 1,23,-1
 1237 580 l 2,0,1
EndSplineSet
EndChar
StartChar: uhorn
Encoding: 432 432 369
Width: 1204
Flags: W
LayerCount: 2
Back
Fore
SplineSet
994 0 m 1,0,-1
 830 0 l 1,1,-1
 830 162 l 1,2,-1
 826 162 l 1,3,4
 724 -24 724 -24 510 -24 c 0,5,6
 144 -24 144 -24 144 412 c 2,7,-1
 144 1024 l 1,8,-1
 307 1024 l 1,9,-1
 307 438 l 2,10,11
 307 114 307 114 555 114 c 0,12,13
 675 114 675 114 752.5 202.5 c 128,-1,14
 830 291 830 291 830 434 c 2,15,-1
 830 1024 l 1,16,-1
 952 1024 l 2,17,18
 1011 1024 1011 1024 1050.5 1059.5 c 128,-1,19
 1090 1095 1090 1095 1090 1145 c 0,20,21
 1090 1218 1090 1218 1070 1276 c 1,22,-1
 1204 1276 l 1,23,24
 1223 1220 1223 1220 1223 1140 c 0,25,26
 1223 942 1223 942 994 906 c 1,27,-1
 994 0 l 1,0,-1
EndSplineSet
EndChar
StartChar: uni01B1
Encoding: 433 433 370
Width: 1546
Flags: W
LayerCount: 2
Back
Fore
SplineSet
446 1286 m 1,0,-1
 98 1286 l 1,1,-1
 98 1434 l 1,2,-1
 616 1434 l 1,3,-1
 616 1286 l 1,4,5
 272 1032 272 1032 272 654 c 0,6,7
 272 407 272 407 410.5 266 c 128,-1,8
 549 125 549 125 770 125 c 0,9,10
 994 125 994 125 1134 267 c 128,-1,11
 1274 409 1274 409 1274 654 c 0,12,13
 1274 1030 1274 1030 928 1286 c 1,14,-1
 928 1434 l 1,15,-1
 1446 1434 l 1,16,-1
 1446 1286 l 1,17,-1
 1100 1286 l 1,18,19
 1448 1050 1448 1050 1448 649 c 0,20,21
 1448 339 1448 339 1263 157.5 c 128,-1,22
 1078 -24 1078 -24 774 -24 c 0,23,24
 467 -24 467 -24 282.5 155 c 128,-1,25
 98 334 98 334 98 647 c 0,26,27
 98 1050 98 1050 446 1286 c 1,0,-1
EndSplineSet
EndChar
StartChar: uni01B2
Encoding: 434 434 371
Width: 1458
Flags: W
LayerCount: 2
Back
Fore
SplineSet
184 1434 m 1,0,-1
 352 1434 l 1,1,-1
 352 582 l 2,2,3
 352 127 352 127 696 127 c 0,4,5
 913 127 913 127 1052.5 327.5 c 128,-1,6
 1192 528 1192 528 1192 821 c 0,7,8
 1192 1306 1192 1306 928 1306 c 0,9,10
 856 1306 856 1306 792 1278 c 1,11,-1
 792 1432 l 1,12,13
 869 1458 869 1458 956 1458 c 0,14,15
 1142 1458 1142 1458 1253 1288.5 c 128,-1,16
 1364 1119 1364 1119 1364 834 c 0,17,18
 1364 475 1364 475 1172.5 225.5 c 128,-1,19
 981 -24 981 -24 688 -24 c 0,20,21
 184 -24 184 -24 184 574 c 2,22,-1
 184 1434 l 1,0,-1
EndSplineSet
EndChar
StartChar: uni01B3
Encoding: 435 435 372
Width: 1166
Flags: W
LayerCount: 2
Back
Fore
SplineSet
193 1434 m 1,0,-1
 529 786 l 2,1,2
 556 735 556 735 568 698 c 1,3,-1
 570 698 l 1,4,-1
 605 786 l 1,5,-1
 804 1196 l 2,6,7
 874 1341 874 1341 945 1399.5 c 128,-1,8
 1016 1458 1016 1458 1123 1458 c 0,9,10
 1180 1458 1180 1458 1238 1434 c 1,11,-1
 1238 1278 l 1,12,13
 1191 1306 1191 1306 1133 1306 c 0,14,15
 1043 1306 1043 1306 959 1136 c 2,16,-1
 656 526 l 1,17,-1
 656 0 l 1,18,-1
 488 0 l 1,19,-1
 488 530 l 1,20,-1
 15 1434 l 1,21,-1
 193 1434 l 1,0,-1
EndSplineSet
EndChar
StartChar: uni01B4
Encoding: 436 436 373
Width: 1059
Flags: W
LayerCount: 2
Back
Fore
SplineSet
1120 889 m 1,0,1
 1076 908 1076 908 1032 908 c 0,2,3
 930 908 930 908 864 740 c 2,4,-1
 510 -164 l 2,5,6
 385 -482 385 -482 156 -482 c 0,7,8
 90 -482 90 -482 49 -469 c 1,9,-1
 49 -322 l 1,10,11
 100 -340 100 -340 146 -340 c 0,12,13
 270 -340 270 -340 332 -192 c 2,14,-1
 414 2 l 1,15,-1
 14 1024 l 1,16,-1
 196 1024 l 1,17,-1
 473 236 l 2,18,19
 483 208 483 208 494 158 c 1,20,-1
 500 158 l 1,21,22
 505 184 505 184 520 236 c 1,23,-1
 712 754 l 2,24,25
 821 1048 821 1048 1030 1048 c 0,26,27
 1071 1048 1071 1048 1120 1032 c 1,28,-1
 1120 889 l 1,0,1
EndSplineSet
EndChar
StartChar: uni01B5
Encoding: 437 437 374
Width: 1168
Flags: W
LayerCount: 2
Back
Fore
SplineSet
1124 1394 m 1,0,-1
 725 805 l 1,1,-1
 977 805 l 1,2,-1
 977 654 l 1,3,-1
 622 654 l 1,4,-1
 284 152 l 1,5,-1
 1104 152 l 1,6,-1
 1104 0 l 1,7,-1
 33 0 l 1,8,-1
 33 47 l 1,9,-1
 442 654 l 1,10,-1
 215 654 l 1,11,-1
 215 805 l 1,12,-1
 545 805 l 1,13,-1
 866 1282 l 1,14,-1
 98 1282 l 1,15,-1
 98 1434 l 1,16,-1
 1124 1434 l 1,17,-1
 1124 1394 l 1,0,-1
EndSplineSet
EndChar
StartChar: uni01B6
Encoding: 438 438 375
Width: 926
Flags: W
LayerCount: 2
Back
Fore
SplineSet
880 977 m 1,0,-1
 604 596 l 1,1,-1
 792 596 l 1,2,-1
 792 456 l 1,3,-1
 504 456 l 1,4,-1
 274 140 l 1,5,-1
 874 140 l 1,6,-1
 874 0 l 1,7,-1
 33 0 l 1,8,-1
 33 51 l 1,9,-1
 328 456 l 1,10,-1
 160 456 l 1,11,-1
 160 596 l 1,12,-1
 428 596 l 1,13,-1
 639 884 l 1,14,-1
 90 884 l 1,15,-1
 90 1024 l 1,16,-1
 880 1024 l 1,17,-1
 880 977 l 1,0,-1
EndSplineSet
EndChar
StartChar: uni01B7
Encoding: 439 439 376
Width: 1250
Flags: W
LayerCount: 2
Back
Fore
SplineSet
10 -375 m 1,0,-1
 10 -194 l 1,1,2
 234 -330 234 -330 456 -330 c 0,3,4
 689 -330 689 -330 834 -210.5 c 128,-1,5
 979 -91 979 -91 979 100 c 0,6,7
 979 304 979 304 827.5 417 c 128,-1,8
 676 530 676 530 410 530 c 2,9,-1
 318 530 l 1,10,-1
 318 606 l 1,11,-1
 819 1282 l 1,12,-1
 39 1282 l 1,13,-1
 39 1434 l 1,14,-1
 1065 1434 l 1,15,-1
 1065 1358 l 1,16,-1
 555 672 l 1,17,18
 828 649 828 649 991.5 497 c 128,-1,19
 1155 345 1155 345 1155 106 c 0,20,21
 1155 -150 1155 -150 954.5 -316 c 128,-1,22
 754 -482 754 -482 454 -482 c 0,23,24
 222 -482 222 -482 10 -375 c 1,0,-1
EndSplineSet
EndChar
StartChar: uni01B8
Encoding: 440 440 377
Width: 1250
Flags: W
LayerCount: 2
Back
Fore
SplineSet
1239 -375 m 1,0,1
 1026 -482 1026 -482 774 -482 c 0,2,3
 475 -482 475 -482 284.5 -323 c 128,-1,4
 94 -164 94 -164 94 94 c 0,5,6
 94 329 94 329 261 489 c 128,-1,7
 428 649 428 649 694 672 c 1,8,-1
 184 1358 l 1,9,-1
 184 1434 l 1,10,-1
 1210 1434 l 1,11,-1
 1210 1282 l 1,12,-1
 432 1282 l 1,13,-1
 932 606 l 1,14,-1
 932 530 l 1,15,-1
 840 530 l 2,16,17
 576 530 576 530 423 415.5 c 128,-1,18
 270 301 270 301 270 100 c 0,19,20
 270 -91 270 -91 415 -210.5 c 128,-1,21
 560 -330 560 -330 792 -330 c 0,22,23
 1032 -330 1032 -330 1239 -205 c 1,24,-1
 1239 -375 l 1,0,1
EndSplineSet
EndChar
StartChar: uni01B9
Encoding: 441 441 378
Width: 905
Flags: W
LayerCount: 2
Back
Fore
SplineSet
938 -398 m 1,0,1
 784 -479 784 -479 582 -479 c 0,2,3
 338 -479 338 -479 184 -354.5 c 128,-1,4
 30 -230 30 -230 30 -26 c 0,5,6
 30 150 30 150 153.5 275.5 c 128,-1,7
 277 401 277 401 484 430 c 1,8,-1
 90 973 l 1,9,-1
 90 1024 l 1,10,-1
 903 1024 l 1,11,-1
 903 884 l 1,12,-1
 332 884 l 1,13,-1
 710 352 l 1,14,-1
 710 301 l 1,15,-1
 626 301 l 2,16,17
 426 301 426 301 312 215.5 c 128,-1,18
 198 130 198 130 198 -20 c 0,19,20
 198 -161 198 -161 307 -250.5 c 128,-1,21
 416 -340 416 -340 586 -340 c 0,22,23
 782 -340 782 -340 938 -242 c 1,24,-1
 938 -398 l 1,0,1
EndSplineSet
EndChar
StartChar: uni01BA
Encoding: 442 442 379
Width: 838
Flags: W
LayerCount: 2
Back
Fore
SplineSet
670 -252 m 1,0,-1
 670 -410 l 1,1,2
 533 -482 533 -482 348 -482 c 0,3,4
 188 -482 188 -482 99 -419.5 c 128,-1,5
 10 -357 10 -357 10 -246 c 0,6,7
 10 -49 10 -49 322 53 c 0,8,9
 486 107 486 107 549 161.5 c 128,-1,10
 612 216 612 216 612 305 c 0,11,12
 612 395 612 395 533 446.5 c 128,-1,13
 454 498 454 498 312 498 c 2,14,-1
 230 498 l 1,15,-1
 230 559 l 1,16,-1
 512 884 l 1,17,-1
 10 884 l 1,18,-1
 10 1024 l 1,19,-1
 738 1024 l 1,20,-1
 738 954 l 1,21,-1
 444 616 l 1,22,23
 602 598 602 598 689 517 c 128,-1,24
 776 436 776 436 776 307 c 0,25,26
 776 181 776 181 693 93.5 c 128,-1,27
 610 6 610 6 414 -62 c 0,28,29
 267 -112 267 -112 222.5 -146.5 c 128,-1,30
 178 -181 178 -181 178 -234 c 0,31,32
 178 -342 178 -342 362 -342 c 0,33,34
 532 -342 532 -342 670 -252 c 1,0,-1
EndSplineSet
EndChar
StartChar: uni01BB
Encoding: 443 443 380
Width: 1104
Flags: W
LayerCount: 2
Back
Fore
SplineSet
962 555 m 1,0,-1
 672 555 l 1,1,-1
 293 148 l 1,2,-1
 960 148 l 1,3,-1
 960 0 l 1,4,-1
 96 0 l 1,5,-1
 96 146 l 1,6,-1
 479 555 l 1,7,-1
 226 555 l 1,8,-1
 226 702 l 1,9,-1
 614 702 l 1,10,11
 719 821 719 821 760 899.5 c 128,-1,12
 801 978 801 978 801 1063 c 0,13,14
 801 1183 801 1183 729 1251 c 128,-1,15
 657 1319 657 1319 528 1319 c 0,16,17
 338 1319 338 1319 160 1155 c 1,18,-1
 160 1327 l 1,19,20
 322 1458 322 1458 551 1458 c 0,21,22
 743 1458 743 1458 852.5 1354.5 c 128,-1,23
 962 1251 962 1251 962 1075 c 0,24,25
 962 900 962 900 803 702 c 1,26,-1
 962 702 l 1,27,-1
 962 555 l 1,0,-1
EndSplineSet
EndChar
StartChar: uni01BC
Encoding: 444 444 381
Width: 1104
Flags: W
LayerCount: 2
Back
Fore
SplineSet
164 35 m 1,0,-1
 164 209 l 1,1,2
 311 114 311 114 463 114 c 0,3,4
 616 114 616 114 708.5 200.5 c 128,-1,5
 801 287 801 287 801 428 c 0,6,7
 801 570 801 570 706 648.5 c 128,-1,8
 611 727 611 727 434 727 c 0,9,10
 384 727 384 727 307 722 c 0,11,12
 212 715 212 715 205 715 c 1,13,-1
 274 1286 l 1,14,-1
 116 1286 l 1,15,-1
 116 1434 l 1,16,-1
 903 1434 l 1,17,-1
 903 1286 l 1,18,-1
 428 1286 l 1,19,-1
 377 866 l 1,20,21
 442 870 442 870 486 870 c 0,22,23
 717 870 717 870 842.5 755 c 128,-1,24
 968 640 968 640 968 438 c 0,25,26
 968 230 968 230 832.5 103 c 128,-1,27
 697 -24 697 -24 461 -24 c 0,28,29
 272 -24 272 -24 164 35 c 1,0,-1
EndSplineSet
EndChar
StartChar: uni01BD
Encoding: 445 445 382
Width: 778
Flags: W
LayerCount: 2
Back
Fore
SplineSet
90 24 m 1,0,-1
 90 190 l 1,1,2
 204 114 204 114 326 114 c 0,3,4
 426 114 426 114 487.5 168 c 128,-1,5
 549 222 549 222 549 309 c 0,6,7
 549 393 549 393 483.5 443.5 c 128,-1,8
 418 494 418 494 303 494 c 0,9,10
 280 494 280 494 114 486 c 1,11,-1
 176 884 l 1,12,-1
 72 884 l 1,13,-1
 72 1024 l 1,14,-1
 676 1024 l 1,15,-1
 676 884 l 1,16,-1
 326 884 l 1,17,-1
 286 631 l 1,18,19
 336 633 336 633 356 633 c 0,20,21
 513 633 513 633 615 549.5 c 128,-1,22
 717 466 717 466 717 318 c 0,23,24
 717 167 717 167 610.5 71.5 c 128,-1,25
 504 -24 504 -24 326 -24 c 0,26,27
 168 -24 168 -24 90 24 c 1,0,-1
EndSplineSet
EndChar
StartChar: uni01BE
Encoding: 446 446 383
Width: 807
Flags: W
LayerCount: 2
Back
Fore
SplineSet
112 37 m 1,0,-1
 112 213 l 1,1,2
 230 114 230 114 379 114 c 0,3,4
 574 114 574 114 574 258 c 0,5,6
 574 304 574 304 546 341.5 c 128,-1,7
 518 379 518 379 393 442 c 0,8,9
 247 518 247 518 201.5 595.5 c 128,-1,10
 156 673 156 673 156 782 c 2,11,-1
 156 884 l 1,12,-1
 30 884 l 1,13,-1
 30 1024 l 1,14,-1
 156 1024 l 1,15,-1
 156 1274 l 1,16,-1
 320 1327 l 1,17,-1
 320 1024 l 1,18,-1
 578 1024 l 1,19,-1
 578 884 l 1,20,-1
 320 884 l 1,21,-1
 320 786 l 2,22,23
 320 711 320 711 355 664 c 128,-1,24
 390 617 390 617 492 568 c 0,25,26
 629 500 629 500 684.5 430 c 128,-1,27
 740 360 740 360 740 266 c 0,28,29
 740 139 740 139 639.5 57.5 c 128,-1,30
 539 -24 539 -24 366 -24 c 0,31,32
 216 -24 216 -24 112 37 c 1,0,-1
EndSplineSet
EndChar
StartChar: uni01BF
Encoding: 447 447 384
Width: 1118
Flags: W
LayerCount: 2
Back
Fore
SplineSet
330 -45 m 1,0,-1
 330 -471 l 1,1,-1
 166 -471 l 1,2,-1
 166 1024 l 1,3,-1
 330 1024 l 1,4,-1
 330 895 l 1,5,6
 502 1048 502 1048 696 1048 c 0,7,8
 847 1048 847 1048 946.5 950 c 128,-1,9
 1046 852 1046 852 1046 706 c 0,10,11
 1046 483 1046 483 856 284 c 128,-1,12
 666 85 666 85 330 -45 c 1,0,-1
330 725 m 1,13,-1
 330 112 l 1,14,15
 572 209 572 209 725 363 c 128,-1,16
 878 517 878 517 878 690 c 0,17,18
 878 783 878 783 822 844 c 128,-1,19
 766 905 766 905 674 905 c 0,20,21
 516 905 516 905 330 725 c 1,13,-1
EndSplineSet
EndChar
StartChar: uni01C0
Encoding: 448 448 385
Width: 490
Flags: W
LayerCount: 2
Back
Fore
SplineSet
320 -482 m 1,0,-1
 172 -482 l 1,1,-1
 172 1566 l 1,2,-1
 320 1566 l 1,3,-1
 320 -482 l 1,0,-1
EndSplineSet
EndChar
StartChar: uni01C1
Encoding: 449 449 386
Width: 784
Flags: W
LayerCount: 2
Back
Fore
SplineSet
614 -482 m 1,0,-1
 467 -482 l 1,1,-1
 467 1566 l 1,2,-1
 614 1566 l 1,3,-1
 614 -482 l 1,0,-1
320 -482 m 1,4,-1
 172 -482 l 1,5,-1
 172 1566 l 1,6,-1
 320 1566 l 1,7,-1
 320 -482 l 1,4,-1
EndSplineSet
EndChar
StartChar: uni01C2
Encoding: 450 450 387
Width: 934
Flags: W
LayerCount: 2
Back
Fore
SplineSet
882 326 m 1,0,-1
 540 326 l 1,1,-1
 540 -482 l 1,2,-1
 393 -482 l 1,3,-1
 393 326 l 1,4,-1
 51 326 l 1,5,-1
 51 465 l 1,6,-1
 393 465 l 1,7,-1
 393 744 l 1,8,-1
 51 744 l 1,9,-1
 51 882 l 1,10,-1
 393 882 l 1,11,-1
 393 1566 l 1,12,-1
 540 1566 l 1,13,-1
 540 882 l 1,14,-1
 882 882 l 1,15,-1
 882 744 l 1,16,-1
 540 744 l 1,17,-1
 540 465 l 1,18,-1
 882 465 l 1,19,-1
 882 326 l 1,0,-1
EndSplineSet
EndChar
StartChar: uni01D6
Encoding: 470 470 407
Width: 918
Flags: W
LayerCount: 2
Back
Fore
SplineSet
831 1485 m 1,0,-1
 323 1485 l 1,1,-1
 323 1594 l 1,2,-1
 831 1594 l 1,3,-1
 831 1485 l 1,0,-1
769 1218 m 0,4,5
 729 1218 729 1218 700 1246 c 128,-1,6
 671 1274 671 1274 671 1317 c 0,7,8
 671 1359 671 1359 699.5 1387 c 128,-1,9
 728 1415 728 1415 767 1415 c 0,10,11
 809 1415 809 1415 838.5 1386.5 c 128,-1,12
 868 1358 868 1358 868 1317 c 256,13,14
 868 1276 868 1276 839.5 1247 c 128,-1,15
 811 1218 811 1218 769 1218 c 0,4,5
385 1218 m 256,16,17
 344 1218 344 1218 314 1246.5 c 128,-1,18
 284 1275 284 1275 284 1317 c 256,19,20
 284 1359 284 1359 312.5 1387 c 128,-1,21
 341 1415 341 1415 383 1415 c 0,22,23
 424 1415 424 1415 453.5 1386.5 c 128,-1,24
 483 1358 483 1358 483 1317 c 256,25,26
 483 1276 483 1276 454.5 1247 c 128,-1,27
 426 1218 426 1218 385 1218 c 256,16,17
11 2041 m 1,28,-1
 827 1213 l 1,29,-1
 827 141 l 1,30,-1
 770 0 l 1,31,-1
 713 141 l 1,32,-1
 714 1164 l 1,33,-1
 122 1763 l 1,34,-1
 122 141 l 1,35,-1
 66 0 l 1,36,-1
 9 141 l 1,37,-1
 11 2041 l 1,28,-1
EndSplineSet
EndChar
StartChar: uni01D7
Encoding: 471 471 408
Width: 1149
Flags: W
LayerCount: 2
Back
Fore
SplineSet
1015 2114 m 1,0,-1
 752 1786 l 1,1,-1
 626 1786 l 1,2,-1
 849 2114 l 1,3,-1
 1015 2114 l 1,0,-1
898 1570 m 0,4,5
 858 1570 858 1570 829 1598 c 128,-1,6
 800 1626 800 1626 800 1669 c 0,7,8
 800 1711 800 1711 827.5 1739 c 128,-1,9
 855 1767 855 1767 896 1767 c 0,10,11
 938 1767 938 1767 967 1738.5 c 128,-1,12
 996 1710 996 1710 996 1669 c 256,13,14
 996 1628 996 1628 968 1599 c 128,-1,15
 940 1570 940 1570 898 1570 c 0,4,5
513 1570 m 256,16,17
 472 1570 472 1570 442 1598.5 c 128,-1,18
 412 1627 412 1627 412 1669 c 0,19,20
 412 1710 412 1710 440.5 1738.5 c 128,-1,21
 469 1767 469 1767 511 1767 c 0,22,23
 552 1767 552 1767 582 1738.5 c 128,-1,24
 612 1710 612 1710 612 1669 c 256,25,26
 612 1628 612 1628 583 1599 c 128,-1,27
 554 1570 554 1570 513 1570 c 256,16,17
276 2393 m 128,-1,29
 276 2460 276 2460 326.5 2507 c 128,-1,30
 377 2554 377 2554 448 2554 c 128,-1,31
 519 2554 519 2554 569.5 2507 c 128,-1,32
 620 2460 620 2460 620 2393 c 128,-1,33
 620 2326 620 2326 569.5 2279 c 128,-1,34
 519 2232 519 2232 448 2232 c 128,-1,35
 377 2232 377 2232 326.5 2279 c 128,-1,28
 276 2326 276 2326 276 2393 c 128,-1,29
888 2041 m 1,36,-1
 72 1214 l 1,37,-1
 72 141 l 1,38,-1
 129 0 l 1,39,-1
 185 141 l 1,40,-1
 185 1165 l 1,41,-1
 777 1764 l 1,42,-1
 777 141 l 1,43,-1
 833 0 l 1,44,-1
 890 141 l 1,45,-1
 888 2041 l 1,36,-1
EndSplineSet
EndChar
StartChar: uni01D8
Encoding: 472 472 409
Width: 918
Flags: W
LayerCount: 2
Back
Fore
SplineSet
887 1762 m 1,0,-1
 624 1434 l 1,1,-1
 498 1434 l 1,2,-1
 721 1762 l 1,3,-1
 887 1762 l 1,0,-1
770 1218 m 0,4,5
 730 1218 730 1218 701 1246 c 128,-1,6
 672 1274 672 1274 672 1317 c 0,7,8
 672 1359 672 1359 699.5 1387 c 128,-1,9
 727 1415 727 1415 768 1415 c 0,10,11
 810 1415 810 1415 839 1386.5 c 128,-1,12
 868 1358 868 1358 868 1317 c 256,13,14
 868 1276 868 1276 840 1247 c 128,-1,15
 812 1218 812 1218 770 1218 c 0,4,5
385 1218 m 256,16,17
 344 1218 344 1218 314 1246.5 c 128,-1,18
 284 1275 284 1275 284 1317 c 0,19,20
 284 1358 284 1358 312.5 1386.5 c 128,-1,21
 341 1415 341 1415 383 1415 c 0,22,23
 424 1415 424 1415 454 1386.5 c 128,-1,24
 484 1358 484 1358 484 1317 c 256,25,26
 484 1276 484 1276 455 1247 c 128,-1,27
 426 1218 426 1218 385 1218 c 256,16,17
11 2041 m 1,28,-1
 827 1213 l 1,29,-1
 827 141 l 1,30,-1
 770 0 l 1,31,-1
 713 141 l 1,32,-1
 714 1164 l 1,33,-1
 122 1763 l 1,34,-1
 122 141 l 1,35,-1
 66 0 l 1,36,-1
 9 141 l 1,37,-1
 11 2041 l 1,28,-1
EndSplineSet
EndChar
StartChar: uni01D9
Encoding: 473 473 410
Width: 1149
Flags: W
LayerCount: 2
Back
Fore
SplineSet
986 2138 m 1,0,-1
 773 1808 l 1,1,-1
 640 1808 l 1,2,-1
 425 2138 l 1,3,-1
 540 2138 l 1,4,-1
 704 1908 l 1,5,-1
 868 2138 l 1,6,-1
 986 2138 l 1,0,-1
898 1570 m 0,7,8
 858 1570 858 1570 829 1598 c 128,-1,9
 800 1626 800 1626 800 1669 c 0,10,11
 800 1711 800 1711 827.5 1739 c 128,-1,12
 855 1767 855 1767 896 1767 c 0,13,14
 938 1767 938 1767 967 1738.5 c 128,-1,15
 996 1710 996 1710 996 1669 c 256,16,17
 996 1628 996 1628 968 1599 c 128,-1,18
 940 1570 940 1570 898 1570 c 0,7,8
513 1570 m 256,19,20
 472 1570 472 1570 442 1598.5 c 128,-1,21
 412 1627 412 1627 412 1669 c 0,22,23
 412 1710 412 1710 440.5 1738.5 c 128,-1,24
 469 1767 469 1767 511 1767 c 0,25,26
 552 1767 552 1767 582 1738.5 c 128,-1,27
 612 1710 612 1710 612 1669 c 256,28,29
 612 1628 612 1628 583 1599 c 128,-1,30
 554 1570 554 1570 513 1570 c 256,19,20
276 2393 m 128,-1,32
 276 2460 276 2460 326.5 2507 c 128,-1,33
 377 2554 377 2554 448 2554 c 128,-1,34
 519 2554 519 2554 569.5 2507 c 128,-1,35
 620 2460 620 2460 620 2393 c 128,-1,36
 620 2326 620 2326 569.5 2279 c 128,-1,37
 519 2232 519 2232 448 2232 c 128,-1,38
 377 2232 377 2232 326.5 2279 c 128,-1,31
 276 2326 276 2326 276 2393 c 128,-1,32
888 2041 m 1,39,-1
 72 1214 l 1,40,-1
 72 141 l 1,41,-1
 129 0 l 1,42,-1
 185 141 l 1,43,-1
 185 1165 l 1,44,-1
 777 1764 l 1,45,-1
 777 141 l 1,46,-1
 833 0 l 1,47,-1
 890 141 l 1,48,-1
 888 2041 l 1,39,-1
EndSplineSet
EndChar
StartChar: uni01DA
Encoding: 474 474 411
Width: 918
Flags: W
LayerCount: 2
Back
Fore
SplineSet
858 1786 m 1,0,-1
 645 1456 l 1,1,-1
 512 1456 l 1,2,-1
 297 1786 l 1,3,-1
 412 1786 l 1,4,-1
 576 1556 l 1,5,-1
 740 1786 l 1,6,-1
 858 1786 l 1,0,-1
770 1218 m 0,7,8
 730 1218 730 1218 701 1246 c 128,-1,9
 672 1274 672 1274 672 1317 c 0,10,11
 672 1359 672 1359 699.5 1387 c 128,-1,12
 727 1415 727 1415 768 1415 c 0,13,14
 810 1415 810 1415 839 1386.5 c 128,-1,15
 868 1358 868 1358 868 1317 c 256,16,17
 868 1276 868 1276 840 1247 c 128,-1,18
 812 1218 812 1218 770 1218 c 0,7,8
385 1218 m 256,19,20
 344 1218 344 1218 314 1246.5 c 128,-1,21
 284 1275 284 1275 284 1317 c 0,22,23
 284 1358 284 1358 312.5 1386.5 c 128,-1,24
 341 1415 341 1415 383 1415 c 0,25,26
 424 1415 424 1415 454 1386.5 c 128,-1,27
 484 1358 484 1358 484 1317 c 256,28,29
 484 1276 484 1276 455 1247 c 128,-1,30
 426 1218 426 1218 385 1218 c 256,19,20
11 2041 m 1,31,-1
 827 1213 l 1,32,-1
 827 141 l 1,33,-1
 770 0 l 1,34,-1
 713 141 l 1,35,-1
 714 1164 l 1,36,-1
 122 1763 l 1,37,-1
 122 141 l 1,38,-1
 66 0 l 1,39,-1
 9 141 l 1,40,-1
 11 2041 l 1,31,-1
EndSplineSet
EndChar
StartChar: uni01DB
Encoding: 475 475 412
Width: 1149
Flags: W
LayerCount: 2
Back
Fore
SplineSet
783 1786 m 1,0,-1
 656 1786 l 1,1,-1
 393 2114 l 1,2,-1
 559 2114 l 1,3,-1
 783 1786 l 1,0,-1
895 1570 m 256,4,5
 854 1570 854 1570 825.5 1599 c 128,-1,6
 797 1628 797 1628 797 1669 c 256,7,8
 797 1710 797 1710 826.5 1738.5 c 128,-1,9
 856 1767 856 1767 897 1767 c 0,10,11
 939 1767 939 1767 967.5 1738.5 c 128,-1,12
 996 1710 996 1710 996 1669 c 0,13,14
 996 1627 996 1627 966 1598.5 c 128,-1,15
 936 1570 936 1570 895 1570 c 256,4,5
511 1570 m 0,16,17
 469 1570 469 1570 440.5 1599 c 128,-1,18
 412 1628 412 1628 412 1669 c 256,19,20
 412 1710 412 1710 441.5 1738.5 c 128,-1,21
 471 1767 471 1767 513 1767 c 0,22,23
 552 1767 552 1767 580.5 1739 c 128,-1,24
 609 1711 609 1711 609 1669 c 0,25,26
 609 1626 609 1626 580 1598 c 128,-1,27
 551 1570 551 1570 511 1570 c 0,16,17
276 2393 m 128,-1,29
 276 2460 276 2460 326.5 2507 c 128,-1,30
 377 2554 377 2554 448 2554 c 128,-1,31
 519 2554 519 2554 569.5 2507 c 128,-1,32
 620 2460 620 2460 620 2393 c 128,-1,33
 620 2326 620 2326 569.5 2279 c 128,-1,34
 519 2232 519 2232 448 2232 c 128,-1,35
 377 2232 377 2232 326.5 2279 c 128,-1,28
 276 2326 276 2326 276 2393 c 128,-1,29
888 2041 m 1,36,-1
 72 1214 l 1,37,-1
 72 141 l 1,38,-1
 129 0 l 1,39,-1
 185 141 l 1,40,-1
 185 1165 l 1,41,-1
 777 1764 l 1,42,-1
 777 141 l 1,43,-1
 833 0 l 1,44,-1
 890 141 l 1,45,-1
 888 2041 l 1,36,-1
EndSplineSet
EndChar
StartChar: uni01DC
Encoding: 476 476 413
Width: 918
Flags: W
LayerCount: 2
Back
Fore
SplineSet
656 1434 m 1,0,-1
 529 1434 l 1,1,-1
 266 1762 l 1,2,-1
 432 1762 l 1,3,-1
 656 1434 l 1,0,-1
768 1218 m 256,4,5
 727 1218 727 1218 698.5 1247 c 128,-1,6
 670 1276 670 1276 670 1317 c 256,7,8
 670 1358 670 1358 699.5 1386.5 c 128,-1,9
 729 1415 729 1415 770 1415 c 0,10,11
 812 1415 812 1415 840.5 1386.5 c 128,-1,12
 869 1358 869 1358 869 1317 c 0,13,14
 869 1275 869 1275 839 1246.5 c 128,-1,15
 809 1218 809 1218 768 1218 c 256,4,5
384 1218 m 0,16,17
 342 1218 342 1218 313.5 1247 c 128,-1,18
 285 1276 285 1276 285 1317 c 256,19,20
 285 1358 285 1358 314.5 1386.5 c 128,-1,21
 344 1415 344 1415 386 1415 c 0,22,23
 425 1415 425 1415 453.5 1387 c 128,-1,24
 482 1359 482 1359 482 1317 c 0,25,26
 482 1274 482 1274 453 1246 c 128,-1,27
 424 1218 424 1218 384 1218 c 0,16,17
11 2041 m 1,28,-1
 827 1213 l 1,29,-1
 827 141 l 1,30,-1
 770 0 l 1,31,-1
 713 141 l 1,32,-1
 714 1164 l 1,33,-1
 122 1763 l 1,34,-1
 122 141 l 1,35,-1
 66 0 l 1,36,-1
 9 141 l 1,37,-1
 11 2041 l 1,28,-1
EndSplineSet
EndChar
StartChar: uni01DE
Encoding: 478 478 415
Width: 765
Flags: W
LayerCount: 2
Back
Fore
SplineSet
905 1837 m 1,0,-1
 397 1837 l 1,1,-1
 397 1946 l 1,2,-1
 905 1946 l 1,3,-1
 905 1837 l 1,0,-1
843 1570 m 0,4,5
 803 1570 803 1570 774 1598 c 128,-1,6
 745 1626 745 1626 745 1669 c 0,7,8
 745 1711 745 1711 773.5 1739 c 128,-1,9
 802 1767 802 1767 841 1767 c 0,10,11
 883 1767 883 1767 912.5 1738.5 c 128,-1,12
 942 1710 942 1710 942 1669 c 256,13,14
 942 1628 942 1628 913.5 1599 c 128,-1,15
 885 1570 885 1570 843 1570 c 0,4,5
459 1570 m 256,16,17
 418 1570 418 1570 388 1598.5 c 128,-1,18
 358 1627 358 1627 358 1669 c 256,19,20
 358 1711 358 1711 386.5 1739 c 128,-1,21
 415 1767 415 1767 457 1767 c 0,22,23
 498 1767 498 1767 527.5 1738.5 c 128,-1,24
 557 1710 557 1710 557 1669 c 256,25,26
 557 1628 557 1628 528.5 1599 c 128,-1,27
 500 1570 500 1570 459 1570 c 256,16,17
12 2408.5 m 128,-1,29
 12 2475 12 2475 62 2522.5 c 128,-1,30
 112 2570 112 2570 184 2570 c 128,-1,31
 256 2570 256 2570 306 2522.5 c 128,-1,32
 356 2475 356 2475 356 2408.5 c 128,-1,33
 356 2342 356 2342 306 2295 c 128,-1,34
 256 2248 256 2248 184 2248 c 128,-1,35
 112 2248 112 2248 62 2295 c 128,-1,28
 12 2342 12 2342 12 2408.5 c 128,-1,29
10 144 m 1,36,37
 10 749 10 749 10.5 1073 c 128,-1,38
 11 1397 11 1397 11 1570 c 2,39,-1
 11 1829 l 1,40,-1
 11 2043 l 1,41,-1
 615 1419 l 1,42,-1
 682 1274 l 1,43,-1
 548 1331 l 1,44,-1
 126 1779 l 1,45,-1
 126 1352 l 1,46,-1
 615 838 l 1,47,-1
 682 693 l 1,48,-1
 548 750 l 1,49,-1
 126 1197 l 1,50,-1
 126 144 l 1,51,-1
 68 0 l 1,52,-1
 10 144 l 1,36,37
EndSplineSet
EndChar
StartChar: uni01DF
Encoding: 479 479 416
Width: 1034
Flags: W
LayerCount: 2
Back
Fore
SplineSet
761 1485 m 1,0,-1
 253 1485 l 1,1,-1
 253 1594 l 1,2,-1
 761 1594 l 1,3,-1
 761 1485 l 1,0,-1
699 1218 m 0,4,5
 659 1218 659 1218 630 1246 c 128,-1,6
 601 1274 601 1274 601 1317 c 0,7,8
 601 1359 601 1359 629.5 1387 c 128,-1,9
 658 1415 658 1415 697 1415 c 0,10,11
 739 1415 739 1415 768.5 1386.5 c 128,-1,12
 798 1358 798 1358 798 1317 c 256,13,14
 798 1276 798 1276 769.5 1247 c 128,-1,15
 741 1218 741 1218 699 1218 c 0,4,5
315 1218 m 256,16,17
 274 1218 274 1218 244 1246.5 c 128,-1,18
 214 1275 214 1275 214 1317 c 256,19,20
 214 1359 214 1359 242.5 1387 c 128,-1,21
 271 1415 271 1415 313 1415 c 0,22,23
 354 1415 354 1415 383.5 1386.5 c 128,-1,24
 413 1358 413 1358 413 1317 c 256,25,26
 413 1276 413 1276 384.5 1247 c 128,-1,27
 356 1218 356 1218 315 1218 c 256,16,17
1 143 m 1,28,29
 1 747 1 747 1 1071.5 c 128,-1,30
 1 1396 1 1396 1 1569 c 128,-1,31
 1 1742 1 1742 1 1828 c 128,-1,32
 1 1914 1 1914 1 2043 c 1,33,-1
 606 1419 l 1,34,-1
 673 1274 l 1,35,-1
 539 1331 l 1,36,-1
 116 1779 l 1,37,-1
 116 1352 l 1,38,-1
 606 837 l 1,39,-1
 673 692 l 1,40,-1
 539 750 l 1,41,-1
 116 1197 l 1,42,-1
 116 143 l 1,43,-1
 58 0 l 1,44,-1
 1 143 l 1,28,29
EndSplineSet
EndChar
StartChar: uni01E0
Encoding: 480 480 417
Width: 765
Flags: W
LayerCount: 2
Back
Fore
SplineSet
916 1837 m 1,0,-1
 408 1837 l 1,1,-1
 408 1946 l 1,2,-1
 916 1946 l 1,3,-1
 916 1837 l 1,0,-1
662 1575 m 0,4,5
 622 1575 622 1575 593 1603.5 c 128,-1,6
 564 1632 564 1632 564 1674 c 0,7,8
 564 1715 564 1715 593 1742.5 c 128,-1,9
 622 1770 622 1770 662 1770 c 0,10,11
 703 1770 703 1770 731.5 1742.5 c 128,-1,12
 760 1715 760 1715 760 1674 c 256,13,14
 760 1633 760 1633 731.5 1604 c 128,-1,15
 703 1575 703 1575 662 1575 c 0,4,5
12 2408.5 m 128,-1,17
 12 2475 12 2475 62 2522.5 c 128,-1,18
 112 2570 112 2570 184 2570 c 128,-1,19
 256 2570 256 2570 306 2522.5 c 128,-1,20
 356 2475 356 2475 356 2408.5 c 128,-1,21
 356 2342 356 2342 306 2295 c 128,-1,22
 256 2248 256 2248 184 2248 c 128,-1,23
 112 2248 112 2248 62 2295 c 128,-1,16
 12 2342 12 2342 12 2408.5 c 128,-1,17
10 144 m 1,24,25
 10 749 10 749 10.5 1073 c 128,-1,26
 11 1397 11 1397 11 1570 c 2,27,-1
 11 1829 l 1,28,-1
 11 2043 l 1,29,-1
 615 1419 l 1,30,-1
 682 1274 l 1,31,-1
 548 1331 l 1,32,-1
 126 1779 l 1,33,-1
 126 1352 l 1,34,-1
 615 838 l 1,35,-1
 682 693 l 1,36,-1
 548 750 l 1,37,-1
 126 1197 l 1,38,-1
 126 144 l 1,39,-1
 68 0 l 1,40,-1
 10 144 l 1,24,25
EndSplineSet
EndChar
StartChar: uni01E1
Encoding: 481 481 418
Width: 1034
Flags: W
LayerCount: 2
Back
Fore
SplineSet
772 1480 m 1,0,-1
 264 1480 l 1,1,-1
 264 1589 l 1,2,-1
 772 1589 l 1,3,-1
 772 1480 l 1,0,-1
518 1218 m 0,4,5
 478 1218 478 1218 449 1246.5 c 128,-1,6
 420 1275 420 1275 420 1317 c 0,7,8
 420 1358 420 1358 449 1385.5 c 128,-1,9
 478 1413 478 1413 518 1413 c 0,10,11
 559 1413 559 1413 587.5 1385.5 c 128,-1,12
 616 1358 616 1358 616 1317 c 256,13,14
 616 1276 616 1276 587.5 1247 c 128,-1,15
 559 1218 559 1218 518 1218 c 0,4,5
1 143 m 1,16,17
 1 747 1 747 1 1071.5 c 128,-1,18
 1 1396 1 1396 1 1569 c 128,-1,19
 1 1742 1 1742 1 1828 c 128,-1,20
 1 1914 1 1914 1 2043 c 1,21,-1
 606 1419 l 1,22,-1
 673 1274 l 1,23,-1
 539 1331 l 1,24,-1
 116 1779 l 1,25,-1
 116 1352 l 1,26,-1
 606 837 l 1,27,-1
 673 692 l 1,28,-1
 539 750 l 1,29,-1
 116 1197 l 1,30,-1
 116 143 l 1,31,-1
 58 0 l 1,32,-1
 1 143 l 1,16,17
EndSplineSet
EndChar
StartChar: uni01E4
Encoding: 484 484 421
Width: 1405
Flags: W
LayerCount: 2
Back
Fore
SplineSet
1405 305 m 1,0,-1
 1260 305 l 1,1,-1
 1260 98 l 1,2,3
 1044 -24 1044 -24 780 -24 c 0,4,5
 473 -24 473 -24 283.5 174 c 128,-1,6
 94 372 94 372 94 698 c 0,7,8
 94 1031 94 1031 304.5 1244.5 c 128,-1,9
 515 1458 515 1458 838 1458 c 0,10,11
 1072 1458 1072 1458 1231 1382 c 1,12,-1
 1231 1196 l 1,13,14
 1057 1306 1057 1306 819 1306 c 0,15,16
 578 1306 578 1306 424 1140 c 128,-1,17
 270 974 270 974 270 710 c 0,18,19
 270 438 270 438 413 282.5 c 128,-1,20
 556 127 556 127 801 127 c 0,21,22
 969 127 969 127 1092 194 c 1,23,-1
 1092 305 l 1,24,-1
 780 305 l 1,25,-1
 780 444 l 1,26,-1
 1092 444 l 1,27,-1
 1092 596 l 1,28,-1
 778 596 l 1,29,-1
 778 748 l 1,30,-1
 1260 748 l 1,31,-1
 1260 444 l 1,32,-1
 1405 444 l 1,33,-1
 1405 305 l 1,0,-1
EndSplineSet
EndChar
StartChar: uni01E5
Encoding: 485 485 422
Width: 1206
Flags: W
LayerCount: 2
Back
Fore
SplineSet
1206 -209 m 1,0,-1
 987 -209 l 1,1,2
 868 -482 868 -482 500 -482 c 0,3,4
 310 -482 310 -482 168 -410 c 1,5,-1
 168 -246 l 1,6,7
 341 -342 341 -342 498 -342 c 0,8,9
 716 -342 716 -342 809 -209 c 1,10,-1
 477 -209 l 1,11,-1
 477 -70 l 1,12,-1
 864 -70 l 1,13,14
 876 -9 876 -9 876 60 c 2,15,-1
 876 213 l 1,16,-1
 872 213 l 1,17,18
 755 16 755 16 520 16 c 0,19,20
 331 16 331 16 213.5 150 c 128,-1,21
 96 284 96 284 96 500 c 0,22,23
 96 745 96 745 224 896.5 c 128,-1,24
 352 1048 352 1048 565 1048 c 0,25,26
 772 1048 772 1048 872 882 c 1,27,-1
 876 882 l 1,28,-1
 876 1024 l 1,29,-1
 1040 1024 l 1,30,-1
 1040 82 l 2,31,32
 1040 2 1040 2 1028 -70 c 1,33,-1
 1206 -70 l 1,34,-1
 1206 -209 l 1,0,-1
876 504 m 2,35,-1
 876 614 l 2,36,37
 876 736 876 736 793.5 823 c 128,-1,38
 711 910 711 910 588 910 c 0,39,40
 437 910 437 910 350.5 803 c 128,-1,41
 264 696 264 696 264 510 c 0,42,43
 264 353 264 353 347.5 254.5 c 128,-1,44
 431 156 431 156 565 156 c 0,45,46
 703 156 703 156 789.5 253 c 128,-1,47
 876 350 876 350 876 504 c 2,35,-1
EndSplineSet
EndChar
StartChar: uni01EA
Encoding: 490 490 427
Width: 1544
Flags: W
LayerCount: 2
Back
Fore
SplineSet
840 -20 m 1,0,1
 712 -146 712 -146 712 -223 c 0,2,3
 712 -293 712 -293 780 -293 c 0,4,5
 810 -293 810 -293 836 -280 c 1,6,-1
 836 -387 l 1,7,8
 806 -400 806 -400 754 -400 c 0,9,10
 678 -400 678 -400 632 -360 c 128,-1,11
 586 -320 586 -320 586 -250 c 0,12,13
 586 -139 586 -139 717 -22 c 1,14,15
 434 -5 434 -5 264 193.5 c 128,-1,16
 94 392 94 392 94 700 c 0,17,18
 94 1046 94 1046 281 1252 c 128,-1,19
 468 1458 468 1458 790 1458 c 0,20,21
 1087 1458 1087 1458 1268.5 1258 c 128,-1,22
 1450 1058 1450 1058 1450 735 c 0,23,24
 1450 409 1450 409 1286.5 206.5 c 128,-1,25
 1123 4 1123 4 840 -20 c 1,0,1
778 1306 m 0,26,27
 552 1306 552 1306 411 1143 c 128,-1,28
 270 980 270 980 270 715 c 256,29,30
 270 450 270 450 407.5 288.5 c 128,-1,31
 545 127 545 127 766 127 c 0,32,33
 1002 127 1002 127 1138 281 c 128,-1,34
 1274 435 1274 435 1274 712 c 0,35,36
 1274 996 1274 996 1142 1151 c 128,-1,37
 1010 1306 1010 1306 778 1306 c 0,26,27
EndSplineSet
EndChar
StartChar: uni01EB
Encoding: 491 491 428
Width: 1200
Flags: W
LayerCount: 2
Back
Fore
SplineSet
674 -20 m 1,0,1
 545 -148 545 -148 545 -223 c 0,2,3
 545 -293 545 -293 612 -293 c 0,4,5
 642 -293 642 -293 668 -280 c 1,6,-1
 668 -387 l 1,7,8
 638 -400 638 -400 586 -400 c 0,9,10
 510 -400 510 -400 464 -360 c 128,-1,11
 418 -320 418 -320 418 -250 c 0,12,13
 418 -139 418 -139 549 -22 c 1,14,15
 341 -8 341 -8 218.5 134 c 128,-1,16
 96 276 96 276 96 500 c 0,17,18
 96 758 96 758 237 903 c 128,-1,19
 378 1048 378 1048 618 1048 c 0,20,21
 847 1048 847 1048 975.5 907 c 128,-1,22
 1104 766 1104 766 1104 516 c 0,23,24
 1104 294 1104 294 989 149.5 c 128,-1,25
 874 5 874 5 674 -20 c 1,0,1
606 910 m 0,26,27
 448 910 448 910 356 802.5 c 128,-1,28
 264 695 264 695 264 506 c 0,29,30
 264 324 264 324 357 219 c 128,-1,31
 450 114 450 114 606 114 c 0,32,33
 765 114 765 114 850.5 217 c 128,-1,34
 936 320 936 320 936 510 c 0,35,36
 936 702 936 702 850.5 806 c 128,-1,37
 765 910 765 910 606 910 c 0,26,27
EndSplineSet
EndChar
StartChar: uni01F6
Encoding: 502 502 439
Width: 2046
Flags: W
LayerCount: 2
Back
Fore
SplineSet
1913 428 m 2,0,1
 1913 214 1913 214 1797 95 c 128,-1,2
 1681 -24 1681 -24 1476 -24 c 0,3,4
 1275 -24 1275 -24 1166 90.5 c 128,-1,5
 1057 205 1057 205 1057 416 c 2,6,-1
 1057 654 l 1,7,-1
 356 654 l 1,8,-1
 356 0 l 1,9,-1
 188 0 l 1,10,-1
 188 1434 l 1,11,-1
 356 1434 l 1,12,-1
 356 805 l 1,13,-1
 1057 805 l 1,14,-1
 1057 1434 l 1,15,-1
 1224 1434 l 1,16,-1
 1224 430 l 2,17,18
 1224 127 1224 127 1485 127 c 0,19,20
 1745 127 1745 127 1745 424 c 2,21,-1
 1745 1024 l 1,22,-1
 1913 1024 l 1,23,-1
 1913 428 l 2,0,1
EndSplineSet
EndChar
StartChar: uni01F7
Encoding: 503 503 440
Width: 1411
Flags: W
LayerCount: 2
Back
Fore
SplineSet
356 -58 m 1,0,-1
 356 -471 l 1,1,-1
 188 -471 l 1,2,-1
 188 1434 l 1,3,-1
 356 1434 l 1,4,-1
 356 1208 l 1,5,6
 591 1458 591 1458 876 1458 c 0,7,8
 1070 1458 1070 1458 1194.5 1323 c 128,-1,9
 1319 1188 1319 1188 1319 989 c 0,10,11
 1319 668 1319 668 1064.5 393.5 c 128,-1,12
 810 119 810 119 356 -58 c 1,0,-1
356 1014 m 1,13,-1
 356 110 l 1,14,15
 709 255 709 255 926 483.5 c 128,-1,16
 1143 712 1143 712 1143 971 c 0,17,18
 1143 1113 1143 1113 1061.5 1207.5 c 128,-1,19
 980 1302 980 1302 844 1302 c 0,20,21
 610 1302 610 1302 356 1014 c 1,13,-1
EndSplineSet
EndChar
StartChar: uni0202
Encoding: 514 514 451
Width: 765
Flags: W
LayerCount: 2
Back
Fore
SplineSet
880 1538 m 1,0,-1
 774 1538 l 1,1,2
 750 1677 750 1677 600 1677 c 256,3,4
 450 1677 450 1677 426 1538 c 1,5,-1
 320 1538 l 1,6,7
 330 1644 330 1644 407 1710 c 128,-1,8
 484 1776 484 1776 600 1776 c 256,9,10
 716 1776 716 1776 793 1709.5 c 128,-1,11
 870 1643 870 1643 880 1538 c 1,0,-1
12 2408.5 m 128,-1,13
 12 2475 12 2475 62 2522.5 c 128,-1,14
 112 2570 112 2570 184 2570 c 128,-1,15
 256 2570 256 2570 306 2522.5 c 128,-1,16
 356 2475 356 2475 356 2408.5 c 128,-1,17
 356 2342 356 2342 306 2295 c 128,-1,18
 256 2248 256 2248 184 2248 c 128,-1,19
 112 2248 112 2248 62 2295 c 128,-1,12
 12 2342 12 2342 12 2408.5 c 128,-1,13
10 144 m 1,20,21
 10 749 10 749 10.5 1073 c 128,-1,22
 11 1397 11 1397 11 1570 c 2,23,-1
 11 1829 l 1,24,-1
 11 2043 l 1,25,-1
 615 1419 l 1,26,-1
 682 1274 l 1,27,-1
 548 1331 l 1,28,-1
 126 1779 l 1,29,-1
 126 1352 l 1,30,-1
 615 838 l 1,31,-1
 682 693 l 1,32,-1
 548 750 l 1,33,-1
 126 1197 l 1,34,-1
 126 144 l 1,35,-1
 68 0 l 1,36,-1
 10 144 l 1,20,21
EndSplineSet
EndChar
StartChar: uni0203
Encoding: 515 515 452
Width: 1034
Flags: W
LayerCount: 2
Back
Fore
SplineSet
798 1230 m 1,0,-1
 692 1230 l 1,1,2
 668 1369 668 1369 518 1369 c 256,3,4
 368 1369 368 1369 344 1230 c 1,5,-1
 238 1230 l 1,6,7
 248 1336 248 1336 325 1402 c 128,-1,8
 402 1468 402 1468 518 1468 c 256,9,10
 634 1468 634 1468 711 1401.5 c 128,-1,11
 788 1335 788 1335 798 1230 c 1,0,-1
1 143 m 1,12,13
 1 747 1 747 1 1071.5 c 128,-1,14
 1 1396 1 1396 1 1569 c 128,-1,15
 1 1742 1 1742 1 1828 c 128,-1,16
 1 1914 1 1914 1 2043 c 1,17,-1
 606 1419 l 1,18,-1
 673 1274 l 1,19,-1
 539 1331 l 1,20,-1
 116 1779 l 1,21,-1
 116 1352 l 1,22,-1
 606 837 l 1,23,-1
 673 692 l 1,24,-1
 539 750 l 1,25,-1
 116 1197 l 1,26,-1
 116 143 l 1,27,-1
 58 0 l 1,28,-1
 1 143 l 1,12,13
EndSplineSet
EndChar
StartChar: uni0206
Encoding: 518 518 455
Width: 1359
Flags: W
LayerCount: 2
Back
Fore
SplineSet
835 1578 m 1,0,-1
 729 1578 l 1,1,2
 705 1717 705 1717 555 1717 c 256,3,4
 405 1717 405 1717 381 1578 c 1,5,-1
 275 1578 l 1,6,7
 285 1684 285 1684 362 1750 c 128,-1,8
 439 1816 439 1816 555 1816 c 256,9,10
 671 1816 671 1816 748 1749.5 c 128,-1,11
 825 1683 825 1683 835 1578 c 1,0,-1
472 2393.5 m 128,-1,13
 472 2460 472 2460 522 2507.5 c 128,-1,14
 572 2555 572 2555 644 2555 c 128,-1,15
 716 2555 716 2555 766 2507.5 c 128,-1,16
 816 2460 816 2460 816 2393.5 c 128,-1,17
 816 2327 816 2327 766 2280 c 128,-1,18
 716 2233 716 2233 644 2233 c 128,-1,19
 572 2233 572 2233 522 2280 c 128,-1,12
 472 2327 472 2327 472 2393.5 c 128,-1,13
638 1454 m 1,20,-1
 48 2044 l 1,21,-1
 49 142 l 1,22,-1
 106 0 l 1,23,-1
 164 142 l 1,24,-1
 164 1773 l 1,25,-1
 638 1289 l 1,26,-1
 1112 1774 l 1,27,-1
 1112 142 l 1,28,-1
 1169 0 l 1,29,-1
 1227 142 l 1,30,-1
 1228 2043 l 1,31,-1
 638 1454 l 1,20,-1
EndSplineSet
EndChar
StartChar: uni0207
Encoding: 519 519 456
Width: 1297
Flags: W
LayerCount: 2
Back
Fore
SplineSet
816 1230 m 1,0,-1
 710 1230 l 1,1,2
 686 1369 686 1369 536 1369 c 256,3,4
 386 1369 386 1369 362 1230 c 1,5,-1
 256 1230 l 1,6,7
 266 1336 266 1336 343 1402 c 128,-1,8
 420 1468 420 1468 536 1468 c 256,9,10
 652 1468 652 1468 729 1401.5 c 128,-1,11
 806 1335 806 1335 816 1230 c 1,0,-1
598 1454 m 1,12,-1
 1188 2044 l 1,13,-1
 1187 143 l 1,14,-1
 1130 0 l 1,15,-1
 1072 143 l 1,16,-1
 1072 1774 l 1,17,-1
 598 1290 l 1,18,-1
 124 1774 l 1,19,-1
 124 143 l 1,20,-1
 67 0 l 1,21,-1
 9 143 l 1,22,-1
 8 2043 l 1,23,-1
 598 1454 l 1,12,-1
EndSplineSet
EndChar
StartChar: uni020A
Encoding: 522 522 459
Width: 604
Flags: W
LayerCount: 2
Back
Fore
SplineSet
552 1578 m 1,0,-1
 446 1578 l 1,1,2
 422 1717 422 1717 272 1717 c 256,3,4
 122 1717 122 1717 98 1578 c 1,5,-1
 -8 1578 l 1,6,7
 2 1684 2 1684 79 1750 c 128,-1,8
 156 1816 156 1816 272 1816 c 256,9,10
 388 1816 388 1816 465 1749.5 c 128,-1,11
 542 1683 542 1683 552 1578 c 1,0,-1
53 2402 m 128,-1,13
 53 2469 53 2469 103.5 2516 c 128,-1,14
 154 2563 154 2563 225 2563 c 128,-1,15
 296 2563 296 2563 346.5 2516 c 128,-1,16
 397 2469 397 2469 397 2402 c 128,-1,17
 397 2335 397 2335 346.5 2288 c 128,-1,18
 296 2241 296 2241 225 2241 c 128,-1,19
 154 2241 154 2241 103.5 2288 c 128,-1,12
 53 2335 53 2335 53 2402 c 128,-1,13
283 147 m 1,20,-1
 224 0 l 1,21,-1
 165 147 l 1,22,-1
 165 1893 l 1,23,-1
 224 2041 l 1,24,-1
 283 1893 l 1,25,-1
 283 147 l 1,20,-1
EndSplineSet
EndChar
StartChar: uni020E
Encoding: 526 526 463
Width: 1580
Flags: W
LayerCount: 2
Back
Fore
SplineSet
1052 1578 m 1,0,-1
 946 1578 l 1,1,2
 922 1717 922 1717 772 1717 c 256,3,4
 622 1717 622 1717 598 1578 c 1,5,-1
 492 1578 l 1,6,7
 502 1684 502 1684 579 1750 c 128,-1,8
 656 1816 656 1816 772 1816 c 256,9,10
 888 1816 888 1816 965 1749.5 c 128,-1,11
 1042 1683 1042 1683 1052 1578 c 1,0,-1
580 2393 m 128,-1,13
 580 2460 580 2460 630.5 2507 c 128,-1,14
 681 2554 681 2554 752 2554 c 128,-1,15
 823 2554 823 2554 873.5 2507 c 128,-1,16
 924 2460 924 2460 924 2393 c 128,-1,17
 924 2326 924 2326 873.5 2279 c 128,-1,18
 823 2232 823 2232 752 2232 c 128,-1,19
 681 2232 681 2232 630.5 2279 c 128,-1,12
 580 2326 580 2326 580 2393 c 128,-1,13
826 741 m 1,20,-1
 1442 1358 l 1,21,-1
 826 1974 l 1,22,-1
 742 2058 l 1,23,-1
 42 1358 l 1,24,-1
 658 741 l 1,25,-1
 83 166 l 1,26,-1
 21 20 l 1,27,-1
 167 82 l 1,28,-1
 742 658 l 1,29,-1
 1318 82 l 1,30,-1
 1464 20 l 1,31,-1
 1402 166 l 1,32,-1
 826 741 l 1,20,-1
210 1357 m 1,33,-1
 743 1890 l 1,34,-1
 1275 1358 l 1,35,-1
 742 825 l 1,36,-1
 210 1357 l 1,33,-1
EndSplineSet
EndChar
StartChar: uni020F
Encoding: 527 527 464
Width: 1580
Flags: W
LayerCount: 2
Back
Fore
SplineSet
880 1230 m 1,0,-1
 774 1230 l 1,1,2
 750 1369 750 1369 600 1369 c 256,3,4
 450 1369 450 1369 426 1230 c 1,5,-1
 320 1230 l 1,6,7
 330 1336 330 1336 407 1402 c 128,-1,8
 484 1468 484 1468 600 1468 c 256,9,10
 716 1468 716 1468 793 1401.5 c 128,-1,11
 870 1335 870 1335 880 1230 c 1,0,-1
653 722 m 1,12,-1
 37 1338 l 1,13,-1
 653 1954 l 1,14,-1
 736 2038 l 1,15,-1
 1436 1339 l 1,16,-1
 820 722 l 1,17,-1
 1396 146 l 1,18,-1
 1458 0 l 1,19,-1
 1312 62 l 1,20,-1
 737 638 l 1,21,-1
 161 62 l 1,22,-1
 15 0 l 1,23,-1
 77 146 l 1,24,-1
 653 722 l 1,12,-1
1269 1338 m 1,25,-1
 736 1870 l 1,26,-1
 204 1338 l 1,27,-1
 737 805 l 1,28,-1
 1269 1338 l 1,25,-1
EndSplineSet
EndChar
StartChar: uni0212
Encoding: 530 530 467
Width: 857
Flags: W
LayerCount: 2
Back
Fore
SplineSet
878 1578 m 1,0,-1
 772 1578 l 1,1,2
 748 1717 748 1717 598 1717 c 256,3,4
 448 1717 448 1717 424 1578 c 1,5,-1
 318 1578 l 1,6,7
 328 1684 328 1684 405 1750 c 128,-1,8
 482 1816 482 1816 598 1816 c 256,9,10
 714 1816 714 1816 791 1749.5 c 128,-1,11
 868 1683 868 1683 878 1578 c 1,0,-1
157 2394 m 128,-1,13
 157 2461 157 2461 207.5 2508 c 128,-1,14
 258 2555 258 2555 329 2555 c 128,-1,15
 400 2555 400 2555 450.5 2508 c 128,-1,16
 501 2461 501 2461 501 2394 c 128,-1,17
 501 2327 501 2327 450.5 2280 c 128,-1,18
 400 2233 400 2233 329 2233 c 128,-1,19
 258 2233 258 2233 207.5 2280 c 128,-1,12
 157 2327 157 2327 157 2394 c 128,-1,13
145 878 m 1,20,-1
 145 168 l 1,21,-1
 88 26 l 1,22,-1
 30 168 l 1,23,-1
 30 2081 l 1,24,-1
 633 1485 l 1,25,-1
 164 1013 l 1,26,-1
 714 459 l 1,27,-1
 791 315 l 1,28,-1
 637 382 l 1,29,-1
 145 878 l 1,20,-1
479 1485 m 1,30,-1
 145 1822 l 1,31,-1
 145 1149 l 1,32,-1
 479 1485 l 1,30,-1
EndSplineSet
EndChar
StartChar: uni0213
Encoding: 531 531 468
Width: 857
Flags: W
LayerCount: 2
Back
Fore
SplineSet
714 1230 m 1,0,-1
 608 1230 l 1,1,2
 584 1369 584 1369 434 1369 c 256,3,4
 284 1369 284 1369 260 1230 c 1,5,-1
 154 1230 l 1,6,7
 164 1336 164 1336 241 1402 c 128,-1,8
 318 1468 318 1468 434 1468 c 256,9,10
 550 1468 550 1468 627 1401.5 c 128,-1,11
 704 1335 704 1335 714 1230 c 1,0,-1
123 852 m 1,12,-1
 123 143 l 1,13,-1
 66 0 l 1,14,-1
 9 143 l 1,15,-1
 8 2055 l 1,16,-1
 612 1459 l 1,17,-1
 143 987 l 1,18,-1
 692 434 l 1,19,-1
 769 289 l 1,20,-1
 616 357 l 1,21,-1
 123 852 l 1,12,-1
458 1459 m 1,22,-1
 123 1796 l 1,23,-1
 123 1123 l 1,24,-1
 458 1459 l 1,22,-1
EndSplineSet
EndChar
StartChar: uni0216
Encoding: 534 534 471
Width: 1149
Flags: W
LayerCount: 2
Back
Fore
SplineSet
984 1578 m 1,0,-1
 878 1578 l 1,1,2
 854 1717 854 1717 704 1717 c 256,3,4
 554 1717 554 1717 530 1578 c 1,5,-1
 424 1578 l 1,6,7
 434 1684 434 1684 511 1750 c 128,-1,8
 588 1816 588 1816 704 1816 c 256,9,10
 820 1816 820 1816 897 1749.5 c 128,-1,11
 974 1683 974 1683 984 1578 c 1,0,-1
276 2393 m 128,-1,13
 276 2460 276 2460 326.5 2507 c 128,-1,14
 377 2554 377 2554 448 2554 c 128,-1,15
 519 2554 519 2554 569.5 2507 c 128,-1,16
 620 2460 620 2460 620 2393 c 128,-1,17
 620 2326 620 2326 569.5 2279 c 128,-1,18
 519 2232 519 2232 448 2232 c 128,-1,19
 377 2232 377 2232 326.5 2279 c 128,-1,12
 276 2326 276 2326 276 2393 c 128,-1,13
888 2041 m 1,20,-1
 72 1214 l 1,21,-1
 72 141 l 1,22,-1
 129 0 l 1,23,-1
 185 141 l 1,24,-1
 185 1165 l 1,25,-1
 777 1764 l 1,26,-1
 777 141 l 1,27,-1
 833 0 l 1,28,-1
 890 141 l 1,29,-1
 888 2041 l 1,20,-1
EndSplineSet
EndChar
StartChar: uni0217
Encoding: 535 535 472
Width: 918
Flags: W
LayerCount: 2
Back
Fore
SplineSet
859 1230 m 1,0,-1
 753 1230 l 1,1,2
 729 1369 729 1369 579 1369 c 256,3,4
 429 1369 429 1369 405 1230 c 1,5,-1
 299 1230 l 1,6,7
 309 1336 309 1336 386 1402 c 128,-1,8
 463 1468 463 1468 579 1468 c 256,9,10
 695 1468 695 1468 772 1401.5 c 128,-1,11
 849 1335 849 1335 859 1230 c 1,0,-1
11 2041 m 1,12,-1
 827 1213 l 1,13,-1
 827 141 l 1,14,-1
 770 0 l 1,15,-1
 713 141 l 1,16,-1
 714 1164 l 1,17,-1
 122 1763 l 1,18,-1
 122 141 l 1,19,-1
 66 0 l 1,20,-1
 9 141 l 1,21,-1
 11 2041 l 1,12,-1
EndSplineSet
EndChar
StartChar: uni0218
Encoding: 536 536 473
Width: 943
Flags: W
LayerCount: 2
Back
Fore
SplineSet
631 -119 m 1,0,-1
 465 -379 l 1,1,-1
 342 -379 l 1,2,-1
 459 -119 l 1,3,-1
 631 -119 l 1,0,-1
234 2386.5 m 128,-1,5
 234 2453 234 2453 284 2500.5 c 128,-1,6
 334 2548 334 2548 406 2548 c 128,-1,7
 478 2548 478 2548 528 2500.5 c 128,-1,8
 578 2453 578 2453 578 2386.5 c 128,-1,9
 578 2320 578 2320 528 2273 c 128,-1,10
 478 2226 478 2226 406 2226 c 128,-1,11
 334 2226 334 2226 284 2273 c 128,-1,4
 234 2320 234 2320 234 2386.5 c 128,-1,5
46 1322 m 1,12,-1
 705 1979 l 1,13,-1
 851 2041 l 1,14,-1
 789 1895 l 1,15,-1
 215 1321 l 1,16,-1
 814 722 l 1,17,-1
 155 62 l 1,18,-1
 9 0 l 1,19,-1
 71 146 l 1,20,-1
 646 721 l 1,21,-1
 46 1322 l 1,12,-1
EndSplineSet
EndChar
StartChar: uni0219
Encoding: 537 537 474
Width: 943
Flags: W
LayerCount: 2
Back
Fore
SplineSet
517 -119 m 1,0,-1
 351 -379 l 1,1,-1
 228 -379 l 1,2,-1
 345 -119 l 1,3,-1
 517 -119 l 1,0,-1
814 719 m 1,4,-1
 155 62 l 1,5,-1
 9 0 l 1,6,-1
 71 146 l 1,7,-1
 645 720 l 1,8,-1
 46 1320 l 1,9,-1
 705 1979 l 1,10,-1
 851 2041 l 1,11,-1
 789 1895 l 1,12,-1
 213 1320 l 1,13,-1
 814 719 l 1,4,-1
EndSplineSet
EndChar
StartChar: uni021B
Encoding: 539 539 476
Width: 1577
Flags: W
LayerCount: 2
Back
Fore
SplineSet
550 -119 m 1,0,-1
 384 -379 l 1,1,-1
 261 -379 l 1,2,-1
 378 -119 l 1,3,-1
 550 -119 l 1,0,-1
734 2041 m 1,4,-1
 1386 1389 l 1,5,-1
 1455 1250 l 1,6,-1
 1306 1299 l 1,7,-1
 793 1823 l 1,8,-1
 793 147 l 1,9,-1
 734 0 l 1,10,-1
 674 147 l 1,11,-1
 674 1822 l 1,12,-1
 161 1299 l 1,13,-1
 12 1249 l 1,14,-1
 82 1389 l 1,15,-1
 734 2041 l 1,16,-1
 734 2041 l 1,4,-1
EndSplineSet
EndChar
StartChar: uni021C
Encoding: 540 540 477
Width: 1032
Flags: W
LayerCount: 2
Back
Fore
SplineSet
16 -465 m 1,0,-1
 16 -309 l 1,1,2
 92 -328 92 -328 194 -328 c 0,3,4
 450 -328 450 -328 622 -191.5 c 128,-1,5
 794 -55 794 -55 794 152 c 0,6,7
 794 312 794 312 680 413 c 128,-1,8
 566 514 566 514 383 514 c 0,9,10
 293 514 293 514 178 482 c 1,11,-1
 178 633 l 1,12,-1
 291 658 l 2,13,14
 721 753 721 753 721 1018 c 0,15,16
 721 1149 721 1149 624 1227.5 c 128,-1,17
 527 1306 527 1306 360 1306 c 0,18,19
 188 1306 188 1306 26 1216 c 1,20,-1
 26 1380 l 1,21,22
 180 1458 180 1458 370 1458 c 0,23,24
 616 1458 616 1458 754.5 1340 c 128,-1,25
 893 1222 893 1222 893 1028 c 0,26,27
 893 747 893 747 596 633 c 1,28,-1
 596 624 l 1,29,30
 769 583 769 583 870 458.5 c 128,-1,31
 971 334 971 334 971 158 c 0,32,33
 971 -106 971 -106 750.5 -292.5 c 128,-1,34
 530 -479 530 -479 198 -479 c 0,35,36
 95 -479 95 -479 16 -465 c 1,0,-1
EndSplineSet
EndChar
StartChar: uni021D
Encoding: 541 541 478
Width: 880
Flags: W
LayerCount: 2
Back
Fore
SplineSet
47 -467 m 1,0,-1
 47 -322 l 1,1,2
 113 -340 113 -340 198 -340 c 0,3,4
 401 -340 401 -340 531.5 -240 c 128,-1,5
 662 -140 662 -140 662 18 c 0,6,7
 662 143 662 143 580 220 c 128,-1,8
 498 297 498 297 358 297 c 0,9,10
 270 297 270 297 176 268 c 1,11,-1
 176 408 l 1,12,-1
 272 426 l 2,13,14
 430 456 430 456 518 529 c 128,-1,15
 606 602 606 602 606 700 c 256,16,17
 606 798 606 798 532.5 854 c 128,-1,18
 459 910 459 910 322 910 c 0,19,20
 172 910 172 910 30 828 c 1,21,-1
 30 979 l 1,22,23
 164 1048 164 1048 340 1048 c 0,24,25
 539 1048 539 1048 654.5 953.5 c 128,-1,26
 770 859 770 859 770 708 c 0,27,28
 770 509 770 509 538 400 c 1,29,-1
 538 393 l 1,30,31
 670 363 670 363 750 263.5 c 128,-1,32
 830 164 830 164 830 24 c 0,33,34
 830 -193 830 -193 656 -336 c 128,-1,35
 482 -479 482 -479 205 -479 c 0,36,37
 108 -479 108 -479 47 -467 c 1,0,-1
EndSplineSet
EndChar
StartChar: uni0220
Encoding: 544 544 481
Width: 1503
Flags: W
LayerCount: 2
Back
Fore
SplineSet
1319 -471 m 1,0,-1
 1151 -471 l 1,1,-1
 1151 821 l 2,2,3
 1151 1306 1151 1306 798 1306 c 0,4,5
 606 1306 606 1306 481 1165 c 128,-1,6
 356 1024 356 1024 356 811 c 2,7,-1
 356 0 l 1,8,-1
 188 0 l 1,9,-1
 188 1434 l 1,10,-1
 356 1434 l 1,11,-1
 356 1172 l 1,12,-1
 362 1172 l 1,13,14
 520 1458 520 1458 838 1458 c 0,15,16
 1071 1458 1071 1458 1195 1304.5 c 128,-1,17
 1319 1151 1319 1151 1319 866 c 2,18,-1
 1319 -471 l 1,0,-1
EndSplineSet
EndChar
StartChar: uni0221
Encoding: 545 545 482
Width: 1319
Flags: W
LayerCount: 2
Back
Fore
SplineSet
1080 -379 m 1,0,1
 1065 -443 1065 -443 1063 -482 c 1,2,-1
 918 -482 l 1,3,4
 925 -380 925 -380 964 -280 c 1,5,6
 876 -160 876 -160 876 20 c 2,7,-1
 876 174 l 1,8,-1
 872 174 l 1,9,10
 758 -24 758 -24 520 -24 c 0,11,12
 327 -24 327 -24 211.5 113.5 c 128,-1,13
 96 251 96 251 96 488 c 0,14,15
 96 742 96 742 224 895 c 128,-1,16
 352 1048 352 1048 565 1048 c 0,17,18
 776 1048 776 1048 872 882 c 1,19,-1
 876 882 l 1,20,-1
 876 1516 l 1,21,-1
 1040 1516 l 1,22,-1
 1040 20 l 2,23,24
 1040 -58 1040 -58 1059 -123 c 1,25,26
 1162 0 1162 0 1313 0 c 0,27,28
 1424 0 1424 0 1494 -58.5 c 128,-1,29
 1564 -117 1564 -117 1564 -209 c 0,30,31
 1564 -304 1564 -304 1483 -367 c 128,-1,32
 1402 -430 1402 -430 1274 -430 c 0,33,34
 1162 -430 1162 -430 1080 -379 c 1,0,1
876 463 m 2,35,-1
 876 614 l 2,36,37
 876 738 876 738 794 824 c 128,-1,38
 712 910 712 910 586 910 c 0,39,40
 436 910 436 910 350 800 c 128,-1,41
 264 690 264 690 264 496 c 0,42,43
 264 319 264 319 346.5 216.5 c 128,-1,44
 429 114 429 114 568 114 c 0,45,46
 705 114 705 114 790.5 213 c 128,-1,47
 876 312 876 312 876 463 c 2,35,-1
1134 -246 m 1,48,49
 1194 -293 1194 -293 1274 -293 c 0,50,51
 1420 -293 1420 -293 1420 -209 c 0,52,53
 1420 -133 1420 -133 1308 -133 c 0,54,55
 1202 -133 1202 -133 1134 -246 c 1,48,49
EndSplineSet
EndChar
StartChar: uni0222
Encoding: 546 546 483
Width: 1208
Flags: W
LayerCount: 2
Back
Fore
SplineSet
342 864 m 1,0,1
 137 970 137 970 137 1192 c 0,2,3
 137 1312 137 1312 192 1434 c 1,4,-1
 364 1434 l 1,5,6
 305 1322 305 1322 305 1200 c 0,7,8
 305 1084 305 1084 387 1009 c 128,-1,9
 469 934 469 934 606 934 c 0,10,11
 744 934 744 934 827 1009 c 128,-1,12
 910 1084 910 1084 910 1200 c 0,13,14
 910 1318 910 1318 848 1434 c 1,15,-1
 1022 1434 l 1,16,17
 1077 1310 1077 1310 1077 1192 c 0,18,19
 1077 986 1077 986 868 864 c 1,20,21
 1002 812 1002 812 1077.5 705 c 128,-1,22
 1153 598 1153 598 1153 459 c 0,23,24
 1153 244 1153 244 997 110 c 128,-1,25
 841 -24 841 -24 602 -24 c 0,26,27
 360 -24 360 -24 211 104.5 c 128,-1,28
 62 233 62 233 62 450 c 0,29,30
 62 736 62 736 342 864 c 1,0,1
606 778 m 0,31,32
 448 778 448 778 343 690.5 c 128,-1,33
 238 603 238 603 238 454 c 256,34,35
 238 305 238 305 346 216 c 128,-1,36
 454 127 454 127 606 127 c 0,37,38
 765 127 765 127 871 215.5 c 128,-1,39
 977 304 977 304 977 454 c 0,40,41
 977 603 977 603 868 690.5 c 128,-1,42
 759 778 759 778 606 778 c 0,31,32
EndSplineSet
EndChar
StartChar: uni0223
Encoding: 547 547 484
Width: 1161
Flags: W
LayerCount: 2
Back
Fore
SplineSet
338 884 m 1,0,1
 243 932 243 932 188 1031 c 128,-1,2
 133 1130 133 1130 133 1254 c 0,3,4
 133 1382 133 1382 176 1516 c 1,5,-1
 336 1516 l 1,6,7
 297 1396 297 1396 297 1264 c 0,8,9
 297 1122 297 1122 373 1035 c 128,-1,10
 449 948 449 948 582 948 c 256,11,12
 715 948 715 948 789.5 1035.5 c 128,-1,13
 864 1123 864 1123 864 1264 c 0,14,15
 864 1396 864 1396 826 1516 c 1,16,-1
 985 1516 l 1,17,18
 1028 1382 1028 1382 1028 1254 c 0,19,20
 1028 1009 1028 1009 824 884 c 1,21,22
 1090 758 1090 758 1090 465 c 0,23,24
 1090 250 1090 250 941.5 113 c 128,-1,25
 793 -24 793 -24 574 -24 c 0,26,27
 351 -24 351 -24 211.5 109.5 c 128,-1,28
 72 243 72 243 72 461 c 0,29,30
 72 755 72 755 338 884 c 1,0,1
582 809 m 0,31,32
 436 809 436 809 338 714.5 c 128,-1,33
 240 620 240 620 240 463 c 0,34,35
 240 307 240 307 340 210.5 c 128,-1,36
 440 114 440 114 580 114 c 0,37,38
 725 114 725 114 823.5 210 c 128,-1,39
 922 306 922 306 922 463 c 0,40,41
 922 616 922 616 822 712.5 c 128,-1,42
 722 809 722 809 582 809 c 0,31,32
EndSplineSet
EndChar
StartChar: uni0224
Encoding: 548 548 485
Width: 1168
Flags: W
LayerCount: 2
Back
Fore
SplineSet
1114 -244 m 1,0,-1
 950 -244 l 1,1,2
 989 -174 989 -174 989 -114 c 0,3,4
 989 0 989 0 844 0 c 2,5,-1
 33 0 l 1,6,-1
 33 47 l 1,7,-1
 866 1282 l 1,8,-1
 100 1282 l 1,9,-1
 100 1434 l 1,10,-1
 1124 1434 l 1,11,-1
 1124 1394 l 1,12,-1
 284 152 l 1,13,-1
 856 152 l 2,14,15
 1147 152 1147 152 1147 -100 c 0,16,17
 1147 -171 1147 -171 1114 -244 c 1,0,-1
EndSplineSet
EndChar
StartChar: uni0225
Encoding: 549 549 486
Width: 926
Flags: W
LayerCount: 2
Back
Fore
SplineSet
895 -226 m 1,0,-1
 746 -226 l 1,1,2
 780 -162 780 -162 780 -106 c 0,3,4
 780 0 780 0 647 0 c 2,5,-1
 33 0 l 1,6,-1
 33 51 l 1,7,-1
 639 884 l 1,8,-1
 90 884 l 1,9,-1
 90 1024 l 1,10,-1
 880 1024 l 1,11,-1
 880 977 l 1,12,-1
 274 140 l 1,13,-1
 658 140 l 2,14,15
 926 140 926 140 926 -92 c 0,16,17
 926 -157 926 -157 895 -226 c 1,0,-1
EndSplineSet
EndChar
StartChar: uni022A
Encoding: 554 554 491
Width: 1580
Flags: W
LayerCount: 2
Back
Fore
SplineSet
1030 1846 m 1,0,-1
 522 1846 l 1,1,-1
 522 1955 l 1,2,-1
 1030 1955 l 1,3,-1
 1030 1846 l 1,0,-1
968 1579 m 0,4,5
 928 1579 928 1579 899 1607 c 128,-1,6
 870 1635 870 1635 870 1678 c 0,7,8
 870 1720 870 1720 898.5 1748 c 128,-1,9
 927 1776 927 1776 966 1776 c 0,10,11
 1008 1776 1008 1776 1037.5 1747.5 c 128,-1,12
 1067 1719 1067 1719 1067 1678 c 256,13,14
 1067 1637 1067 1637 1038.5 1608 c 128,-1,15
 1010 1579 1010 1579 968 1579 c 0,4,5
584 1579 m 256,16,17
 543 1579 543 1579 513 1607.5 c 128,-1,18
 483 1636 483 1636 483 1678 c 256,19,20
 483 1720 483 1720 511.5 1748 c 128,-1,21
 540 1776 540 1776 582 1776 c 0,22,23
 623 1776 623 1776 652.5 1747.5 c 128,-1,24
 682 1719 682 1719 682 1678 c 256,25,26
 682 1637 682 1637 653.5 1608 c 128,-1,27
 625 1579 625 1579 584 1579 c 256,16,17
580 2393 m 128,-1,29
 580 2460 580 2460 630.5 2507 c 128,-1,30
 681 2554 681 2554 752 2554 c 128,-1,31
 823 2554 823 2554 873.5 2507 c 128,-1,32
 924 2460 924 2460 924 2393 c 128,-1,33
 924 2326 924 2326 873.5 2279 c 128,-1,34
 823 2232 823 2232 752 2232 c 128,-1,35
 681 2232 681 2232 630.5 2279 c 128,-1,28
 580 2326 580 2326 580 2393 c 128,-1,29
826 741 m 1,36,-1
 1442 1358 l 1,37,-1
 826 1974 l 1,38,-1
 742 2058 l 1,39,-1
 42 1358 l 1,40,-1
 658 741 l 1,41,-1
 83 166 l 1,42,-1
 21 20 l 1,43,-1
 167 82 l 1,44,-1
 742 658 l 1,45,-1
 1318 82 l 1,46,-1
 1464 20 l 1,47,-1
 1402 166 l 1,48,-1
 826 741 l 1,36,-1
210 1357 m 1,49,-1
 743 1890 l 1,50,-1
 1275 1358 l 1,51,-1
 742 825 l 1,52,-1
 210 1357 l 1,49,-1
EndSplineSet
EndChar
StartChar: uni022B
Encoding: 555 555 492
Width: 1580
Flags: W
LayerCount: 2
Back
Fore
SplineSet
854 1485 m 1,0,-1
 346 1485 l 1,1,-1
 346 1594 l 1,2,-1
 854 1594 l 1,3,-1
 854 1485 l 1,0,-1
792 1218 m 0,4,5
 752 1218 752 1218 723 1246 c 128,-1,6
 694 1274 694 1274 694 1317 c 0,7,8
 694 1359 694 1359 722.5 1387 c 128,-1,9
 751 1415 751 1415 790 1415 c 0,10,11
 832 1415 832 1415 861.5 1386.5 c 128,-1,12
 891 1358 891 1358 891 1317 c 256,13,14
 891 1276 891 1276 862.5 1247 c 128,-1,15
 834 1218 834 1218 792 1218 c 0,4,5
408 1218 m 256,16,17
 367 1218 367 1218 337 1246.5 c 128,-1,18
 307 1275 307 1275 307 1317 c 256,19,20
 307 1359 307 1359 335.5 1387 c 128,-1,21
 364 1415 364 1415 406 1415 c 0,22,23
 447 1415 447 1415 476.5 1386.5 c 128,-1,24
 506 1358 506 1358 506 1317 c 256,25,26
 506 1276 506 1276 477.5 1247 c 128,-1,27
 449 1218 449 1218 408 1218 c 256,16,17
653 722 m 1,28,-1
 37 1338 l 1,29,-1
 653 1954 l 1,30,-1
 736 2038 l 1,31,-1
 1436 1339 l 1,32,-1
 820 722 l 1,33,-1
 1396 146 l 1,34,-1
 1458 0 l 1,35,-1
 1312 62 l 1,36,-1
 737 638 l 1,37,-1
 161 62 l 1,38,-1
 15 0 l 1,39,-1
 77 146 l 1,40,-1
 653 722 l 1,28,-1
1269 1338 m 1,41,-1
 736 1870 l 1,42,-1
 204 1338 l 1,43,-1
 737 805 l 1,44,-1
 1269 1338 l 1,41,-1
EndSplineSet
EndChar
StartChar: uni022C
Encoding: 556 556 493
Width: 1580
Flags: W
LayerCount: 2
Back
Fore
SplineSet
1102 1812 m 1,0,1
 1102 1707 1102 1707 1054 1640.5 c 128,-1,2
 1006 1574 1006 1574 924 1574 c 0,3,4
 853 1574 853 1574 762 1626 c 0,5,6
 685 1669 685 1669 643 1669 c 0,7,8
 555 1669 555 1669 555 1556 c 1,9,-1
 461 1556 l 1,10,11
 461 1663 461 1663 509 1727.5 c 128,-1,12
 557 1792 557 1792 643 1792 c 0,13,14
 708 1792 708 1792 792 1740 c 0,15,16
 866 1696 866 1696 920 1696 c 0,17,18
 1004 1696 1004 1696 1004 1812 c 1,19,-1
 1102 1812 l 1,0,1
1030 1866 m 1,20,-1
 522 1866 l 1,21,-1
 522 1975 l 1,22,-1
 1030 1975 l 1,23,-1
 1030 1866 l 1,20,-1
580 2393 m 128,-1,25
 580 2460 580 2460 630.5 2507 c 128,-1,26
 681 2554 681 2554 752 2554 c 128,-1,27
 823 2554 823 2554 873.5 2507 c 128,-1,28
 924 2460 924 2460 924 2393 c 128,-1,29
 924 2326 924 2326 873.5 2279 c 128,-1,30
 823 2232 823 2232 752 2232 c 128,-1,31
 681 2232 681 2232 630.5 2279 c 128,-1,24
 580 2326 580 2326 580 2393 c 128,-1,25
826 741 m 1,32,-1
 1442 1358 l 1,33,-1
 826 1974 l 1,34,-1
 742 2058 l 1,35,-1
 42 1358 l 1,36,-1
 658 741 l 1,37,-1
 83 166 l 1,38,-1
 21 20 l 1,39,-1
 167 82 l 1,40,-1
 742 658 l 1,41,-1
 1318 82 l 1,42,-1
 1464 20 l 1,43,-1
 1402 166 l 1,44,-1
 826 741 l 1,32,-1
210 1357 m 1,45,-1
 743 1890 l 1,46,-1
 1275 1358 l 1,47,-1
 742 825 l 1,48,-1
 210 1357 l 1,45,-1
EndSplineSet
EndChar
StartChar: uni022D
Encoding: 557 557 494
Width: 1580
Flags: W
LayerCount: 2
Back
Fore
SplineSet
932 1458 m 1,0,1
 932 1353 932 1353 884 1286.5 c 128,-1,2
 836 1220 836 1220 754 1220 c 0,3,4
 683 1220 683 1220 592 1272 c 0,5,6
 515 1315 515 1315 473 1315 c 0,7,8
 385 1315 385 1315 385 1202 c 1,9,-1
 291 1202 l 1,10,11
 291 1309 291 1309 339 1373.5 c 128,-1,12
 387 1438 387 1438 473 1438 c 0,13,14
 538 1438 538 1438 622 1386 c 0,15,16
 696 1342 696 1342 750 1342 c 0,17,18
 834 1342 834 1342 834 1458 c 1,19,-1
 932 1458 l 1,0,1
860 1512 m 1,20,-1
 352 1512 l 1,21,-1
 352 1621 l 1,22,-1
 860 1621 l 1,23,-1
 860 1512 l 1,20,-1
653 722 m 1,24,-1
 37 1338 l 1,25,-1
 653 1954 l 1,26,-1
 736 2038 l 1,27,-1
 1436 1339 l 1,28,-1
 820 722 l 1,29,-1
 1396 146 l 1,30,-1
 1458 0 l 1,31,-1
 1312 62 l 1,32,-1
 737 638 l 1,33,-1
 161 62 l 1,34,-1
 15 0 l 1,35,-1
 77 146 l 1,36,-1
 653 722 l 1,24,-1
1269 1338 m 1,37,-1
 736 1870 l 1,38,-1
 204 1338 l 1,39,-1
 737 805 l 1,40,-1
 1269 1338 l 1,37,-1
EndSplineSet
EndChar
StartChar: uni0230
Encoding: 560 560 497
Width: 1580
Flags: W
LayerCount: 2
Back
Fore
SplineSet
1026 1837 m 1,0,-1
 518 1837 l 1,1,-1
 518 1946 l 1,2,-1
 1026 1946 l 1,3,-1
 1026 1837 l 1,0,-1
772 1575 m 0,4,5
 732 1575 732 1575 703 1603.5 c 128,-1,6
 674 1632 674 1632 674 1674 c 0,7,8
 674 1715 674 1715 703 1742.5 c 128,-1,9
 732 1770 732 1770 772 1770 c 0,10,11
 813 1770 813 1770 841.5 1742.5 c 128,-1,12
 870 1715 870 1715 870 1674 c 256,13,14
 870 1633 870 1633 841.5 1604 c 128,-1,15
 813 1575 813 1575 772 1575 c 0,4,5
580 2393 m 128,-1,17
 580 2460 580 2460 630.5 2507 c 128,-1,18
 681 2554 681 2554 752 2554 c 128,-1,19
 823 2554 823 2554 873.5 2507 c 128,-1,20
 924 2460 924 2460 924 2393 c 128,-1,21
 924 2326 924 2326 873.5 2279 c 128,-1,22
 823 2232 823 2232 752 2232 c 128,-1,23
 681 2232 681 2232 630.5 2279 c 128,-1,16
 580 2326 580 2326 580 2393 c 128,-1,17
826 741 m 1,24,-1
 1442 1358 l 1,25,-1
 826 1974 l 1,26,-1
 742 2058 l 1,27,-1
 42 1358 l 1,28,-1
 658 741 l 1,29,-1
 83 166 l 1,30,-1
 21 20 l 1,31,-1
 167 82 l 1,32,-1
 742 658 l 1,33,-1
 1318 82 l 1,34,-1
 1464 20 l 1,35,-1
 1402 166 l 1,36,-1
 826 741 l 1,24,-1
210 1357 m 1,37,-1
 743 1890 l 1,38,-1
 1275 1358 l 1,39,-1
 742 825 l 1,40,-1
 210 1357 l 1,37,-1
EndSplineSet
EndChar
StartChar: uni0231
Encoding: 561 561 498
Width: 1580
Flags: W
LayerCount: 2
Back
Fore
SplineSet
854 1480 m 1,0,-1
 346 1480 l 1,1,-1
 346 1589 l 1,2,-1
 854 1589 l 1,3,-1
 854 1480 l 1,0,-1
600 1218 m 0,4,5
 560 1218 560 1218 531 1246.5 c 128,-1,6
 502 1275 502 1275 502 1317 c 0,7,8
 502 1358 502 1358 531 1385.5 c 128,-1,9
 560 1413 560 1413 600 1413 c 0,10,11
 641 1413 641 1413 669.5 1385.5 c 128,-1,12
 698 1358 698 1358 698 1317 c 256,13,14
 698 1276 698 1276 669.5 1247 c 128,-1,15
 641 1218 641 1218 600 1218 c 0,4,5
653 722 m 1,16,-1
 37 1338 l 1,17,-1
 653 1954 l 1,18,-1
 736 2038 l 1,19,-1
 1436 1339 l 1,20,-1
 820 722 l 1,21,-1
 1396 146 l 1,22,-1
 1458 0 l 1,23,-1
 1312 62 l 1,24,-1
 737 638 l 1,25,-1
 161 62 l 1,26,-1
 15 0 l 1,27,-1
 77 146 l 1,28,-1
 653 722 l 1,16,-1
1269 1338 m 1,29,-1
 736 1870 l 1,30,-1
 204 1338 l 1,31,-1
 737 805 l 1,32,-1
 1269 1338 l 1,29,-1
EndSplineSet
EndChar
StartChar: uni0234
Encoding: 564 564 501
Width: 608
Flags: W
LayerCount: 2
Back
Fore
SplineSet
368 -379 m 1,0,1
 354 -443 354 -443 352 -482 c 1,2,-1
 207 -482 l 1,3,4
 214 -380 214 -380 254 -280 c 1,5,6
 166 -160 166 -160 166 20 c 2,7,-1
 166 1516 l 1,8,-1
 330 1516 l 1,9,-1
 330 20 l 2,10,11
 330 -58 330 -58 348 -123 c 1,12,13
 451 0 451 0 602 0 c 0,14,15
 716 0 716 0 785 -59 c 128,-1,16
 854 -118 854 -118 854 -209 c 0,17,18
 854 -303 854 -303 772 -366.5 c 128,-1,19
 690 -430 690 -430 563 -430 c 0,20,21
 452 -430 452 -430 368 -379 c 1,0,1
424 -246 m 1,22,23
 483 -293 483 -293 563 -293 c 0,24,25
 708 -293 708 -293 708 -209 c 0,26,27
 708 -133 708 -133 598 -133 c 0,28,29
 491 -133 491 -133 424 -246 c 1,22,23
EndSplineSet
EndChar
StartChar: uni0235
Encoding: 565 565 502
Width: 1294
Flags: W
LayerCount: 2
Back
Fore
SplineSet
1054 -379 m 1,0,1
 1040 -443 1040 -443 1038 -482 c 1,2,-1
 893 -482 l 1,3,4
 900 -380 900 -380 940 -280 c 1,5,6
 852 -160 852 -160 852 20 c 2,7,-1
 852 584 l 2,8,9
 852 910 852 910 614 910 c 0,10,11
 491 910 491 910 410.5 817.5 c 128,-1,12
 330 725 330 725 330 584 c 2,13,-1
 330 0 l 1,14,-1
 166 0 l 1,15,-1
 166 1024 l 1,16,-1
 330 1024 l 1,17,-1
 330 854 l 1,18,-1
 334 854 l 1,19,20
 450 1048 450 1048 670 1048 c 0,21,22
 838 1048 838 1048 927 939.5 c 128,-1,23
 1016 831 1016 831 1016 626 c 2,24,-1
 1016 20 l 2,25,26
 1016 -58 1016 -58 1034 -123 c 1,27,28
 1137 0 1137 0 1288 0 c 0,29,30
 1400 0 1400 0 1470 -58.5 c 128,-1,31
 1540 -117 1540 -117 1540 -209 c 0,32,33
 1540 -303 1540 -303 1458 -366.5 c 128,-1,34
 1376 -430 1376 -430 1250 -430 c 0,35,36
 1138 -430 1138 -430 1054 -379 c 1,0,1
1110 -246 m 1,37,38
 1169 -293 1169 -293 1250 -293 c 0,39,40
 1394 -293 1394 -293 1394 -209 c 0,41,42
 1394 -133 1394 -133 1284 -133 c 0,43,44
 1177 -133 1177 -133 1110 -246 c 1,37,38
EndSplineSet
EndChar
StartChar: uni0236
Encoding: 566 566 503
Width: 694
Flags: W
LayerCount: 2
Back
Fore
SplineSet
422 -379 m 1,0,1
 408 -443 408 -443 406 -482 c 1,2,-1
 260 -482 l 1,3,4
 268 -380 268 -380 307 -280 c 1,5,6
 219 -160 219 -160 219 20 c 2,7,-1
 219 884 l 1,8,-1
 43 884 l 1,9,-1
 43 1024 l 1,10,-1
 219 1024 l 1,11,-1
 219 1274 l 1,12,-1
 383 1327 l 1,13,-1
 383 1024 l 1,14,-1
 641 1024 l 1,15,-1
 641 884 l 1,16,-1
 383 884 l 1,17,-1
 383 20 l 2,18,19
 383 -58 383 -58 402 -123 c 1,20,21
 504 0 504 0 656 0 c 0,22,23
 767 0 767 0 837.5 -58.5 c 128,-1,24
 908 -117 908 -117 908 -209 c 0,25,26
 908 -303 908 -303 826 -366.5 c 128,-1,27
 744 -430 744 -430 616 -430 c 0,28,29
 505 -430 505 -430 422 -379 c 1,0,1
477 -246 m 1,30,31
 536 -293 536 -293 616 -293 c 0,32,33
 762 -293 762 -293 762 -209 c 0,34,35
 762 -133 762 -133 652 -133 c 0,36,37
 544 -133 544 -133 477 -246 c 1,30,31
EndSplineSet
EndChar
StartChar: uni0237
Encoding: 567 567 504
Width: 496
Flags: W
LayerCount: 2
Back
Fore
SplineSet
330 43 m 2,0,1
 330 -209 330 -209 228.5 -345.5 c 128,-1,2
 127 -482 127 -482 -62 -482 c 0,3,4
 -132 -482 -132 -482 -198 -450 c 1,5,-1
 -198 -297 l 1,6,7
 -124 -342 -124 -342 -58 -342 c 0,8,9
 166 -342 166 -342 166 16 c 2,10,-1
 166 1024 l 1,11,-1
 330 1024 l 1,12,-1
 330 43 l 2,0,1
EndSplineSet
EndChar
StartChar: uni0239
Encoding: 569 569 506
Width: 1914
Flags: W
LayerCount: 2
Back
Fore
SplineSet
1044 148 m 1,0,-1
 1040 148 l 1,1,-1
 1040 -471 l 1,2,-1
 876 -471 l 1,3,-1
 876 174 l 1,4,-1
 872 174 l 1,5,6
 758 -24 758 -24 520 -24 c 0,7,8
 327 -24 327 -24 211.5 113.5 c 128,-1,9
 96 251 96 251 96 488 c 0,10,11
 96 742 96 742 224 895 c 128,-1,12
 352 1048 352 1048 565 1048 c 0,13,14
 776 1048 776 1048 872 882 c 1,15,-1
 876 882 l 1,16,-1
 876 1024 l 1,17,-1
 1040 1024 l 1,18,-1
 1040 844 l 1,19,-1
 1044 844 l 1,20,21
 1165 1048 1165 1048 1398 1048 c 0,22,23
 1595 1048 1595 1048 1706.5 910.5 c 128,-1,24
 1818 773 1818 773 1818 542 c 0,25,26
 1818 285 1818 285 1693 130.5 c 128,-1,27
 1568 -24 1568 -24 1351 -24 c 0,28,29
 1148 -24 1148 -24 1044 148 c 1,0,-1
876 448 m 1,30,-1
 876 614 l 2,31,32
 876 738 876 738 794 824 c 128,-1,33
 712 910 712 910 586 910 c 0,34,35
 436 910 436 910 350 800 c 128,-1,36
 264 690 264 690 264 496 c 0,37,38
 264 319 264 319 346.5 216.5 c 128,-1,39
 429 114 429 114 568 114 c 0,40,41
 705 114 705 114 790 213 c 0,42,43
 871 307 871 307 876 448 c 1,30,-1
1040 576 m 1,44,-1
 1040 418 l 2,45,46
 1040 291 1040 291 1122.5 202.5 c 128,-1,47
 1205 114 1205 114 1332 114 c 0,48,49
 1481 114 1481 114 1565.5 228 c 128,-1,50
 1650 342 1650 342 1650 545 c 0,51,52
 1650 716 1650 716 1571 813 c 128,-1,53
 1492 910 1492 910 1357 910 c 0,54,55
 1214 910 1214 910 1127 810 c 0,56,57
 1044 716 1044 716 1040 576 c 1,44,-1
EndSplineSet
EndChar
StartChar: uni023A
Encoding: 570 570 507
Width: 765
Flags: W
LayerCount: 2
Back
Fore
SplineSet
1264 1584 m 1,0,-1
 186 -150 l 1,1,-1
 22 -150 l 1,2,-1
 1100 1584 l 1,3,-1
 1264 1584 l 1,0,-1
12 2408.5 m 128,-1,5
 12 2475 12 2475 62 2522.5 c 128,-1,6
 112 2570 112 2570 184 2570 c 128,-1,7
 256 2570 256 2570 306 2522.5 c 128,-1,8
 356 2475 356 2475 356 2408.5 c 128,-1,9
 356 2342 356 2342 306 2295 c 128,-1,10
 256 2248 256 2248 184 2248 c 128,-1,11
 112 2248 112 2248 62 2295 c 128,-1,4
 12 2342 12 2342 12 2408.5 c 128,-1,5
10 144 m 1,12,13
 10 749 10 749 10.5 1073 c 128,-1,14
 11 1397 11 1397 11 1570 c 2,15,-1
 11 1829 l 1,16,-1
 11 2043 l 1,17,-1
 615 1419 l 1,18,-1
 682 1274 l 1,19,-1
 548 1331 l 1,20,-1
 126 1779 l 1,21,-1
 126 1352 l 1,22,-1
 615 838 l 1,23,-1
 682 693 l 1,24,-1
 548 750 l 1,25,-1
 126 1197 l 1,26,-1
 126 144 l 1,27,-1
 68 0 l 1,28,-1
 10 144 l 1,12,13
EndSplineSet
EndChar
StartChar: uni023B
Encoding: 571 571 508
Width: 1103
Flags: W
LayerCount: 2
Back
Fore
SplineSet
1264 1584 m 1,0,-1
 186 -150 l 1,1,-1
 22 -150 l 1,2,-1
 1100 1584 l 1,3,-1
 1264 1584 l 1,0,-1
413 2403 m 128,-1,5
 413 2470 413 2470 463.5 2517 c 128,-1,6
 514 2564 514 2564 585 2564 c 128,-1,7
 656 2564 656 2564 706.5 2517 c 128,-1,8
 757 2470 757 2470 757 2403 c 128,-1,9
 757 2336 757 2336 706.5 2289 c 128,-1,10
 656 2242 656 2242 585 2242 c 128,-1,11
 514 2242 514 2242 463.5 2289 c 128,-1,4
 413 2336 413 2336 413 2403 c 128,-1,5
109 1044 m 1,12,-1
 761 392 l 1,13,-1
 910 322 l 1,14,-1
 851 461 l 1,15,-1
 268 1044 l 1,16,-1
 851 1627 l 1,17,-1
 910 1765 l 1,18,-1
 761 1696 l 1,19,-1
 109 1044 l 1,12,-1
EndSplineSet
EndChar
StartChar: uni023C
Encoding: 572 572 509
Width: 879
Flags: W
LayerCount: 2
Back
Fore
SplineSet
1035 1233 m 1,0,-1
 177 -201 l 1,1,-1
 33 -201 l 1,2,-1
 892 1233 l 1,3,-1
 1035 1233 l 1,0,-1
-11 1021 m 1,4,-1
 640 1673 l 1,5,-1
 789 1742 l 1,6,-1
 730 1603 l 1,7,-1
 147 1021 l 1,8,-1
 730 438 l 1,9,-1
 790 299 l 1,10,-1
 640 368 l 1,11,-1
 -11 1021 l 1,4,-1
EndSplineSet
EndChar
StartChar: uni023E
Encoding: 574 574 511
Width: 1577
Flags: W
LayerCount: 2
Back
Fore
SplineSet
1225 1584 m 1,0,-1
 147 -150 l 1,1,-1
 -17 -150 l 1,2,-1
 1061 1584 l 1,3,-1
 1225 1584 l 1,0,-1
575 2393 m 128,-1,5
 575 2460 575 2460 625.5 2507 c 128,-1,6
 676 2554 676 2554 747 2554 c 128,-1,7
 818 2554 818 2554 868.5 2507 c 128,-1,8
 919 2460 919 2460 919 2393 c 128,-1,9
 919 2326 919 2326 868.5 2279 c 128,-1,10
 818 2232 818 2232 747 2232 c 128,-1,11
 676 2232 676 2232 625.5 2279 c 128,-1,4
 575 2326 575 2326 575 2393 c 128,-1,5
744 2072 m 1,12,-1
 92 1420 l 1,13,-1
 22 1281 l 1,14,-1
 171 1330 l 1,15,-1
 684 1854 l 1,16,-1
 684 179 l 1,17,-1
 744 31 l 1,18,-1
 803 179 l 1,19,-1
 803 1854 l 1,20,-1
 1316 1330 l 1,21,-1
 1465 1281 l 1,22,-1
 1396 1420 l 1,23,-1
 744 2072 l 1,24,-1
 744 2072 l 1,12,-1
EndSplineSet
EndChar
